<svg width="54" height="56" viewBox="0 0 54 56" fill="none" xmlns="http://www.w3.org/2000/svg">
<g filter="url(#filter0_d_1_440)">
<mask id="path-1-outside-1_1_440" maskUnits="userSpaceOnUse" x="0.0655042" y="-0.779265" width="54.2928" height="55.0388" fill="black">
<rect fill="white" x="0.0655042" y="-0.779265" width="54.2928" height="55.0388"/>
<path d="M44.0746 30.902C43.2873 34.2794 41.5213 37.3497 38.9974 39.7291C36.4734 42.1085 33.3035 43.6914 29.8838 44.28C26.4641 44.8685 22.9464 44.4366 19.7704 43.0382C16.5944 41.6398 13.901 39.337 12.0269 36.4176C10.1528 33.4982 9.18109 30.0918 9.23328 26.6241C9.28547 23.1564 10.3592 19.7813 12.3204 16.9207C14.2815 14.0601 17.0429 11.8409 20.2596 10.5405C23.4762 9.24015 27.0053 8.91627 30.4056 9.60937C30.7405 9.64338 31.0696 9.72034 31.3848 9.83837C35.8266 11.0082 39.6373 13.8629 42.007 17.7959C44.3768 21.7288 45.1182 26.432 44.0746 30.902ZM17.9522 39.136C18.2836 39.3768 18.6237 39.6035 18.9724 39.8163C17.6338 35.3842 17.4927 30.6773 18.5632 26.1738L11.8762 24.6099C11.4644 27.3545 11.8131 30.1596 12.8843 32.7205C13.9554 35.2815 15.7082 37.5003 17.9522 39.136ZM14.6081 17.9514C13.663 19.2458 12.9318 20.6833 12.4422 22.2092L19.1249 23.772C20.1591 19.2886 22.3496 15.1541 25.4787 11.7798C25.0902 11.8155 24.7019 11.8666 24.3139 11.933C20.4197 12.605 16.9396 14.763 14.6081 17.9514ZM32.8093 26.9723C33.1495 25.2766 33.352 23.5562 33.4148 21.8279C33.4936 20.063 33.3588 18.2951 33.0135 16.5624C32.5261 14.27 31.621 12.6373 30.6092 12.1856C30.4267 12.14 30.2436 12.0972 30.0599 12.0571C28.9527 12.0133 27.4175 13.0753 25.9634 14.916C24.8862 16.3161 23.9822 17.8411 23.2709 19.4579C22.561 21.0341 21.9797 22.6652 21.5326 24.3351L32.8093 26.9723ZM27.8147 38.7926C28.8927 37.3929 29.7974 35.868 30.5094 34.2513C31.2185 32.6747 31.7991 31.0435 32.2455 29.3736L20.9731 26.7374C20.633 28.433 20.4305 30.1534 20.3677 31.8818C20.2885 33.6456 20.4226 35.4127 20.7673 37.1445C21.2989 39.6395 22.3226 41.3526 23.4407 41.6141C24.5588 41.8756 26.236 40.7941 27.8168 38.7932L27.8147 38.7926ZM39.1638 35.813C40.1197 34.5033 40.8568 33.0474 41.3467 31.502L34.6554 29.9372C33.6183 34.4501 31.404 38.6078 28.2376 41.9876C28.6445 41.9516 29.0514 41.8988 29.4585 41.8292C33.3522 41.1576 36.832 39.0005 39.1638 35.813ZM35.8208 14.624C35.5021 14.3922 35.1745 14.1728 34.8388 13.9665C36.1471 18.3785 36.2769 23.0556 35.2154 27.5327L41.9046 29.097C42.3056 26.36 41.9508 23.5653 40.8786 21.0146C39.8064 18.4639 38.0575 16.2542 35.8208 14.624Z"/>
<path d="M43.6953 29.9606C44.4407 25.8805 43.676 21.6549 41.5251 18.0851C39.2309 14.2778 35.5416 11.5143 31.2414 10.3817L31.2143 10.3737L31.1876 10.3643C30.9175 10.2631 30.6352 10.1971 30.3483 10.168L30.3201 10.1646L30.2923 10.1597C27.0004 9.48881 23.584 9.80201 20.47 11.0607C17.3557 12.3197 14.681 14.4685 12.7824 17.238C10.8838 20.0073 9.84417 23.2751 9.79359 26.6322C9.74306 29.9894 10.6849 33.2875 12.4994 36.114C14.3137 38.9402 16.9209 41.1695 19.9956 42.5234C23.0705 43.8773 26.4768 44.2967 29.7876 43.727C33.0985 43.1571 36.1675 41.6238 38.6111 39.3202C41.0546 37.0166 42.7653 34.0442 43.5275 30.7744L43.6953 29.9606ZM32.9371 28.9592L32.7871 29.518C32.3329 31.2172 31.7425 32.8782 31.0209 34.4823L31.0198 34.4804C30.4059 35.8739 29.6521 37.2001 28.7708 38.4401L28.8044 38.448L28.2576 39.141C27.4412 40.1744 26.5823 40.994 25.7592 41.5246C24.9543 42.0435 24.0916 42.3434 23.3121 42.1611C22.5327 41.9788 21.8926 41.3274 21.401 40.5054C20.8985 39.665 20.4915 38.5504 20.2169 37.2622L20.2156 37.2538C19.8622 35.4777 19.7245 33.6652 19.8057 31.8563C19.87 30.0999 20.0765 28.3495 20.4221 26.6263L20.5355 26.0589L32.9371 28.9592ZM42.0639 31.0936L41.8819 31.6723C41.3737 33.2753 40.6078 34.7847 39.6164 36.1432C37.3498 39.2413 34.0371 41.4021 30.3058 42.2338L29.5531 42.3829C29.1314 42.455 28.7088 42.5097 28.2867 42.5471L26.8206 42.6774L27.8265 41.6041C30.925 38.2967 33.0927 34.2269 34.1075 29.8107L34.2341 29.2625L42.0639 31.0936ZM19.2399 25.7559L19.1087 26.303C18.0612 30.7101 18.1996 35.317 19.5094 39.6542L19.935 41.0623L18.6787 40.2953C18.3175 40.0749 17.9651 39.8403 17.6219 39.591L17.6207 39.5891C15.2941 37.893 13.4759 35.5931 12.3651 32.9376C11.2543 30.282 10.8923 27.3726 11.3193 24.5264L11.4101 23.9248L19.2399 25.7559ZM21.4137 27.4167C21.1449 28.8978 20.983 30.3966 20.9282 31.9015L20.9286 31.9064C20.8516 33.6224 20.9818 35.3418 21.3165 37.0268L21.4175 37.4689C21.6664 38.4761 21.9962 39.3107 22.365 39.9277C22.7977 40.6514 23.2293 40.9877 23.568 41.0669C23.9066 41.1461 24.4415 41.0357 25.1499 40.579C25.8191 40.1476 26.5628 39.4551 27.3041 38.5317L27.3682 38.4501C28.4186 37.0863 29.3011 35.6003 29.9948 34.0251L29.9959 34.0205C30.6134 32.6477 31.1325 31.233 31.5477 29.7867L21.4137 27.4167ZM12.354 25.2979C12.0905 27.7463 12.4486 30.2256 13.4016 32.504C14.3932 34.8746 15.9926 36.9391 18.0343 38.4948C17.0961 34.592 17.0472 30.5252 17.8948 26.5937L12.354 25.2979ZM35.0682 30.6099C34.0851 34.51 32.2353 38.1321 29.6638 41.2145C33.2911 40.5104 36.5236 38.4685 38.7088 35.4819L39.0448 35.002C39.6907 34.0371 40.2181 32.9981 40.6151 31.9072L35.0682 30.6099ZM25.8893 12.1607C22.8269 15.4631 20.6833 19.5102 19.6712 23.898L19.5442 24.4477L11.7205 22.6181L11.9063 22.037C12.4142 20.454 13.174 18.9628 14.1544 17.62L14.6215 17.013C17.0247 14.0405 20.4327 12.032 24.2181 11.3788C24.6203 11.3099 25.0237 11.2575 25.4267 11.2204L26.8875 11.0856L25.8893 12.1607ZM30.7444 11.64L30.7929 11.6529L30.838 11.6731C31.5048 11.9711 32.0601 12.6143 32.4995 13.412C32.9462 14.2233 33.3102 15.2602 33.5622 16.445L33.5638 16.4518C33.9177 18.2272 34.0544 20.0395 33.9741 21.8479C33.9102 23.6065 33.7058 25.3578 33.3597 27.0831L33.2444 27.6517L20.8398 24.7507L20.9886 24.19C21.4435 22.4909 22.0354 20.8303 22.7578 19.2264C23.4869 17.57 24.4144 16.008 25.5181 14.5735L25.5226 14.5681C26.2742 13.6166 27.0601 12.8488 27.8205 12.3194C28.5684 11.7987 29.3511 11.4673 30.0811 11.4961L30.1306 11.498L30.1798 11.5079C30.3686 11.5491 30.5569 11.5931 30.7444 11.64ZM35.1323 13.4886C35.4803 13.7025 35.8209 13.9292 36.1512 14.1695C38.4706 15.8599 40.2843 18.1525 41.3962 20.7976C42.5078 23.4424 42.8759 26.3411 42.4601 29.1792L42.3705 29.7827L34.5377 27.9509L34.6688 27.4038C35.7077 23.0222 35.5797 18.4439 34.2993 14.1259L33.8829 12.72L35.1323 13.4886ZM29.9987 12.6196C29.6239 12.6177 29.0992 12.7962 28.4613 13.2402C27.8154 13.69 27.107 14.3699 26.4063 15.256L26.4074 15.2578C25.3578 16.622 24.4769 18.1083 23.7839 19.6836L23.7828 19.6882C23.1647 21.0607 22.6452 22.4756 22.2295 23.9217L32.3665 26.2924C32.6354 24.8112 32.7974 23.3125 32.852 21.8076L32.8531 21.803C32.9299 20.0834 32.7978 18.3603 32.4613 16.672C32.226 15.5684 31.8944 14.6436 31.5148 13.9543C31.1402 13.2741 30.7504 12.8813 30.4137 12.7166C30.2757 12.6827 30.1374 12.6503 29.9987 12.6196ZM24.0539 12.5555C20.4477 13.2697 17.2347 15.3082 15.0605 18.2809C14.2708 19.3624 13.6377 20.5497 13.1758 21.8044L18.7121 23.0991C19.6907 19.2283 21.5156 15.6276 24.0539 12.5555ZM35.7672 15.2884C36.6812 19.1688 36.7229 23.2067 35.8831 27.1116L41.4224 28.407C41.6758 25.9675 41.3125 23.5003 40.3593 21.2327C39.3718 18.8836 37.7878 16.836 35.7672 15.2884ZM44.6201 31.0299C43.8077 34.5147 41.9864 37.683 39.3823 40.138C36.7779 42.5931 33.5062 44.2264 29.9778 44.8337C26.4498 45.4408 22.8207 44.995 19.5441 43.5525C16.2674 42.1098 13.4879 39.7337 11.5541 36.7218C9.62043 33.7096 8.61701 30.1939 8.6708 26.6159C8.72466 23.0377 9.83229 19.5545 11.8558 16.6028C13.8794 13.6511 16.73 11.3608 20.0489 10.0191C23.3639 8.67907 27.0005 8.34517 30.5051 9.05707C30.8585 9.09645 31.2055 9.17757 31.5397 9.29903C36.1173 10.5081 40.045 13.4511 42.4879 17.5055C44.9332 21.5638 45.697 26.4175 44.6201 31.0299Z"/>
</mask>
<path d="M44.0746 30.902C43.2873 34.2794 41.5213 37.3497 38.9974 39.7291C36.4734 42.1085 33.3035 43.6914 29.8838 44.28C26.4641 44.8685 22.9464 44.4366 19.7704 43.0382C16.5944 41.6398 13.901 39.337 12.0269 36.4176C10.1528 33.4982 9.18109 30.0918 9.23328 26.6241C9.28547 23.1564 10.3592 19.7813 12.3204 16.9207C14.2815 14.0601 17.0429 11.8409 20.2596 10.5405C23.4762 9.24015 27.0053 8.91627 30.4056 9.60937C30.7405 9.64338 31.0696 9.72034 31.3848 9.83837C35.8266 11.0082 39.6373 13.8629 42.007 17.7959C44.3768 21.7288 45.1182 26.432 44.0746 30.902ZM17.9522 39.136C18.2836 39.3768 18.6237 39.6035 18.9724 39.8163C17.6338 35.3842 17.4927 30.6773 18.5632 26.1738L11.8762 24.6099C11.4644 27.3545 11.8131 30.1596 12.8843 32.7205C13.9554 35.2815 15.7082 37.5003 17.9522 39.136ZM14.6081 17.9514C13.663 19.2458 12.9318 20.6833 12.4422 22.2092L19.1249 23.772C20.1591 19.2886 22.3496 15.1541 25.4787 11.7798C25.0902 11.8155 24.7019 11.8666 24.3139 11.933C20.4197 12.605 16.9396 14.763 14.6081 17.9514ZM32.8093 26.9723C33.1495 25.2766 33.352 23.5562 33.4148 21.8279C33.4936 20.063 33.3588 18.2951 33.0135 16.5624C32.5261 14.27 31.621 12.6373 30.6092 12.1856C30.4267 12.14 30.2436 12.0972 30.0599 12.0571C28.9527 12.0133 27.4175 13.0753 25.9634 14.916C24.8862 16.3161 23.9822 17.8411 23.2709 19.4579C22.561 21.0341 21.9797 22.6652 21.5326 24.3351L32.8093 26.9723ZM27.8147 38.7926C28.8927 37.3929 29.7974 35.868 30.5094 34.2513C31.2185 32.6747 31.7991 31.0435 32.2455 29.3736L20.9731 26.7374C20.633 28.433 20.4305 30.1534 20.3677 31.8818C20.2885 33.6456 20.4226 35.4127 20.7673 37.1445C21.2989 39.6395 22.3226 41.3526 23.4407 41.6141C24.5588 41.8756 26.236 40.7941 27.8168 38.7932L27.8147 38.7926ZM39.1638 35.813C40.1197 34.5033 40.8568 33.0474 41.3467 31.502L34.6554 29.9372C33.6183 34.4501 31.404 38.6078 28.2376 41.9876C28.6445 41.9516 29.0514 41.8988 29.4585 41.8292C33.3522 41.1576 36.832 39.0005 39.1638 35.813ZM35.8208 14.624C35.5021 14.3922 35.1745 14.1728 34.8388 13.9665C36.1471 18.3785 36.2769 23.0556 35.2154 27.5327L41.9046 29.097C42.3056 26.36 41.9508 23.5653 40.8786 21.0146C39.8064 18.4639 38.0575 16.2542 35.8208 14.624Z" fill="#6C1EFF"/>
<path d="M43.6953 29.9606C44.4407 25.8805 43.676 21.6549 41.5251 18.0851C39.2309 14.2778 35.5416 11.5143 31.2414 10.3817L31.2143 10.3737L31.1876 10.3643C30.9175 10.2631 30.6352 10.1971 30.3483 10.168L30.3201 10.1646L30.2923 10.1597C27.0004 9.48881 23.584 9.80201 20.47 11.0607C17.3557 12.3197 14.681 14.4685 12.7824 17.238C10.8838 20.0073 9.84417 23.2751 9.79359 26.6322C9.74306 29.9894 10.6849 33.2875 12.4994 36.114C14.3137 38.9402 16.9209 41.1695 19.9956 42.5234C23.0705 43.8773 26.4768 44.2967 29.7876 43.727C33.0985 43.1571 36.1675 41.6238 38.6111 39.3202C41.0546 37.0166 42.7653 34.0442 43.5275 30.7744L43.6953 29.9606ZM32.9371 28.9592L32.7871 29.518C32.3329 31.2172 31.7425 32.8782 31.0209 34.4823L31.0198 34.4804C30.4059 35.8739 29.6521 37.2001 28.7708 38.4401L28.8044 38.448L28.2576 39.141C27.4412 40.1744 26.5823 40.994 25.7592 41.5246C24.9543 42.0435 24.0916 42.3434 23.3121 42.1611C22.5327 41.9788 21.8926 41.3274 21.401 40.5054C20.8985 39.665 20.4915 38.5504 20.2169 37.2622L20.2156 37.2538C19.8622 35.4777 19.7245 33.6652 19.8057 31.8563C19.87 30.0999 20.0765 28.3495 20.4221 26.6263L20.5355 26.0589L32.9371 28.9592ZM42.0639 31.0936L41.8819 31.6723C41.3737 33.2753 40.6078 34.7847 39.6164 36.1432C37.3498 39.2413 34.0371 41.4021 30.3058 42.2338L29.5531 42.3829C29.1314 42.455 28.7088 42.5097 28.2867 42.5471L26.8206 42.6774L27.8265 41.6041C30.925 38.2967 33.0927 34.2269 34.1075 29.8107L34.2341 29.2625L42.0639 31.0936ZM19.2399 25.7559L19.1087 26.303C18.0612 30.7101 18.1996 35.317 19.5094 39.6542L19.935 41.0623L18.6787 40.2953C18.3175 40.0749 17.9651 39.8403 17.6219 39.591L17.6207 39.5891C15.2941 37.893 13.4759 35.5931 12.3651 32.9376C11.2543 30.282 10.8923 27.3726 11.3193 24.5264L11.4101 23.9248L19.2399 25.7559ZM21.4137 27.4167C21.1449 28.8978 20.983 30.3966 20.9282 31.9015L20.9286 31.9064C20.8516 33.6224 20.9818 35.3418 21.3165 37.0268L21.4175 37.4689C21.6664 38.4761 21.9962 39.3107 22.365 39.9277C22.7977 40.6514 23.2293 40.9877 23.568 41.0669C23.9066 41.1461 24.4415 41.0357 25.1499 40.579C25.8191 40.1476 26.5628 39.4551 27.3041 38.5317L27.3682 38.4501C28.4186 37.0863 29.3011 35.6003 29.9948 34.0251L29.9959 34.0205C30.6134 32.6477 31.1325 31.233 31.5477 29.7867L21.4137 27.4167ZM12.354 25.2979C12.0905 27.7463 12.4486 30.2256 13.4016 32.504C14.3932 34.8746 15.9926 36.9391 18.0343 38.4948C17.0961 34.592 17.0472 30.5252 17.8948 26.5937L12.354 25.2979ZM35.0682 30.6099C34.0851 34.51 32.2353 38.1321 29.6638 41.2145C33.2911 40.5104 36.5236 38.4685 38.7088 35.4819L39.0448 35.002C39.6907 34.0371 40.2181 32.9981 40.6151 31.9072L35.0682 30.6099ZM25.8893 12.1607C22.8269 15.4631 20.6833 19.5102 19.6712 23.898L19.5442 24.4477L11.7205 22.6181L11.9063 22.037C12.4142 20.454 13.174 18.9628 14.1544 17.62L14.6215 17.013C17.0247 14.0405 20.4327 12.032 24.2181 11.3788C24.6203 11.3099 25.0237 11.2575 25.4267 11.2204L26.8875 11.0856L25.8893 12.1607ZM30.7444 11.64L30.7929 11.6529L30.838 11.6731C31.5048 11.9711 32.0601 12.6143 32.4995 13.412C32.9462 14.2233 33.3102 15.2602 33.5622 16.445L33.5638 16.4518C33.9177 18.2272 34.0544 20.0395 33.9741 21.8479C33.9102 23.6065 33.7058 25.3578 33.3597 27.0831L33.2444 27.6517L20.8398 24.7507L20.9886 24.19C21.4435 22.4909 22.0354 20.8303 22.7578 19.2264C23.4869 17.57 24.4144 16.008 25.5181 14.5735L25.5226 14.5681C26.2742 13.6166 27.0601 12.8488 27.8205 12.3194C28.5684 11.7987 29.3511 11.4673 30.0811 11.4961L30.1306 11.498L30.1798 11.5079C30.3686 11.5491 30.5569 11.5931 30.7444 11.64ZM35.1323 13.4886C35.4803 13.7025 35.8209 13.9292 36.1512 14.1695C38.4706 15.8599 40.2843 18.1525 41.3962 20.7976C42.5078 23.4424 42.8759 26.3411 42.4601 29.1792L42.3705 29.7827L34.5377 27.9509L34.6688 27.4038C35.7077 23.0222 35.5797 18.4439 34.2993 14.1259L33.8829 12.72L35.1323 13.4886ZM29.9987 12.6196C29.6239 12.6177 29.0992 12.7962 28.4613 13.2402C27.8154 13.69 27.107 14.3699 26.4063 15.256L26.4074 15.2578C25.3578 16.622 24.4769 18.1083 23.7839 19.6836L23.7828 19.6882C23.1647 21.0607 22.6452 22.4756 22.2295 23.9217L32.3665 26.2924C32.6354 24.8112 32.7974 23.3125 32.852 21.8076L32.8531 21.803C32.9299 20.0834 32.7978 18.3603 32.4613 16.672C32.226 15.5684 31.8944 14.6436 31.5148 13.9543C31.1402 13.2741 30.7504 12.8813 30.4137 12.7166C30.2757 12.6827 30.1374 12.6503 29.9987 12.6196ZM24.0539 12.5555C20.4477 13.2697 17.2347 15.3082 15.0605 18.2809C14.2708 19.3624 13.6377 20.5497 13.1758 21.8044L18.7121 23.0991C19.6907 19.2283 21.5156 15.6276 24.0539 12.5555ZM35.7672 15.2884C36.6812 19.1688 36.7229 23.2067 35.8831 27.1116L41.4224 28.407C41.6758 25.9675 41.3125 23.5003 40.3593 21.2327C39.3718 18.8836 37.7878 16.836 35.7672 15.2884ZM44.6201 31.0299C43.8077 34.5147 41.9864 37.683 39.3823 40.138C36.7779 42.5931 33.5062 44.2264 29.9778 44.8337C26.4498 45.4408 22.8207 44.995 19.5441 43.5525C16.2674 42.1098 13.4879 39.7337 11.5541 36.7218C9.62043 33.7096 8.61701 30.1939 8.6708 26.6159C8.72466 23.0377 9.83229 19.5545 11.8558 16.6028C13.8794 13.6511 16.73 11.3608 20.0489 10.0191C23.3639 8.67907 27.0005 8.34517 30.5051 9.05707C30.8585 9.09645 31.2055 9.17757 31.5397 9.29903C36.1173 10.5081 40.045 13.4511 42.4879 17.5055C44.9332 21.5638 45.697 26.4175 44.6201 31.0299Z" fill="#6C1EFF"/>
<path d="M44.0746 30.902C43.2873 34.2794 41.5213 37.3497 38.9974 39.7291C36.4734 42.1085 33.3035 43.6914 29.8838 44.28C26.4641 44.8685 22.9464 44.4366 19.7704 43.0382C16.5944 41.6398 13.901 39.337 12.0269 36.4176C10.1528 33.4982 9.18109 30.0918 9.23328 26.6241C9.28547 23.1564 10.3592 19.7813 12.3204 16.9207C14.2815 14.0601 17.0429 11.8409 20.2596 10.5405C23.4762 9.24015 27.0053 8.91627 30.4056 9.60937C30.7405 9.64338 31.0696 9.72034 31.3848 9.83837C35.8266 11.0082 39.6373 13.8629 42.007 17.7959C44.3768 21.7288 45.1182 26.432 44.0746 30.902ZM17.9522 39.136C18.2836 39.3768 18.6237 39.6035 18.9724 39.8163C17.6338 35.3842 17.4927 30.6773 18.5632 26.1738L11.8762 24.6099C11.4644 27.3545 11.8131 30.1596 12.8843 32.7205C13.9554 35.2815 15.7082 37.5003 17.9522 39.136ZM14.6081 17.9514C13.663 19.2458 12.9318 20.6833 12.4422 22.2092L19.1249 23.772C20.1591 19.2886 22.3496 15.1541 25.4787 11.7798C25.0902 11.8155 24.7019 11.8666 24.3139 11.933C20.4197 12.605 16.9396 14.763 14.6081 17.9514ZM32.8093 26.9723C33.1495 25.2766 33.352 23.5562 33.4148 21.8279C33.4936 20.063 33.3588 18.2951 33.0135 16.5624C32.5261 14.27 31.621 12.6373 30.6092 12.1856C30.4267 12.14 30.2436 12.0972 30.0599 12.0571C28.9527 12.0133 27.4175 13.0753 25.9634 14.916C24.8862 16.3161 23.9822 17.8411 23.2709 19.4579C22.561 21.0341 21.9797 22.6652 21.5326 24.3351L32.8093 26.9723ZM27.8147 38.7926C28.8927 37.3929 29.7974 35.868 30.5094 34.2513C31.2185 32.6747 31.7991 31.0435 32.2455 29.3736L20.9731 26.7374C20.633 28.433 20.4305 30.1534 20.3677 31.8818C20.2885 33.6456 20.4226 35.4127 20.7673 37.1445C21.2989 39.6395 22.3226 41.3526 23.4407 41.6141C24.5588 41.8756 26.236 40.7941 27.8168 38.7932L27.8147 38.7926ZM39.1638 35.813C40.1197 34.5033 40.8568 33.0474 41.3467 31.502L34.6554 29.9372C33.6183 34.4501 31.404 38.6078 28.2376 41.9876C28.6445 41.9516 29.0514 41.8988 29.4585 41.8292C33.3522 41.1576 36.832 39.0005 39.1638 35.813ZM35.8208 14.624C35.5021 14.3922 35.1745 14.1728 34.8388 13.9665C36.1471 18.3785 36.2769 23.0556 35.2154 27.5327L41.9046 29.097C42.3056 26.36 41.9508 23.5653 40.8786 21.0146C39.8064 18.4639 38.0575 16.2542 35.8208 14.624Z" stroke="white" stroke-width="7.96856" mask="url(#path-1-outside-1_1_440)"/>
<path d="M43.6953 29.9606C44.4407 25.8805 43.676 21.6549 41.5251 18.0851C39.2309 14.2778 35.5416 11.5143 31.2414 10.3817L31.2143 10.3737L31.1876 10.3643C30.9175 10.2631 30.6352 10.1971 30.3483 10.168L30.3201 10.1646L30.2923 10.1597C27.0004 9.48881 23.584 9.80201 20.47 11.0607C17.3557 12.3197 14.681 14.4685 12.7824 17.238C10.8838 20.0073 9.84417 23.2751 9.79359 26.6322C9.74306 29.9894 10.6849 33.2875 12.4994 36.114C14.3137 38.9402 16.9209 41.1695 19.9956 42.5234C23.0705 43.8773 26.4768 44.2967 29.7876 43.727C33.0985 43.1571 36.1675 41.6238 38.6111 39.3202C41.0546 37.0166 42.7653 34.0442 43.5275 30.7744L43.6953 29.9606ZM32.9371 28.9592L32.7871 29.518C32.3329 31.2172 31.7425 32.8782 31.0209 34.4823L31.0198 34.4804C30.4059 35.8739 29.6521 37.2001 28.7708 38.4401L28.8044 38.448L28.2576 39.141C27.4412 40.1744 26.5823 40.994 25.7592 41.5246C24.9543 42.0435 24.0916 42.3434 23.3121 42.1611C22.5327 41.9788 21.8926 41.3274 21.401 40.5054C20.8985 39.665 20.4915 38.5504 20.2169 37.2622L20.2156 37.2538C19.8622 35.4777 19.7245 33.6652 19.8057 31.8563C19.87 30.0999 20.0765 28.3495 20.4221 26.6263L20.5355 26.0589L32.9371 28.9592ZM42.0639 31.0936L41.8819 31.6723C41.3737 33.2753 40.6078 34.7847 39.6164 36.1432C37.3498 39.2413 34.0371 41.4021 30.3058 42.2338L29.5531 42.3829C29.1314 42.455 28.7088 42.5097 28.2867 42.5471L26.8206 42.6774L27.8265 41.6041C30.925 38.2967 33.0927 34.2269 34.1075 29.8107L34.2341 29.2625L42.0639 31.0936ZM19.2399 25.7559L19.1087 26.303C18.0612 30.7101 18.1996 35.317 19.5094 39.6542L19.935 41.0623L18.6787 40.2953C18.3175 40.0749 17.9651 39.8403 17.6219 39.591L17.6207 39.5891C15.2941 37.893 13.4759 35.5931 12.3651 32.9376C11.2543 30.282 10.8923 27.3726 11.3193 24.5264L11.4101 23.9248L19.2399 25.7559ZM21.4137 27.4167C21.1449 28.8978 20.983 30.3966 20.9282 31.9015L20.9286 31.9064C20.8516 33.6224 20.9818 35.3418 21.3165 37.0268L21.4175 37.4689C21.6664 38.4761 21.9962 39.3107 22.365 39.9277C22.7977 40.6514 23.2293 40.9877 23.568 41.0669C23.9066 41.1461 24.4415 41.0357 25.1499 40.579C25.8191 40.1476 26.5628 39.4551 27.3041 38.5317L27.3682 38.4501C28.4186 37.0863 29.3011 35.6003 29.9948 34.0251L29.9959 34.0205C30.6134 32.6477 31.1325 31.233 31.5477 29.7867L21.4137 27.4167ZM12.354 25.2979C12.0905 27.7463 12.4486 30.2256 13.4016 32.504C14.3932 34.8746 15.9926 36.9391 18.0343 38.4948C17.0961 34.592 17.0472 30.5252 17.8948 26.5937L12.354 25.2979ZM35.0682 30.6099C34.0851 34.51 32.2353 38.1321 29.6638 41.2145C33.2911 40.5104 36.5236 38.4685 38.7088 35.4819L39.0448 35.002C39.6907 34.0371 40.2181 32.9981 40.6151 31.9072L35.0682 30.6099ZM25.8893 12.1607C22.8269 15.4631 20.6833 19.5102 19.6712 23.898L19.5442 24.4477L11.7205 22.6181L11.9063 22.037C12.4142 20.454 13.174 18.9628 14.1544 17.62L14.6215 17.013C17.0247 14.0405 20.4327 12.032 24.2181 11.3788C24.6203 11.3099 25.0237 11.2575 25.4267 11.2204L26.8875 11.0856L25.8893 12.1607ZM30.7444 11.64L30.7929 11.6529L30.838 11.6731C31.5048 11.9711 32.0601 12.6143 32.4995 13.412C32.9462 14.2233 33.3102 15.2602 33.5622 16.445L33.5638 16.4518C33.9177 18.2272 34.0544 20.0395 33.9741 21.8479C33.9102 23.6065 33.7058 25.3578 33.3597 27.0831L33.2444 27.6517L20.8398 24.7507L20.9886 24.19C21.4435 22.4909 22.0354 20.8303 22.7578 19.2264C23.4869 17.57 24.4144 16.008 25.5181 14.5735L25.5226 14.5681C26.2742 13.6166 27.0601 12.8488 27.8205 12.3194C28.5684 11.7987 29.3511 11.4673 30.0811 11.4961L30.1306 11.498L30.1798 11.5079C30.3686 11.5491 30.5569 11.5931 30.7444 11.64ZM35.1323 13.4886C35.4803 13.7025 35.8209 13.9292 36.1512 14.1695C38.4706 15.8599 40.2843 18.1525 41.3962 20.7976C42.5078 23.4424 42.8759 26.3411 42.4601 29.1792L42.3705 29.7827L34.5377 27.9509L34.6688 27.4038C35.7077 23.0222 35.5797 18.4439 34.2993 14.1259L33.8829 12.72L35.1323 13.4886ZM29.9987 12.6196C29.6239 12.6177 29.0992 12.7962 28.4613 13.2402C27.8154 13.69 27.107 14.3699 26.4063 15.256L26.4074 15.2578C25.3578 16.622 24.4769 18.1083 23.7839 19.6836L23.7828 19.6882C23.1647 21.0607 22.6452 22.4756 22.2295 23.9217L32.3665 26.2924C32.6354 24.8112 32.7974 23.3125 32.852 21.8076L32.8531 21.803C32.9299 20.0834 32.7978 18.3603 32.4613 16.672C32.226 15.5684 31.8944 14.6436 31.5148 13.9543C31.1402 13.2741 30.7504 12.8813 30.4137 12.7166C30.2757 12.6827 30.1374 12.6503 29.9987 12.6196ZM24.0539 12.5555C20.4477 13.2697 17.2347 15.3082 15.0605 18.2809C14.2708 19.3624 13.6377 20.5497 13.1758 21.8044L18.7121 23.0991C19.6907 19.2283 21.5156 15.6276 24.0539 12.5555ZM35.7672 15.2884C36.6812 19.1688 36.7229 23.2067 35.8831 27.1116L41.4224 28.407C41.6758 25.9675 41.3125 23.5003 40.3593 21.2327C39.3718 18.8836 37.7878 16.836 35.7672 15.2884ZM44.6201 31.0299C43.8077 34.5147 41.9864 37.683 39.3823 40.138C36.7779 42.5931 33.5062 44.2264 29.9778 44.8337C26.4498 45.4408 22.8207 44.995 19.5441 43.5525C16.2674 42.1098 13.4879 39.7337 11.5541 36.7218C9.62043 33.7096 8.61701 30.1939 8.6708 26.6159C8.72466 23.0377 9.83229 19.5545 11.8558 16.6028C13.8794 13.6511 16.73 11.3608 20.0489 10.0191C23.3639 8.67907 27.0005 8.34517 30.5051 9.05707C30.8585 9.09645 31.2055 9.17757 31.5397 9.29903C36.1173 10.5081 40.045 13.4511 42.4879 17.5055C44.9332 21.5638 45.697 26.4175 44.6201 31.0299Z" stroke="white" stroke-width="7.96856" mask="url(#path-1-outside-1_1_440)"/>
</g>
<defs>
<filter id="filter0_d_1_440" x="0.131104" y="0.459168" width="53.5034" height="55.1355" filterUnits="userSpaceOnUse" color-interpolation-filters="sRGB">
<feFlood flood-opacity="0" result="BackgroundImageFix"/>
<feColorMatrix in="SourceAlpha" type="matrix" values="0 0 0 0 0 0 0 0 0 0 0 0 0 0 0 0 0 0 127 0" result="hardAlpha"/>
<feOffset dy="1.13837"/>
<feGaussianBlur stdDeviation="2.27673"/>
<feComposite in2="hardAlpha" operator="out"/>
<feColorMatrix type="matrix" values="0 0 0 0 0 0 0 0 0 0 0 0 0 0 0 0 0 0 0.15 0"/>
<feBlend mode="normal" in2="BackgroundImageFix" result="effect1_dropShadow_1_440"/>
<feBlend mode="normal" in="SourceGraphic" in2="effect1_dropShadow_1_440" result="shape"/>
</filter>
</defs>
</svg>
