<svg width="48" height="56" viewBox="0 0 48 56" fill="none" xmlns="http://www.w3.org/2000/svg">
<g filter="url(#filter0_d_1_439)">
<mask id="path-1-outside-1_1_439" maskUnits="userSpaceOnUse" x="-3.12138" y="-3.12149" width="52.5189" height="58.8902" fill="black">
<rect fill="white" x="-3.12138" y="-3.12149" width="52.5189" height="58.8902"/>
<path d="M31.3061 27.0992L16.5869 31.0327C15.123 31.4239 13.5636 31.2175 12.2518 30.4588C10.94 29.7001 9.98319 28.4513 9.59191 26.9872L7.62482 19.6263C7.23354 18.1622 7.43982 16.6026 8.19829 15.2906C8.95675 13.9787 10.2053 13.0219 11.6692 12.6306L26.3884 8.69711C27.8523 8.3059 29.4117 8.51234 30.7235 9.27103C32.0353 10.0297 32.9921 11.2785 33.3834 12.7427L35.3505 20.1035C35.7418 21.5677 35.5355 23.1273 34.777 24.4392C34.0186 25.7512 32.77 26.708 31.3061 27.0992ZM12.6527 16.3111C12.1648 16.4415 11.7486 16.7604 11.4958 17.1977C11.2429 17.635 11.1742 18.1549 11.3046 18.643L13.2717 26.0038C13.4021 26.4918 13.7211 26.9081 14.1583 27.161C14.5956 27.4139 15.1154 27.4827 15.6034 27.3523L30.3226 23.4188C30.8105 23.2884 31.2267 22.9694 31.4795 22.5321C31.7324 22.0948 31.8011 21.5749 31.6707 21.0869L29.7036 13.726C29.5732 13.238 29.2542 12.8217 28.817 12.5688C28.3797 12.3159 27.8599 12.2471 27.3719 12.3775L12.6527 16.3111Z"/>
<path d="M18.2997 22.6875C17.8107 22.8109 17.2932 22.745 16.8507 22.503C16.4794 22.3076 16.1829 21.9951 16.0073 21.614C15.8317 21.2328 15.7869 20.8044 15.8799 20.3951C15.9728 19.9859 16.1982 19.6189 16.5211 19.351C16.8441 19.0831 17.2464 18.9294 17.6657 18.9137C17.7921 18.8982 17.9203 18.9039 18.0448 18.9307C18.1677 18.9372 18.2884 18.965 18.4018 19.0127L18.7552 19.1549C19.0961 19.3371 19.3735 19.6187 19.5505 19.9623C19.7276 20.3059 19.7959 20.6952 19.7465 21.0785C19.6971 21.4619 19.5322 21.8211 19.2738 22.1085C19.0153 22.3959 18.6756 22.5978 18.2997 22.6875Z"/>
<path d="M25.657 20.7215C25.2921 20.8213 24.9058 20.8102 24.5472 20.6895C24.1887 20.5688 23.8742 20.3441 23.6438 20.044C23.4135 19.7438 23.2777 19.3819 23.2538 19.0043C23.2299 18.6267 23.319 18.2506 23.5097 17.9239C23.6354 17.7064 23.8027 17.5159 24.002 17.3632C24.2014 17.2104 24.4288 17.0984 24.6714 17.0336C24.914 16.9687 25.167 16.9523 25.416 16.9853C25.6649 17.0183 25.905 17.0999 26.1224 17.2257C26.3398 17.3514 26.5303 17.5187 26.683 17.7181C26.8358 17.9175 26.9478 18.145 27.0126 18.3876C27.0775 18.6303 27.0939 18.8833 27.061 19.1323C27.028 19.3813 26.9464 19.6213 26.8207 19.8388C26.7524 19.9462 26.6736 20.0465 26.5853 20.1383C26.5109 20.2362 26.42 20.3205 26.3168 20.3875C26.2222 20.4728 26.114 20.5417 25.9967 20.5913L25.657 20.7215Z"/>
<path d="M19.5214 12.5032C19.0334 12.6336 18.5136 12.5647 18.0764 12.3118C17.6391 12.0589 17.3202 11.6427 17.1897 11.1546L16.698 9.31443C16.5675 8.82637 16.6363 8.3065 16.8891 7.86919C17.1419 7.43187 17.5581 7.11293 18.0461 6.98253C18.5341 6.85212 19.0539 6.92094 19.4911 7.17383C19.9284 7.42673 20.2473 7.84299 20.3778 8.33104L20.8695 10.1713C21 10.6593 20.9312 11.1792 20.6784 11.6165C20.4256 12.0538 20.0094 12.3727 19.5214 12.5032Z"/>
<path d="M22.853 47.1016C22.365 47.232 21.8452 47.1632 21.408 46.9103C20.9707 46.6574 20.6518 46.2412 20.5213 45.7531L19.046 40.2325C18.9156 39.7444 18.9843 39.2246 19.2372 38.7872C19.49 38.3499 19.9062 38.031 20.3941 37.9006C20.8821 37.7702 21.4019 37.839 21.8392 38.0919C22.2765 38.3448 22.5954 38.7611 22.7258 39.2491L24.2011 44.7697C24.3316 45.2578 24.2628 45.7777 24.01 46.215C23.7572 46.6523 23.341 46.9712 22.853 47.1016Z"/>
<path d="M33.8934 44.1512C33.4055 44.2816 32.8857 44.2128 32.4484 43.9599C32.0111 43.707 31.6922 43.2907 31.5618 42.8027L30.0864 37.2821C29.956 36.794 30.0248 36.2741 30.2776 35.8368C30.5304 35.3995 30.9466 35.0806 31.4346 34.9502C31.9225 34.8198 32.4423 34.8886 32.8796 35.1415C33.3169 35.3944 33.6358 35.8106 33.7662 36.2987L35.2415 41.8193C35.372 42.3074 35.3032 42.8272 35.0504 43.2645C34.7976 43.7019 34.3814 44.0208 33.8934 44.1512Z"/>
<path d="M32.4171 38.6308L21.3777 41.5809C20.8897 41.7113 20.3699 41.6425 19.9326 41.3896C19.4954 41.1367 19.1764 40.7205 19.046 40.2325L16.0954 29.1912C15.9649 28.7031 16.0337 28.1833 16.2865 27.7459C16.5393 27.3086 16.9555 26.9897 17.4435 26.8593L28.4829 23.9091C28.9708 23.7787 29.4906 23.8475 29.9279 24.1004C30.3652 24.3533 30.6841 24.7696 30.8145 25.2576L33.7662 36.2987C33.8967 36.7867 33.8269 37.3068 33.574 37.7441C33.3212 38.1814 32.905 38.5004 32.4171 38.6308ZM22.234 37.4088L29.5936 35.4421L27.6265 28.0812L20.2669 30.048L22.234 37.4088Z"/>
<path d="M12.7182 40.0189C12.3782 40.1087 12.0199 40.1025 11.6831 40.0011C11.3464 39.8997 11.0442 39.707 10.8102 39.4444C10.4759 39.0682 10.304 38.5748 10.3322 38.0722C10.3604 37.5696 10.5864 37.0986 10.9608 36.7622L17.3368 31.115C17.5188 30.9266 17.7376 30.7778 17.9796 30.6778C18.2217 30.5778 18.4818 30.5288 18.7436 30.5339C19.0055 30.539 19.2634 30.598 19.5015 30.7073C19.7395 30.8166 19.9524 30.9738 20.1269 31.1692C20.3014 31.3645 20.4338 31.5937 20.5157 31.8425C20.5976 32.0913 20.6274 32.3543 20.6031 32.6151C20.5788 32.8759 20.501 33.1289 20.3746 33.3582C20.2481 33.5876 20.0757 33.7884 19.8681 33.9481L13.4921 39.5953C13.274 39.7995 13.0078 39.9453 12.7182 40.0189Z"/>
<path d="M38.9992 32.9895C38.7115 33.07 38.4081 33.0765 38.1172 33.0083L29.774 31.2946C29.5145 31.2598 29.2649 31.1718 29.0409 31.0361C28.8168 30.9004 28.6232 30.7199 28.4721 30.506C28.3209 30.2921 28.2155 30.0493 28.1624 29.7928C28.1093 29.5363 28.1097 29.2716 28.1635 29.0153C28.2173 28.7589 28.3234 28.5165 28.4752 28.303C28.6269 28.0895 28.8211 27.9097 29.0455 27.7746C29.2699 27.6396 29.5197 27.5523 29.7794 27.5183C30.039 27.4842 30.3029 27.504 30.5546 27.5766L38.8977 29.2902C39.39 29.395 39.8208 29.6905 40.096 30.112C40.3712 30.5335 40.4684 31.0468 40.3663 31.5397C40.2945 31.8841 40.1287 32.2018 39.8875 32.4577C39.6462 32.7136 39.3387 32.8976 38.9992 32.9895Z"/>
</mask>
<path d="M31.3061 27.0992L16.5869 31.0327C15.123 31.4239 13.5636 31.2175 12.2518 30.4588C10.94 29.7001 9.98319 28.4513 9.59191 26.9872L7.62482 19.6263C7.23354 18.1622 7.43982 16.6026 8.19829 15.2906C8.95675 13.9787 10.2053 13.0219 11.6692 12.6306L26.3884 8.69711C27.8523 8.3059 29.4117 8.51234 30.7235 9.27103C32.0353 10.0297 32.9921 11.2785 33.3834 12.7427L35.3505 20.1035C35.7418 21.5677 35.5355 23.1273 34.777 24.4392C34.0186 25.7512 32.77 26.708 31.3061 27.0992ZM12.6527 16.3111C12.1648 16.4415 11.7486 16.7604 11.4958 17.1977C11.2429 17.635 11.1742 18.1549 11.3046 18.643L13.2717 26.0038C13.4021 26.4918 13.7211 26.9081 14.1583 27.161C14.5956 27.4139 15.1154 27.4827 15.6034 27.3523L30.3226 23.4188C30.8105 23.2884 31.2267 22.9694 31.4795 22.5321C31.7324 22.0948 31.8011 21.5749 31.6707 21.0869L29.7036 13.726C29.5732 13.238 29.2542 12.8217 28.817 12.5688C28.3797 12.3159 27.8599 12.2471 27.3719 12.3775L12.6527 16.3111Z" fill="#6C1EFF"/>
<path d="M18.2997 22.6875C17.8107 22.8109 17.2932 22.745 16.8507 22.503C16.4794 22.3076 16.1829 21.9951 16.0073 21.614C15.8317 21.2328 15.7869 20.8044 15.8799 20.3951C15.9728 19.9859 16.1982 19.6189 16.5211 19.351C16.8441 19.0831 17.2464 18.9294 17.6657 18.9137C17.7921 18.8982 17.9203 18.9039 18.0448 18.9307C18.1677 18.9372 18.2884 18.965 18.4018 19.0127L18.7552 19.1549C19.0961 19.3371 19.3735 19.6187 19.5505 19.9623C19.7276 20.3059 19.7959 20.6952 19.7465 21.0785C19.6971 21.4619 19.5322 21.8211 19.2738 22.1085C19.0153 22.3959 18.6756 22.5978 18.2997 22.6875Z" fill="#6C1EFF"/>
<path d="M25.657 20.7215C25.2921 20.8213 24.9058 20.8102 24.5472 20.6895C24.1887 20.5688 23.8742 20.3441 23.6438 20.044C23.4135 19.7438 23.2777 19.3819 23.2538 19.0043C23.2299 18.6267 23.319 18.2506 23.5097 17.9239C23.6354 17.7064 23.8027 17.5159 24.002 17.3632C24.2014 17.2104 24.4288 17.0984 24.6714 17.0336C24.914 16.9687 25.167 16.9523 25.416 16.9853C25.6649 17.0183 25.905 17.0999 26.1224 17.2257C26.3398 17.3514 26.5303 17.5187 26.683 17.7181C26.8358 17.9175 26.9478 18.145 27.0126 18.3876C27.0775 18.6303 27.0939 18.8833 27.061 19.1323C27.028 19.3813 26.9464 19.6213 26.8207 19.8388C26.7524 19.9462 26.6736 20.0465 26.5853 20.1383C26.5109 20.2362 26.42 20.3205 26.3168 20.3875C26.2222 20.4728 26.114 20.5417 25.9967 20.5913L25.657 20.7215Z" fill="#6C1EFF"/>
<path d="M19.5214 12.5032C19.0334 12.6336 18.5136 12.5647 18.0764 12.3118C17.6391 12.0589 17.3202 11.6427 17.1897 11.1546L16.698 9.31443C16.5675 8.82637 16.6363 8.3065 16.8891 7.86919C17.1419 7.43187 17.5581 7.11293 18.0461 6.98253C18.5341 6.85212 19.0539 6.92094 19.4911 7.17383C19.9284 7.42673 20.2473 7.84299 20.3778 8.33104L20.8695 10.1713C21 10.6593 20.9312 11.1792 20.6784 11.6165C20.4256 12.0538 20.0094 12.3727 19.5214 12.5032Z" fill="#6C1EFF"/>
<path d="M22.853 47.1016C22.365 47.232 21.8452 47.1632 21.408 46.9103C20.9707 46.6574 20.6518 46.2412 20.5213 45.7531L19.046 40.2325C18.9156 39.7444 18.9843 39.2246 19.2372 38.7872C19.49 38.3499 19.9062 38.031 20.3941 37.9006C20.8821 37.7702 21.4019 37.839 21.8392 38.0919C22.2765 38.3448 22.5954 38.7611 22.7258 39.2491L24.2011 44.7697C24.3316 45.2578 24.2628 45.7777 24.01 46.215C23.7572 46.6523 23.341 46.9712 22.853 47.1016Z" fill="#6C1EFF"/>
<path d="M33.8934 44.1512C33.4055 44.2816 32.8857 44.2128 32.4484 43.9599C32.0111 43.707 31.6922 43.2907 31.5618 42.8027L30.0864 37.2821C29.956 36.794 30.0248 36.2741 30.2776 35.8368C30.5304 35.3995 30.9466 35.0806 31.4346 34.9502C31.9225 34.8198 32.4423 34.8886 32.8796 35.1415C33.3169 35.3944 33.6358 35.8106 33.7662 36.2987L35.2415 41.8193C35.372 42.3074 35.3032 42.8272 35.0504 43.2645C34.7976 43.7019 34.3814 44.0208 33.8934 44.1512Z" fill="#6C1EFF"/>
<path d="M32.4171 38.6308L21.3777 41.5809C20.8897 41.7113 20.3699 41.6425 19.9326 41.3896C19.4954 41.1367 19.1764 40.7205 19.046 40.2325L16.0954 29.1912C15.9649 28.7031 16.0337 28.1833 16.2865 27.7459C16.5393 27.3086 16.9555 26.9897 17.4435 26.8593L28.4829 23.9091C28.9708 23.7787 29.4906 23.8475 29.9279 24.1004C30.3652 24.3533 30.6841 24.7696 30.8145 25.2576L33.7662 36.2987C33.8967 36.7867 33.8269 37.3068 33.574 37.7441C33.3212 38.1814 32.905 38.5004 32.4171 38.6308ZM22.234 37.4088L29.5936 35.4421L27.6265 28.0812L20.2669 30.048L22.234 37.4088Z" fill="#6C1EFF"/>
<path d="M12.7182 40.0189C12.3782 40.1087 12.0199 40.1025 11.6831 40.0011C11.3464 39.8997 11.0442 39.707 10.8102 39.4444C10.4759 39.0682 10.304 38.5748 10.3322 38.0722C10.3604 37.5696 10.5864 37.0986 10.9608 36.7622L17.3368 31.115C17.5188 30.9266 17.7376 30.7778 17.9796 30.6778C18.2217 30.5778 18.4818 30.5288 18.7436 30.5339C19.0055 30.539 19.2634 30.598 19.5015 30.7073C19.7395 30.8166 19.9524 30.9738 20.1269 31.1692C20.3014 31.3645 20.4338 31.5937 20.5157 31.8425C20.5976 32.0913 20.6274 32.3543 20.6031 32.6151C20.5788 32.8759 20.501 33.1289 20.3746 33.3582C20.2481 33.5876 20.0757 33.7884 19.8681 33.9481L13.4921 39.5953C13.274 39.7995 13.0078 39.9453 12.7182 40.0189Z" fill="#6C1EFF"/>
<path d="M38.9992 32.9895C38.7115 33.07 38.4081 33.0765 38.1172 33.0083L29.774 31.2946C29.5145 31.2598 29.2649 31.1718 29.0409 31.0361C28.8168 30.9004 28.6232 30.7199 28.4721 30.506C28.3209 30.2921 28.2155 30.0493 28.1624 29.7928C28.1093 29.5363 28.1097 29.2716 28.1635 29.0153C28.2173 28.7589 28.3234 28.5165 28.4752 28.303C28.6269 28.0895 28.8211 27.9097 29.0455 27.7746C29.2699 27.6396 29.5197 27.5523 29.7794 27.5183C30.039 27.4842 30.3029 27.504 30.5546 27.5766L38.8977 29.2902C39.39 29.395 39.8208 29.6905 40.096 30.112C40.3712 30.5335 40.4684 31.0468 40.3663 31.5397C40.2945 31.8841 40.1287 32.2018 39.8875 32.4577C39.6462 32.7136 39.3387 32.8976 38.9992 32.9895Z" fill="#6C1EFF"/>
<path d="M11.6692 12.6306L10.3783 7.80016L11.6692 12.6306ZM33.3834 12.7427L38.2139 11.4518L33.3834 12.7427ZM35.3505 20.1035L40.181 18.8126L35.3505 20.1035ZM18.2997 22.6875L17.1394 17.824L17.1077 17.8316L17.0761 17.8395L18.2997 22.6875ZM16.8507 22.503L19.2504 18.1164L19.2145 18.0968L19.1782 18.0777L16.8507 22.503ZM17.6657 18.9137L17.8526 23.9102L18.0642 23.9023L18.2744 23.8765L17.6657 18.9137ZM18.0448 18.9307L16.9946 23.8191L17.3826 23.9025L17.7789 23.9236L18.0448 18.9307ZM18.4018 19.0127L16.4619 23.621L16.4988 23.6365L16.5359 23.6515L18.4018 19.0127ZM18.7552 19.1549L21.1123 14.7453L20.873 14.6174L20.6212 14.5161L18.7552 19.1549ZM25.657 20.7215L26.976 25.5444L27.2151 25.479L27.4466 25.3903L25.657 20.7215ZM23.5097 17.9239L27.828 20.4442L27.8332 20.4353L27.8384 20.4264L23.5097 17.9239ZM26.8207 19.8388L31.0412 22.5197L31.0972 22.4316L31.1494 22.3413L26.8207 19.8388ZM26.5853 20.1383L22.9828 16.6711L22.7811 16.8806L22.6052 17.112L26.5853 20.1383ZM26.3168 20.3875L23.5956 16.1928L23.2627 16.4088L22.968 16.6746L26.3168 20.3875ZM25.9967 20.5913L27.7863 25.2601L27.8661 25.2295L27.9449 25.1962L25.9967 20.5913ZM19.5214 12.5032L20.8123 17.3336L19.5214 12.5032ZM18.0461 6.98253L16.7552 2.15204L18.0461 6.98253ZM20.5213 45.7531L25.3518 44.4622L20.5213 45.7531ZM19.046 40.2325L23.8765 38.9416L19.046 40.2325ZM16.0954 29.1912L20.9258 27.9003L16.0954 29.1912ZM30.8145 25.2576L25.9841 26.5485L25.9842 26.549L30.8145 25.2576ZM22.234 37.4088L17.4035 38.6997L18.6944 43.5302L23.5249 42.2393L22.234 37.4088ZM29.5936 35.4421L30.8845 40.2726L35.715 38.9817L34.4241 34.1512L29.5936 35.4421ZM27.6265 28.0812L32.457 26.7903L31.1661 21.9599L26.3356 23.2508L27.6265 28.0812ZM20.2669 30.048L18.976 25.2175L14.1455 26.5084L15.4364 31.3389L20.2669 30.048ZM12.7182 40.0189L11.4852 35.1734L11.4636 35.1789L11.442 35.1846L12.7182 40.0189ZM10.8102 39.4444L7.0727 42.7657L7.07712 42.7707L10.8102 39.4444ZM10.9608 36.7622L7.64568 33.0192L7.63224 33.0311L7.61888 33.0431L10.9608 36.7622ZM17.3368 31.115L20.652 34.858L20.7981 34.7286L20.9337 34.5882L17.3368 31.115ZM19.8681 33.9481L16.8192 29.9852L16.6823 30.0905L16.553 30.2051L19.8681 33.9481ZM13.4921 39.5953L10.177 35.8523L10.1249 35.8984L10.0742 35.9459L13.4921 39.5953ZM38.9992 32.9895L37.6937 28.1629L37.6721 28.1687L37.6506 28.1748L38.9992 32.9895ZM38.1172 33.0083L39.2589 28.1404L39.1913 28.1245L39.1232 28.1105L38.1172 33.0083ZM29.774 31.2946L30.78 26.3969L30.6108 26.3621L30.4396 26.3391L29.774 31.2946ZM30.5546 27.5766L29.1698 32.381L29.3574 32.435L29.5486 32.4743L30.5546 27.5766ZM38.8977 29.2902L39.9389 24.3998L39.9213 24.3961L39.9037 24.3924L38.8977 29.2902ZM40.3663 31.5397L45.261 32.5603L45.2624 32.5538L40.3663 31.5397ZM31.3061 27.0992L30.0152 22.2687L15.296 26.2022L16.5869 31.0327L17.8778 35.8632L32.597 31.9297L31.3061 27.0992ZM16.5869 31.0327L15.296 26.2022C15.1135 26.251 14.9189 26.2253 14.755 26.1305L12.2518 30.4588L9.74857 34.7871C12.2083 36.2097 15.1325 36.5969 17.8778 35.8632L16.5869 31.0327ZM12.2518 30.4588L14.755 26.1305C14.5911 26.0358 14.4714 25.8796 14.4224 25.6963L9.59191 26.9872L4.76143 28.2781C5.495 31.0231 7.28884 33.3645 9.74857 34.7871L12.2518 30.4588ZM9.59191 26.9872L14.4224 25.6963L12.4553 18.3355L7.62482 19.6263L2.79433 20.9172L4.76143 28.2781L9.59191 26.9872ZM7.62482 19.6263L12.4553 18.3355C12.4063 18.1522 12.4322 17.9571 12.527 17.7931L8.19829 15.2906L3.86961 12.7881C2.44745 15.2481 2.06075 18.1722 2.79433 20.9172L7.62482 19.6263ZM8.19829 15.2906L12.527 17.7931C12.6217 17.6292 12.7776 17.5099 12.9601 17.4611L11.6692 12.6306L10.3783 7.80016C7.633 8.53381 5.29179 10.3281 3.86961 12.7881L8.19829 15.2906ZM11.6692 12.6306L12.9601 17.4611L27.6793 13.5276L26.3884 8.69711L25.0975 3.86662L10.3783 7.80016L11.6692 12.6306ZM26.3884 8.69711L27.6793 13.5276C27.8618 13.4788 28.0564 13.5045 28.2203 13.5993L30.7235 9.27103L33.2267 4.94277C30.767 3.52017 27.8428 3.13297 25.0975 3.86662L26.3884 8.69711ZM30.7235 9.27103L28.2203 13.5993C28.3842 13.6941 28.5039 13.8502 28.5529 14.0336L33.3834 12.7427L38.2139 11.4518C37.4803 8.70675 35.6865 6.36535 33.2267 4.94277L30.7235 9.27103ZM33.3834 12.7427L28.5529 14.0336L30.52 21.3944L35.3505 20.1035L40.181 18.8126L38.2139 11.4518L33.3834 12.7427ZM35.3505 20.1035L30.52 21.3944C30.569 21.5777 30.5431 21.7728 30.4484 21.9367L34.777 24.4392L39.1057 26.9417C40.5279 24.4817 40.9146 21.5576 40.181 18.8126L35.3505 20.1035ZM34.777 24.4392L30.4484 21.9367C30.3536 22.1006 30.1978 22.2199 30.0152 22.2687L31.3061 27.0992L32.597 31.9297C35.3423 31.196 37.6835 29.4017 39.1057 26.9417L34.777 24.4392ZM12.6527 16.3111L11.3618 11.4806C9.59249 11.9534 8.08363 13.1098 7.16709 14.6952L11.4958 17.1977L15.8245 19.7002C15.4136 20.411 14.737 20.9295 13.9436 21.1415L12.6527 16.3111ZM11.4958 17.1977L7.16709 14.6952C6.25058 16.2805 6.0014 18.1649 6.47413 19.9339L11.3046 18.643L16.1351 17.3521C16.347 18.1449 16.2353 18.9895 15.8245 19.7002L11.4958 17.1977ZM11.3046 18.643L6.47413 19.9339L8.44123 27.2947L13.2717 26.0038L18.1022 24.7129L16.1351 17.3521L11.3046 18.643ZM13.2717 26.0038L8.44123 27.2947C8.91395 29.0636 10.0699 30.5725 11.6551 31.4893L14.1583 27.161L16.6616 22.8327C17.3722 23.2437 17.8903 23.9201 18.1022 24.7129L13.2717 26.0038ZM14.1583 27.161L11.6551 31.4893C13.2403 32.4061 15.1249 32.6556 16.8943 32.1828L15.6034 27.3523L14.3125 22.5218C15.1059 22.3098 15.9509 22.4217 16.6616 22.8327L14.1583 27.161ZM15.6034 27.3523L16.8943 32.1828L31.6135 28.2493L30.3226 23.4188L29.0317 18.5883L14.3125 22.5218L15.6034 27.3523ZM30.3226 23.4188L31.6135 28.2493C33.3828 27.7764 34.8917 26.62 35.8082 25.0346L31.4795 22.5321L27.1509 20.0296C27.5618 19.3189 28.2383 18.8003 29.0317 18.5883L30.3226 23.4188ZM31.4795 22.5321L35.8082 25.0346C36.7248 23.4493 36.9739 21.5649 36.5012 19.796L31.6707 21.0869L26.8402 22.3778C26.6283 21.585 26.74 20.7403 27.1509 20.0296L31.4795 22.5321ZM31.6707 21.0869L36.5012 19.796L34.5341 12.4352L29.7036 13.726L24.8731 15.0169L26.8402 22.3778L31.6707 21.0869ZM29.7036 13.726L34.5341 12.4352C34.0614 10.6662 32.9054 9.15737 31.3202 8.24057L28.817 12.5688L26.3137 16.8971C25.6031 16.4861 25.085 15.8097 24.8731 15.0169L29.7036 13.726ZM28.817 12.5688L31.3202 8.24057C29.735 7.32377 27.8504 7.0742 26.081 7.54704L27.3719 12.3775L28.6628 17.208C27.8694 17.42 27.0244 17.3081 26.3137 16.8971L28.817 12.5688ZM27.3719 12.3775L26.081 7.54704L11.3618 11.4806L12.6527 16.3111L13.9436 21.1415L28.6628 17.208L27.3719 12.3775ZM18.2997 22.6875L17.0761 17.8395C17.81 17.6543 18.5866 17.7533 19.2504 18.1164L16.8507 22.503L14.4511 26.8895C15.9998 27.7367 17.8115 27.9675 19.5232 27.5355L18.2997 22.6875ZM16.8507 22.503L19.1782 18.0777C19.7818 18.3952 20.2635 18.903 20.5487 19.5222L16.0073 21.614L11.4659 23.7058C12.1022 25.0873 13.1769 26.2201 14.5232 26.9282L16.8507 22.503ZM16.0073 21.614L20.5487 19.5222C20.8339 20.1413 20.9067 20.8374 20.7557 21.5023L15.8799 20.3951L11.004 19.288C10.6672 20.7713 10.8296 22.3243 11.4659 23.7058L16.0073 21.614ZM15.8799 20.3951L20.7557 21.5023C20.6048 22.1672 20.2385 22.7637 19.7135 23.1992L16.5211 19.351L13.3288 15.5027C12.158 16.474 11.3408 17.8047 11.004 19.288L15.8799 20.3951ZM16.5211 19.351L19.7135 23.1992C19.1885 23.6347 18.5343 23.8847 17.8526 23.9102L17.6657 18.9137L17.4788 13.9172C15.9585 13.9741 14.4996 14.5315 13.3288 15.5027L16.5211 19.351ZM17.6657 18.9137L18.2744 23.8765C17.8476 23.9288 17.415 23.9094 16.9946 23.8191L18.0448 18.9307L19.095 14.0422C18.4255 13.8984 17.7367 13.8675 17.057 13.9509L17.6657 18.9137ZM18.0448 18.9307L17.7789 23.9236C17.3257 23.8995 16.8801 23.7971 16.4619 23.621L18.4018 19.0127L20.3418 14.4044C19.6968 14.1328 19.0096 13.975 18.3107 13.9377L18.0448 18.9307ZM18.4018 19.0127L16.5359 23.6515L16.8893 23.7936L18.7552 19.1549L20.6212 14.5161L20.2678 14.3739L18.4018 19.0127ZM18.7552 19.1549L16.3982 23.5644C15.8442 23.2683 15.3935 22.8107 15.1059 22.2525L19.5505 19.9623L23.9951 17.672C23.3534 16.4266 22.348 15.4058 21.1123 14.7453L18.7552 19.1549ZM19.5505 19.9623L15.1059 22.2525C14.8183 21.6944 14.7072 21.0619 14.7876 20.439L19.7465 21.0785L24.7054 21.718C24.8846 20.3285 24.6369 18.9173 23.9951 17.672L19.5505 19.9623ZM19.7465 21.0785L14.7876 20.439C14.8679 19.8162 15.1358 19.2324 15.5558 18.7653L19.2738 22.1085L22.9917 25.4517C23.9286 24.4098 24.5262 23.1075 24.7054 21.718L19.7465 21.0785ZM19.2738 22.1085L15.5558 18.7653C15.9759 18.2981 16.5282 17.9698 17.1394 17.824L18.2997 22.6875L19.4599 27.551C20.823 27.2259 22.0548 26.4936 22.9917 25.4517L19.2738 22.1085ZM25.657 20.7215L24.338 15.8986C24.9313 15.7364 25.5594 15.7545 26.1422 15.9507L24.5472 20.6895L22.9523 25.4283C24.2522 25.8658 25.6529 25.9062 26.976 25.5444L25.657 20.7215ZM24.5472 20.6895L26.1422 15.9507C26.7249 16.1468 27.236 16.5121 27.6102 16.9997L23.6438 20.044L19.6775 23.0883C20.5124 24.1761 21.6524 24.9908 22.9523 25.4283L24.5472 20.6895ZM23.6438 20.044L27.6102 16.9997C27.9845 17.4873 28.2051 18.0752 28.2439 18.6886L23.2538 19.0043L18.2638 19.32C18.3504 20.6886 18.8425 22.0004 19.6775 23.0883L23.6438 20.044ZM23.2538 19.0043L28.2439 18.6886C28.2827 19.302 28.138 19.9132 27.828 20.4442L23.5097 17.9239L19.1914 15.4035C18.5001 16.588 18.1772 17.9514 18.2638 19.32L23.2538 19.0043ZM23.5097 17.9239L27.8384 20.4264C27.6355 20.7774 27.3653 21.0851 27.0434 21.3318L24.002 17.3632L20.9606 13.3946C20.2401 13.9468 19.6354 14.6355 19.181 15.4214L23.5097 17.9239ZM24.002 17.3632L27.0434 21.3318C26.7215 21.5785 26.3542 21.7593 25.9623 21.8641L24.6714 17.0336L23.3805 12.2031C22.5035 12.4375 21.6812 12.8423 20.9606 13.3946L24.002 17.3632ZM24.6714 17.0336L25.9623 21.8641C25.5705 21.9688 25.1618 21.9953 24.7598 21.942L25.416 16.9853L26.0722 12.0285C25.1722 11.9094 24.2576 11.9687 23.3805 12.2031L24.6714 17.0336ZM25.416 16.9853L24.7598 21.942C24.3577 21.8888 23.9701 21.7569 23.6191 21.5539L26.1224 17.2257L28.6256 12.8974C27.8398 12.4429 26.9722 12.1477 26.0722 12.0285L25.416 16.9853ZM26.1224 17.2257L23.6191 21.5539C23.2682 21.3509 22.9606 21.0808 22.7141 20.759L26.683 17.7181L30.652 14.6772C30.1 13.9566 29.4114 13.3519 28.6256 12.8974L26.1224 17.2257ZM26.683 17.7181L22.7141 20.759C22.4675 20.4372 22.2868 20.0701 22.1822 19.6785L27.0126 18.3876L31.8431 17.0967C31.6088 16.2199 31.2041 15.3977 30.652 14.6772L26.683 17.7181ZM27.0126 18.3876L22.1822 19.6785C22.0775 19.287 22.051 18.8786 22.1041 18.4767L27.061 19.1323L32.0178 19.7879C32.1368 18.888 32.0775 17.9736 31.8431 17.0967L27.0126 18.3876ZM27.061 19.1323L22.1041 18.4767C22.1573 18.0748 22.2891 17.6873 22.492 17.3363L26.8207 19.8388L31.1494 22.3413C31.6037 21.5554 31.8988 20.6878 32.0178 19.7879L27.061 19.1323ZM26.8207 19.8388L22.6002 17.1578C22.7111 16.9832 22.8393 16.8202 22.9828 16.6711L26.5853 20.1383L30.1879 23.6055C30.5079 23.2729 30.7938 22.9092 31.0412 22.5197L26.8207 19.8388ZM26.5853 20.1383L22.6052 17.112C22.8798 16.7508 23.2149 16.4398 23.5956 16.1928L26.3168 20.3875L29.038 24.5821C29.6252 24.2012 30.1419 23.7216 30.5655 23.1645L26.5853 20.1383ZM26.3168 20.3875L22.968 16.6746C23.2873 16.3866 23.6526 16.154 24.0486 15.9864L25.9967 20.5913L27.9449 25.1962C28.5755 24.9294 29.1571 24.559 29.6656 24.1003L26.3168 20.3875ZM25.9967 20.5913L24.2072 15.9225L23.8674 16.0527L25.657 20.7215L27.4466 25.3903L27.7863 25.2601L25.9967 20.5913ZM19.5214 12.5032L18.2305 7.67266C19.0239 7.46063 19.8689 7.57257 20.5796 7.98359L18.0764 12.3118L15.5731 16.6401C17.1583 17.5569 19.0429 17.8065 20.8123 17.3336L19.5214 12.5032ZM18.0764 12.3118L20.5796 7.98359C21.2902 8.39458 21.8084 9.07093 22.0202 9.86374L17.1897 11.1546L12.3592 12.4455C12.832 14.2144 13.9879 15.7233 15.5731 16.6401L18.0764 12.3118ZM17.1897 11.1546L22.0202 9.86374L21.5284 8.02353L16.698 9.31443L11.8675 10.6053L12.3592 12.4455L17.1897 11.1546ZM16.698 9.31443L21.5284 8.02353C21.7403 8.81634 21.6287 9.66099 21.2178 10.3717L16.8891 7.86919L12.5604 5.36668C11.6439 6.95202 11.3948 8.8364 11.8675 10.6053L16.698 9.31443ZM16.8891 7.86919L21.2178 10.3717C20.8069 11.0824 20.1304 11.601 19.337 11.813L18.0461 6.98253L16.7552 2.15204C14.9858 2.62488 13.477 3.78131 12.5604 5.36668L16.8891 7.86919ZM18.0461 6.98253L19.337 11.813C18.5436 12.025 17.6986 11.9131 16.9879 11.5021L19.4911 7.17383L21.9944 2.84557C20.4091 1.92877 18.5246 1.6792 16.7552 2.15204L18.0461 6.98253ZM19.4911 7.17383L16.9879 11.5021C16.2773 11.0911 15.7591 10.4147 15.5473 9.62193L20.3778 8.33104L25.2082 7.04015C24.7355 5.27124 23.5795 3.76236 21.9944 2.84557L19.4911 7.17383ZM20.3778 8.33104L15.5473 9.62193L16.039 11.4621L20.8695 10.1713L25.7 8.88036L25.2082 7.04015L20.3778 8.33104ZM20.8695 10.1713L16.039 11.4621C15.8272 10.6693 15.9388 9.82469 16.3497 9.11398L20.6784 11.6165L25.0071 14.119C25.9236 12.5337 26.1727 10.6493 25.7 8.88036L20.8695 10.1713ZM20.6784 11.6165L16.3497 9.11398C16.7606 8.40324 17.4371 7.88469 18.2305 7.67266L19.5214 12.5032L20.8123 17.3336C22.5817 16.8608 24.0905 15.7044 25.0071 14.119L20.6784 11.6165ZM22.853 47.1016L21.5621 42.2711C22.3555 42.0591 23.2005 42.1711 23.9112 42.5821L21.408 46.9103L18.9047 51.2386C20.4899 52.1554 22.3745 52.405 24.1439 51.9321L22.853 47.1016ZM21.408 46.9103L23.9112 42.5821C24.6218 42.9931 25.14 43.6694 25.3518 44.4622L20.5213 45.7531L15.6908 47.044C16.1636 48.8129 17.3196 50.3218 18.9047 51.2386L21.408 46.9103ZM20.5213 45.7531L25.3518 44.4622L23.8765 38.9416L19.046 40.2325L14.2155 41.5234L15.6908 47.044L20.5213 45.7531ZM19.046 40.2325L23.8765 38.9416C24.0884 39.7344 23.9767 40.579 23.5658 41.2898L19.2372 38.7872L14.9085 36.2847C13.992 37.8701 13.7428 39.7545 14.2155 41.5234L19.046 40.2325ZM19.2372 38.7872L23.5658 41.2898C23.1549 42.0005 22.4784 42.519 21.685 42.7311L20.3941 37.9006L19.1032 33.0701C17.3339 33.5429 15.825 34.6994 14.9085 36.2847L19.2372 38.7872ZM20.3941 37.9006L21.685 42.7311C20.8916 42.9431 20.0466 42.8312 19.3359 42.4202L21.8392 38.0919L24.3424 33.7636C22.7572 32.8468 20.8726 32.5973 19.1032 33.0701L20.3941 37.9006ZM21.8392 38.0919L19.3359 42.4202C18.6253 42.0092 18.1072 41.3328 17.8953 40.54L22.7258 39.2491L27.5563 37.9582C27.0836 36.1893 25.9276 34.6804 24.3424 33.7636L21.8392 38.0919ZM22.7258 39.2491L17.8953 40.54L19.3706 46.0606L24.2011 44.7697L29.0316 43.4788L27.5563 37.9582L22.7258 39.2491ZM24.2011 44.7697L19.3706 46.0606C19.1588 45.2678 19.2704 44.4232 19.6813 43.7125L24.01 46.215L28.3387 48.7175C29.2552 47.1321 29.5043 45.2478 29.0316 43.4788L24.2011 44.7697ZM24.01 46.215L19.6813 43.7125C20.0922 43.0017 20.7687 42.4832 21.5621 42.2711L22.853 47.1016L24.1439 51.9321C25.9133 51.4593 27.4221 50.3028 28.3387 48.7175L24.01 46.215ZM33.8934 44.1512L32.6025 39.3207C33.396 39.1087 34.241 39.2206 34.9516 39.6316L32.4484 43.9599L29.9451 48.2882C31.5304 49.205 33.4149 49.4545 35.1843 48.9817L33.8934 44.1512ZM32.4484 43.9599L34.9516 39.6316C35.6622 40.0426 36.1804 40.719 36.3922 41.5118L31.5618 42.8027L26.7313 44.0936C27.204 45.8625 28.36 47.3714 29.9451 48.2882L32.4484 43.9599ZM31.5618 42.8027L36.3922 41.5118L34.9169 35.9912L30.0864 37.2821L25.2559 38.573L26.7313 44.0936L31.5618 42.8027ZM30.0864 37.2821L34.9169 35.9912C35.1288 36.784 35.0171 37.6286 34.6063 38.3393L30.2776 35.8368L25.9489 33.3343C25.0324 34.9197 24.7832 36.804 25.2559 38.573L30.0864 37.2821ZM30.2776 35.8368L34.6063 38.3393C34.1954 39.0501 33.5188 39.5686 32.7254 39.7807L31.4346 34.9502L30.1437 30.1197C28.3743 30.5925 26.8655 31.7489 25.9489 33.3343L30.2776 35.8368ZM31.4346 34.9502L32.7254 39.7807C31.932 39.9927 31.087 39.8807 30.3764 39.4697L32.8796 35.1415L35.3828 30.8132C33.7976 29.8964 31.913 29.6468 30.1437 30.1197L31.4346 34.9502ZM32.8796 35.1415L30.3764 39.4697C29.6657 39.0587 29.1476 38.3824 28.9357 37.5896L33.7662 36.2987L38.5967 35.0078C38.124 33.2389 36.968 31.73 35.3828 30.8132L32.8796 35.1415ZM33.7662 36.2987L28.9357 37.5896L30.4111 43.1102L35.2415 41.8193L40.072 40.5284L38.5967 35.0078L33.7662 36.2987ZM35.2415 41.8193L30.4111 43.1102C30.1992 42.3174 30.3108 41.4727 30.7217 40.762L35.0504 43.2645L39.3791 45.7671C40.2956 44.1817 40.5448 42.2973 40.072 40.5284L35.2415 41.8193ZM35.0504 43.2645L30.7217 40.762C31.1326 40.0513 31.8091 39.5328 32.6025 39.3207L33.8934 44.1512L35.1843 48.9817C36.9537 48.5089 38.4625 47.3524 39.3791 45.7671L35.0504 43.2645ZM32.4171 38.6308L31.1262 33.8003L20.0868 36.7505L21.3777 41.5809L22.6686 46.4114L33.708 43.4613L32.4171 38.6308ZM21.3777 41.5809L20.0868 36.7505C20.8802 36.5384 21.7252 36.6504 22.4359 37.0614L19.9326 41.3896L17.4294 45.7179C19.0146 46.6347 20.8992 46.8843 22.6686 46.4114L21.3777 41.5809ZM19.9326 41.3896L22.4359 37.0614C23.1464 37.4723 23.6646 38.1486 23.8765 38.9416L19.046 40.2325L14.2155 41.5234C14.6883 43.2925 15.8444 44.8012 17.4294 45.7179L19.9326 41.3896ZM19.046 40.2325L23.8765 38.9416L20.9258 27.9003L16.0954 29.1912L11.2649 30.4821L14.2155 41.5234L19.046 40.2325ZM16.0954 29.1912L20.9258 27.9003C21.1377 28.6931 21.0261 29.5377 20.6152 30.2485L16.2865 27.7459L11.9578 25.2434C11.0413 26.8288 10.7921 28.7132 11.2649 30.4821L16.0954 29.1912ZM16.2865 27.7459L20.6152 30.2485C20.2043 30.9592 19.5278 31.4777 18.7344 31.6898L17.4435 26.8593L16.1526 22.0288C14.3832 22.5016 12.8744 23.6581 11.9578 25.2434L16.2865 27.7459ZM17.4435 26.8593L18.7344 31.6898L29.7738 28.7396L28.4829 23.9091L27.192 19.0786L16.1526 22.0288L17.4435 26.8593ZM28.4829 23.9091L29.7738 28.7396C28.9804 28.9516 28.1353 28.8397 27.4247 28.4287L29.9279 24.1004L32.4311 19.7722C30.8459 18.8554 28.9613 18.6058 27.192 19.0786L28.4829 23.9091ZM29.9279 24.1004L27.4247 28.4287C26.714 28.0177 26.1959 27.3413 25.9841 26.5485L30.8145 25.2576L35.645 23.9668C35.1723 22.1978 34.0163 20.689 32.4311 19.7722L29.9279 24.1004ZM30.8145 25.2576L25.9842 26.549L28.9359 37.59L33.7662 36.2987L38.5966 35.0073L35.6449 23.9663L30.8145 25.2576ZM33.7662 36.2987L28.9357 37.5896C28.722 36.7897 28.8381 35.946 29.2454 35.2416L33.574 37.7441L37.9027 40.2466C38.8156 38.6676 39.0713 36.7837 38.5967 35.0078L33.7662 36.2987ZM33.574 37.7441L29.2454 35.2416C29.6563 34.5309 30.3328 34.0123 31.1262 33.8003L32.4171 38.6308L33.708 43.4613C35.4773 42.9884 36.9862 41.832 37.9027 40.2466L33.574 37.7441ZM22.234 37.4088L23.5249 42.2393L30.8845 40.2726L29.5936 35.4421L28.3027 30.6116L20.9431 32.5783L22.234 37.4088ZM29.5936 35.4421L34.4241 34.1512L32.457 26.7903L27.6265 28.0812L22.796 29.3721L24.7631 36.733L29.5936 35.4421ZM27.6265 28.0812L26.3356 23.2508L18.976 25.2175L20.2669 30.048L21.5578 34.8785L28.9174 32.9117L27.6265 28.0812ZM20.2669 30.048L15.4364 31.3389L17.4035 38.6997L22.234 37.4088L27.0645 36.1179L25.0974 28.7571L20.2669 30.048ZM12.7182 40.0189L11.442 35.1846C11.9948 35.0386 12.5773 35.0486 13.1247 35.2135L11.6831 40.0011L10.2415 44.7888C11.4625 45.1565 12.7615 45.1788 13.9945 44.8533L12.7182 40.0189ZM11.6831 40.0011L13.1247 35.2135C13.6722 35.3783 14.1631 35.6915 14.5433 36.1182L10.8102 39.4444L7.07712 42.7707C7.92531 43.7226 9.02055 44.4212 10.2415 44.7888L11.6831 40.0011ZM10.8102 39.4444L14.5477 36.1231C15.091 36.7345 15.3702 37.536 15.3243 38.3525L10.3322 38.0722L5.34007 37.7919C5.2378 39.6136 5.8607 41.4018 7.07271 42.7657L10.8102 39.4444ZM10.3322 38.0722L15.3243 38.3525C15.2785 39.169 14.9113 39.9344 14.3027 40.4813L10.9608 36.7622L7.61888 33.0431C6.2615 34.2629 5.44234 35.9702 5.34007 37.7919L10.3322 38.0722ZM10.9608 36.7622L14.2759 40.5052L20.652 34.858L17.3368 31.115L14.0217 27.372L7.64568 33.0192L10.9608 36.7622ZM17.3368 31.115L20.9337 34.5882C20.638 34.8944 20.2822 35.1364 19.8887 35.299L17.9796 30.6778L16.0706 26.0566C15.193 26.4191 14.3996 26.9588 13.74 27.6419L17.3368 31.115ZM17.9796 30.6778L19.8887 35.299C19.4952 35.4616 19.0723 35.5412 18.6466 35.5329L18.7436 30.5339L18.8406 25.5348C17.8912 25.5164 16.9482 25.694 16.0706 26.0566L17.9796 30.6778ZM18.7436 30.5339L18.6466 35.5329C18.2209 35.5247 17.8015 35.4287 17.4147 35.251L19.5015 30.7073L21.5882 26.1636C20.7253 25.7673 19.79 25.5532 18.8406 25.5348L18.7436 30.5339ZM19.5015 30.7073L17.4147 35.251C17.0279 35.0734 16.6819 34.8179 16.3984 34.5005L20.1269 31.1692L23.8554 27.8378C23.2228 27.1298 22.451 26.5598 21.5882 26.1636L19.5015 30.7073ZM20.1269 31.1692L16.3984 34.5005C16.1148 34.1832 15.8998 33.8108 15.7667 33.4066L20.5157 31.8425L25.2647 30.2783C24.9678 29.3766 24.488 28.5458 23.8554 27.8378L20.1269 31.1692ZM20.5157 31.8425L15.7667 33.4066C15.6335 33.0025 15.5852 32.5752 15.6247 32.1515L20.6031 32.6151L25.5816 33.0787C25.6696 32.1333 25.5617 31.18 25.2647 30.2783L20.5157 31.8425ZM20.6031 32.6151L15.6247 32.1515C15.6641 31.7278 15.7905 31.3167 15.9961 30.944L20.3746 33.3582L24.7531 35.7725C25.2115 34.941 25.4936 34.024 25.5816 33.0787L20.6031 32.6151ZM20.3746 33.3582L15.9961 30.944C16.2016 30.5712 16.4818 30.2448 16.8192 29.9852L19.8681 33.9481L22.917 37.9109C23.6696 37.3319 24.2946 36.6039 24.7531 35.7725L20.3746 33.3582ZM19.8681 33.9481L16.553 30.2051L10.177 35.8523L13.4921 39.5953L16.8072 43.3382L23.1832 37.6911L19.8681 33.9481ZM13.4921 39.5953L10.0742 35.9459C10.4718 35.5735 10.9572 35.3077 11.4852 35.1734L12.7182 40.0189L13.9512 44.8645C15.0584 44.5828 16.0762 44.0255 16.91 43.2446L13.4921 39.5953ZM38.9992 32.9895L37.6506 28.1748C38.1753 28.0278 38.7286 28.016 39.2589 28.1404L38.1172 33.0083L36.9754 37.8762C38.0876 38.137 39.2477 38.1123 40.3478 37.8041L38.9992 32.9895ZM38.1172 33.0083L39.1232 28.1105L30.78 26.3969L29.774 31.2946L28.7681 36.1924L37.1112 37.9061L38.1172 33.0083ZM29.774 31.2946L30.4396 26.3391C30.8615 26.3958 31.2672 26.5389 31.6313 26.7594L29.0409 31.0361L26.4504 35.3127C27.2625 35.8046 28.1674 36.1238 29.1085 36.2502L29.774 31.2946ZM29.0409 31.0361L31.6313 26.7594C31.9954 26.98 32.31 27.2732 32.5556 27.6207L28.4721 30.506L24.3885 33.3913C24.9364 34.1667 25.6383 34.8208 26.4504 35.3127L29.0409 31.0361ZM28.4721 30.506L32.5556 27.6207C32.8011 27.9683 32.9724 28.3627 33.0586 28.7794L28.1624 29.7928L23.2662 30.8062C23.4586 31.7359 23.8407 32.6159 24.3885 33.3913L28.4721 30.506ZM28.1624 29.7928L33.0586 28.7794C33.1449 29.196 33.1443 29.6261 33.0568 30.0426L28.1635 29.0153L23.2702 27.988C23.0751 28.9172 23.0738 29.8766 23.2662 30.8062L28.1624 29.7928ZM28.1635 29.0153L33.0568 30.0426C32.9694 30.4591 32.797 30.8531 32.5504 31.2L28.4752 28.303L24.4 25.406C23.8498 26.1798 23.4652 27.0588 23.2702 27.988L28.1635 29.0153ZM28.4752 28.303L32.5504 31.2C32.3037 31.547 31.9881 31.8394 31.6233 32.0589L29.0455 27.7746L26.4676 23.4904C25.654 23.98 24.9501 24.6321 24.4 25.406L28.4752 28.303ZM29.0455 27.7746L31.6233 32.0589C31.2585 32.2784 30.8523 32.4203 30.4301 32.4757L29.7794 27.5183L29.1286 22.5608C28.1871 22.6844 27.2813 23.0008 26.4676 23.4904L29.0455 27.7746ZM29.7794 27.5183L30.4301 32.4757C30.0079 32.5311 29.5789 32.4989 29.1698 32.381L30.5546 27.5766L31.9393 22.7721C31.027 22.5092 30.0701 22.4372 29.1286 22.5608L29.7794 27.5183ZM30.5546 27.5766L29.5486 32.4743L37.8918 34.188L38.8977 29.2902L39.9037 24.3924L31.5606 22.6788L30.5546 27.5766ZM38.8977 29.2902L37.8566 34.1806C37.0563 34.0102 36.3563 33.53 35.9092 32.8452L40.096 30.112L44.2828 27.3788C43.2854 25.8509 41.7238 24.7798 39.9389 24.3998L38.8977 29.2902ZM40.096 30.112L35.9092 32.8452C35.4622 32.1604 35.3043 31.3265 35.4702 30.5257L40.3663 31.5397L45.2624 32.5538C45.6324 30.7671 45.2802 28.9066 44.2828 27.3788L40.096 30.112ZM40.3663 31.5397L35.4715 30.5192C35.5882 29.9597 35.8575 29.4434 36.2497 29.0274L39.8875 32.4577L43.5252 35.888C44.4 34.9602 45.0008 33.8084 45.261 32.5603L40.3663 31.5397ZM39.8875 32.4577L36.2497 29.0274C36.6419 28.6115 37.1417 28.3122 37.6937 28.1629L38.9992 32.9895L40.3048 37.816C41.5357 37.483 42.6504 36.8157 43.5252 35.888L39.8875 32.4577Z" fill="white" mask="url(#path-1-outside-1_1_439)"/>
</g>
<defs>
<filter id="filter0_d_1_439" x="0.430908" y="0.917969" width="46.9749" height="54.2483" filterUnits="userSpaceOnUse" color-interpolation-filters="sRGB">
<feFlood flood-opacity="0" result="BackgroundImageFix"/>
<feColorMatrix in="SourceAlpha" type="matrix" values="0 0 0 0 0 0 0 0 0 0 0 0 0 0 0 0 0 0 127 0" result="hardAlpha"/>
<feOffset dy="1"/>
<feGaussianBlur stdDeviation="1"/>
<feComposite in2="hardAlpha" operator="out"/>
<feColorMatrix type="matrix" values="0 0 0 0 0 0 0 0 0 0 0 0 0 0 0 0 0 0 0.1 0"/>
<feBlend mode="normal" in2="BackgroundImageFix" result="effect1_dropShadow_1_439"/>
<feBlend mode="normal" in="SourceGraphic" in2="effect1_dropShadow_1_439" result="shape"/>
</filter>
</defs>
</svg>
