<svg width="54" height="63" viewBox="0 0 54 63" fill="none" xmlns="http://www.w3.org/2000/svg">
<g filter="url(#filter0_d_1_443)">
<mask id="path-1-outside-1_1_443" maskUnits="userSpaceOnUse" x="-4.19331" y="-4.6419" width="60.3809" height="68.168" fill="black">
<rect fill="white" x="-4.19331" y="-4.6419" width="60.3809" height="68.168"/>
<path d="M35.3751 30.0629L18.6193 34.5407C16.9528 34.986 15.1776 34.751 13.6843 33.8874C12.191 33.0237 11.1018 31.6021 10.6564 29.9354L8.41708 21.556C7.97166 19.8893 8.20649 18.1139 9.0699 16.6204C9.93331 15.1269 11.3546 14.0377 13.0211 13.5924L29.7769 9.11457C31.4434 8.66922 33.2185 8.90423 34.7119 9.76789C36.2052 10.6316 37.2944 12.0531 37.7398 13.7199L39.9791 22.0992C40.4245 23.766 40.1897 25.5414 39.3263 27.0348C38.4628 28.5283 37.0416 29.6175 35.3751 30.0629ZM14.1407 17.782C13.5852 17.9305 13.1115 18.2936 12.8236 18.7914C12.5358 19.2892 12.4576 19.881 12.606 20.4366L14.8453 28.8159C14.9938 29.3715 15.3569 29.8454 15.8546 30.1332C16.3524 30.4211 16.9441 30.4995 17.4996 30.351L34.2555 25.8732C34.8109 25.7248 35.2847 25.3617 35.5725 24.8639C35.8603 24.366 35.9386 23.7742 35.7901 23.2187L33.5508 14.8393C33.4024 14.2838 33.0393 13.8099 32.5415 13.522C32.0437 13.2341 31.452 13.1558 30.8965 13.3042L14.1407 17.782Z"/>
<path d="M20.569 25.0408C20.0124 25.1813 19.4232 25.1062 18.9196 24.8307C18.4968 24.6083 18.1593 24.2526 17.9594 23.8187C17.7596 23.3848 17.7086 22.8971 17.8143 22.4312C17.9201 21.9654 18.1767 21.5475 18.5444 21.2426C18.912 20.9376 19.37 20.7626 19.8473 20.7448C19.9912 20.7271 20.1371 20.7337 20.2788 20.7641C20.4187 20.7716 20.5562 20.8031 20.6853 20.8575L21.0876 21.0193C21.4756 21.2267 21.7914 21.5473 21.9929 21.9384C22.1945 22.3296 22.2723 22.7728 22.216 23.2092C22.1597 23.6456 21.972 24.0545 21.6778 24.3816C21.3837 24.7088 20.9969 24.9387 20.569 25.0408Z"/>
<path d="M28.9443 22.8028C28.5289 22.9163 28.0891 22.9037 27.681 22.7663C27.2728 22.6289 26.9148 22.3731 26.6526 22.0314C26.3904 21.6898 26.2358 21.2778 26.2086 20.848C26.1814 20.4181 26.2828 19.9899 26.4999 19.618C26.643 19.3705 26.8335 19.1536 27.0604 18.9797C27.2873 18.8058 27.5462 18.6783 27.8224 18.6045C28.0985 18.5307 28.3866 18.512 28.67 18.5496C28.9534 18.5871 29.2266 18.6801 29.4741 18.8232C29.7216 18.9663 29.9384 19.1568 30.1123 19.3837C30.2862 19.6107 30.4137 19.8697 30.4875 20.1459C30.5613 20.4221 30.58 20.7102 30.5426 20.9936C30.5051 21.2771 30.4121 21.5503 30.269 21.7978C30.1913 21.9202 30.1016 22.0344 30.0011 22.1388C29.9163 22.2503 29.8129 22.3463 29.6954 22.4225C29.5877 22.5196 29.4646 22.598 29.3311 22.6545L28.9443 22.8028Z"/>
<path d="M21.9598 13.4472C21.4043 13.5957 20.8126 13.5173 20.3148 13.2295C19.817 12.9416 19.4539 12.4677 19.3055 11.9121L18.7456 9.8173C18.5972 9.26171 18.6754 8.66991 18.9633 8.17209C19.2511 7.67426 19.7248 7.31119 20.2803 7.16274C20.8358 7.01429 21.4275 7.09263 21.9253 7.38052C22.4231 7.66841 22.7861 8.14226 22.9346 8.69785L23.4944 10.7927C23.6429 11.3483 23.5646 11.9401 23.2768 12.4379C22.989 12.9357 22.5153 13.2988 21.9598 13.4472Z"/>
<path d="M25.7523 52.833C25.1969 52.9814 24.6051 52.9031 24.1074 52.6152C23.6096 52.3273 23.2465 51.8535 23.098 51.2979L21.4186 45.0134C21.2701 44.4578 21.3484 43.866 21.6362 43.3682C21.924 42.8703 22.3978 42.5073 22.9532 42.3588C23.5087 42.2104 24.1005 42.2887 24.5982 42.5766C25.096 42.8645 25.4591 43.3383 25.6075 43.8939L27.287 50.1784C27.4355 50.734 27.3572 51.3258 27.0694 51.8236C26.7816 52.3215 26.3078 52.6845 25.7523 52.833Z"/>
<path d="M38.3204 49.4743C37.7649 49.6228 37.1732 49.5444 36.6754 49.2565C36.1776 48.9687 35.8146 48.4948 35.6661 47.9392L33.9866 41.6547C33.8382 41.0991 33.9164 40.5073 34.2042 40.0095C34.492 39.5117 34.9658 39.1486 35.5213 39.0002C36.0768 38.8517 36.6685 38.93 37.1663 39.2179C37.6641 39.5058 38.0271 39.9797 38.1756 40.5353L39.855 46.8198C40.0035 47.3753 39.9252 47.9671 39.6374 48.465C39.3496 48.9628 38.8759 49.3259 38.3204 49.4743Z"/>
<path d="M36.6397 43.1901L24.0729 46.5484C23.5174 46.6969 22.9257 46.6185 22.4279 46.3306C21.9301 46.0428 21.5671 45.569 21.4186 45.0134L18.0597 32.4443C17.9112 31.8887 17.9895 31.2969 18.2773 30.7991C18.5651 30.3013 19.0388 29.9382 19.5943 29.7898L32.1612 26.4314C32.7167 26.283 33.3084 26.3613 33.8062 26.6492C34.304 26.9371 34.667 27.4109 34.8155 27.9665L38.1756 40.5353C38.3241 41.0909 38.2446 41.6829 37.9568 42.1807C37.669 42.6786 37.1952 43.0416 36.6397 43.1901ZM25.0477 41.799L33.4256 39.5601L31.1863 31.1808L22.8084 33.4197L25.0477 41.799Z"/>
<path d="M14.2152 44.7703C13.8281 44.8725 13.4203 44.8655 13.0369 44.75C12.6535 44.6346 12.3096 44.4152 12.0432 44.1163C11.6626 43.6879 11.467 43.1263 11.4991 42.5542C11.5312 41.982 11.7885 41.4459 12.2147 41.0629L19.4729 34.6344C19.68 34.4199 19.9291 34.2505 20.2047 34.1366C20.4802 34.0228 20.7763 33.967 21.0743 33.9728C21.3724 33.9786 21.6661 34.0458 21.937 34.1702C22.208 34.2947 22.4504 34.4736 22.649 34.696C22.8477 34.9183 22.9984 35.1793 23.0916 35.4625C23.1849 35.7457 23.2188 36.0451 23.1911 36.342C23.1635 36.6389 23.0749 36.9269 22.931 37.1879C22.787 37.449 22.5907 37.6776 22.3544 37.8594L15.0962 44.288C14.8479 44.5205 14.5449 44.6864 14.2152 44.7703Z"/>
<path d="M44.1327 36.7682C43.8051 36.8599 43.4597 36.8673 43.1286 36.7896L33.631 34.8388C33.3355 34.7992 33.0514 34.699 32.7964 34.5445C32.5414 34.39 32.3209 34.1846 32.1489 33.9411C31.9768 33.6976 31.8568 33.4212 31.7964 33.1292C31.7359 32.8372 31.7364 32.5359 31.7976 32.2441C31.8589 31.9523 31.9797 31.6763 32.1524 31.4333C32.3252 31.1903 32.5462 30.9855 32.8016 30.8318C33.0571 30.6781 33.3415 30.5787 33.6371 30.5399C33.9327 30.5011 34.2331 30.5237 34.5196 30.6063L44.0171 32.5571C44.5775 32.6764 45.068 33.0127 45.3812 33.4925C45.6945 33.9724 45.8051 34.5567 45.6889 35.1178C45.6071 35.5098 45.4185 35.8715 45.1438 36.1628C44.8691 36.4541 44.5191 36.6636 44.1327 36.7682Z"/>
</mask>
<path d="M35.3751 30.0629L18.6193 34.5407C16.9528 34.986 15.1776 34.751 13.6843 33.8874C12.191 33.0237 11.1018 31.6021 10.6564 29.9354L8.41708 21.556C7.97166 19.8893 8.20649 18.1139 9.0699 16.6204C9.93331 15.1269 11.3546 14.0377 13.0211 13.5924L29.7769 9.11457C31.4434 8.66922 33.2185 8.90423 34.7119 9.76789C36.2052 10.6316 37.2944 12.0531 37.7398 13.7199L39.9791 22.0992C40.4245 23.766 40.1897 25.5414 39.3263 27.0348C38.4628 28.5283 37.0416 29.6175 35.3751 30.0629ZM14.1407 17.782C13.5852 17.9305 13.1115 18.2936 12.8236 18.7914C12.5358 19.2892 12.4576 19.881 12.606 20.4366L14.8453 28.8159C14.9938 29.3715 15.3569 29.8454 15.8546 30.1332C16.3524 30.4211 16.9441 30.4995 17.4996 30.351L34.2555 25.8732C34.8109 25.7248 35.2847 25.3617 35.5725 24.8639C35.8603 24.366 35.9386 23.7742 35.7901 23.2187L33.5508 14.8393C33.4024 14.2838 33.0393 13.8099 32.5415 13.522C32.0437 13.2341 31.452 13.1558 30.8965 13.3042L14.1407 17.782Z" fill="#A5F04B"/>
<path d="M20.569 25.0408C20.0124 25.1813 19.4232 25.1062 18.9196 24.8307C18.4968 24.6083 18.1593 24.2526 17.9594 23.8187C17.7596 23.3848 17.7086 22.8971 17.8143 22.4312C17.9201 21.9654 18.1767 21.5475 18.5444 21.2426C18.912 20.9376 19.37 20.7626 19.8473 20.7448C19.9912 20.7271 20.1371 20.7337 20.2788 20.7641C20.4187 20.7716 20.5562 20.8031 20.6853 20.8575L21.0876 21.0193C21.4756 21.2267 21.7914 21.5473 21.9929 21.9384C22.1945 22.3296 22.2723 22.7728 22.216 23.2092C22.1597 23.6456 21.972 24.0545 21.6778 24.3816C21.3837 24.7088 20.9969 24.9387 20.569 25.0408Z" fill="#A5F04B"/>
<path d="M28.9443 22.8028C28.5289 22.9163 28.0891 22.9037 27.681 22.7663C27.2728 22.6289 26.9148 22.3731 26.6526 22.0314C26.3904 21.6898 26.2358 21.2778 26.2086 20.848C26.1814 20.4181 26.2828 19.9899 26.4999 19.618C26.643 19.3705 26.8335 19.1536 27.0604 18.9797C27.2873 18.8058 27.5462 18.6783 27.8224 18.6045C28.0985 18.5307 28.3866 18.512 28.67 18.5496C28.9534 18.5871 29.2266 18.6801 29.4741 18.8232C29.7216 18.9663 29.9384 19.1568 30.1123 19.3837C30.2862 19.6107 30.4137 19.8697 30.4875 20.1459C30.5613 20.4221 30.58 20.7102 30.5426 20.9936C30.5051 21.2771 30.4121 21.5503 30.269 21.7978C30.1913 21.9202 30.1016 22.0344 30.0011 22.1388C29.9163 22.2503 29.8129 22.3463 29.6954 22.4225C29.5877 22.5196 29.4646 22.598 29.3311 22.6545L28.9443 22.8028Z" fill="#A5F04B"/>
<path d="M21.9598 13.4472C21.4043 13.5957 20.8126 13.5173 20.3148 13.2295C19.817 12.9416 19.4539 12.4677 19.3055 11.9121L18.7456 9.8173C18.5972 9.26171 18.6754 8.66991 18.9633 8.17209C19.2511 7.67426 19.7248 7.31119 20.2803 7.16274C20.8358 7.01429 21.4275 7.09263 21.9253 7.38052C22.4231 7.66841 22.7861 8.14226 22.9346 8.69785L23.4944 10.7927C23.6429 11.3483 23.5646 11.9401 23.2768 12.4379C22.989 12.9357 22.5153 13.2988 21.9598 13.4472Z" fill="#A5F04B"/>
<path d="M25.7523 52.833C25.1969 52.9814 24.6051 52.9031 24.1074 52.6152C23.6096 52.3273 23.2465 51.8535 23.098 51.2979L21.4186 45.0134C21.2701 44.4578 21.3484 43.866 21.6362 43.3682C21.924 42.8703 22.3978 42.5073 22.9532 42.3588C23.5087 42.2104 24.1005 42.2887 24.5982 42.5766C25.096 42.8645 25.4591 43.3383 25.6075 43.8939L27.287 50.1784C27.4355 50.734 27.3572 51.3258 27.0694 51.8236C26.7816 52.3215 26.3078 52.6845 25.7523 52.833Z" fill="#A5F04B"/>
<path d="M38.3204 49.4743C37.7649 49.6228 37.1732 49.5444 36.6754 49.2565C36.1776 48.9687 35.8146 48.4948 35.6661 47.9392L33.9866 41.6547C33.8382 41.0991 33.9164 40.5073 34.2042 40.0095C34.492 39.5117 34.9658 39.1486 35.5213 39.0002C36.0768 38.8517 36.6685 38.93 37.1663 39.2179C37.6641 39.5058 38.0271 39.9797 38.1756 40.5353L39.855 46.8198C40.0035 47.3753 39.9252 47.9671 39.6374 48.465C39.3496 48.9628 38.8759 49.3259 38.3204 49.4743Z" fill="#A5F04B"/>
<path d="M36.6397 43.1901L24.0729 46.5484C23.5174 46.6969 22.9257 46.6185 22.4279 46.3306C21.9301 46.0428 21.5671 45.569 21.4186 45.0134L18.0597 32.4443C17.9112 31.8887 17.9895 31.2969 18.2773 30.7991C18.5651 30.3013 19.0388 29.9382 19.5943 29.7898L32.1612 26.4314C32.7167 26.283 33.3084 26.3613 33.8062 26.6492C34.304 26.9371 34.667 27.4109 34.8155 27.9665L38.1756 40.5353C38.3241 41.0909 38.2446 41.6829 37.9568 42.1807C37.669 42.6786 37.1952 43.0416 36.6397 43.1901ZM25.0477 41.799L33.4256 39.5601L31.1863 31.1808L22.8084 33.4197L25.0477 41.799Z" fill="#A5F04B"/>
<path d="M14.2152 44.7703C13.8281 44.8725 13.4203 44.8655 13.0369 44.75C12.6535 44.6346 12.3096 44.4152 12.0432 44.1163C11.6626 43.6879 11.467 43.1263 11.4991 42.5542C11.5312 41.982 11.7885 41.4459 12.2147 41.0629L19.4729 34.6344C19.68 34.4199 19.9291 34.2505 20.2047 34.1366C20.4802 34.0228 20.7763 33.967 21.0743 33.9728C21.3724 33.9786 21.6661 34.0458 21.937 34.1702C22.208 34.2947 22.4504 34.4736 22.649 34.696C22.8477 34.9183 22.9984 35.1793 23.0916 35.4625C23.1849 35.7457 23.2188 36.0451 23.1911 36.342C23.1635 36.6389 23.0749 36.9269 22.931 37.1879C22.787 37.449 22.5907 37.6776 22.3544 37.8594L15.0962 44.288C14.8479 44.5205 14.5449 44.6864 14.2152 44.7703Z" fill="#A5F04B"/>
<path d="M44.1327 36.7682C43.8051 36.8599 43.4597 36.8673 43.1286 36.7896L33.631 34.8388C33.3355 34.7992 33.0514 34.699 32.7964 34.5445C32.5414 34.39 32.3209 34.1846 32.1489 33.9411C31.9768 33.6976 31.8568 33.4212 31.7964 33.1292C31.7359 32.8372 31.7364 32.5359 31.7976 32.2441C31.8589 31.9523 31.9797 31.6763 32.1524 31.4333C32.3252 31.1903 32.5462 30.9855 32.8016 30.8318C33.0571 30.6781 33.3415 30.5787 33.6371 30.5399C33.9327 30.5011 34.2331 30.5237 34.5196 30.6063L44.0171 32.5571C44.5775 32.6764 45.068 33.0127 45.3812 33.4925C45.6945 33.9724 45.8051 34.5567 45.6889 35.1178C45.6071 35.5098 45.4185 35.8715 45.1438 36.1628C44.8691 36.4541 44.5191 36.6636 44.1327 36.7682Z" fill="#A5F04B"/>
<path d="M13.0211 13.5924L11.5516 8.09351L13.0211 13.5924ZM37.7398 13.7199L43.2387 12.2504L37.7398 13.7199ZM39.9791 22.0992L45.4779 20.6297L39.9791 22.0992ZM20.569 25.0408L19.2482 19.5043L19.2121 19.5129L19.1761 19.522L20.569 25.0408ZM18.9196 24.8307L21.6512 19.8372L21.6104 19.8148L21.5691 19.7931L18.9196 24.8307ZM19.8473 20.7448L20.0601 26.4326L20.301 26.4236L20.5402 26.3943L19.8473 20.7448ZM20.2788 20.7641L19.0833 26.329L19.525 26.4239L19.9761 26.4479L20.2788 20.7641ZM20.6853 20.8575L18.4769 26.1035L18.5189 26.1211L18.5611 26.1381L20.6853 20.8575ZM21.0876 21.0193L23.7708 15.9996L23.4983 15.854L23.2117 15.7387L21.0876 21.0193ZM28.9443 22.8028L30.4458 28.293L30.718 28.2185L30.9815 28.1175L28.9443 22.8028ZM26.4999 19.618L31.4158 22.4871L31.4217 22.4769L31.4275 22.4668L26.4999 19.618ZM30.269 21.7978L35.0735 24.8497L35.1372 24.7494L35.1967 24.6466L30.269 21.7978ZM30.0011 22.1388L25.9 18.1918L25.6705 18.4303L25.4702 18.6938L30.0011 22.1388ZM29.6954 22.4225L26.5977 17.6474L26.2187 17.8933L25.8832 18.1959L29.6954 22.4225ZM29.3311 22.6545L31.3682 27.9693L31.4591 27.9345L31.5487 27.8965L29.3311 22.6545ZM21.9598 13.4472L23.4293 18.9461L21.9598 13.4472ZM20.2803 7.16274L18.8108 1.66388L20.2803 7.16274ZM23.098 51.2979L28.5969 49.8284L23.098 51.2979ZM21.4186 45.0134L26.9175 43.5439L21.4186 45.0134ZM18.0597 32.4443L23.5585 30.9748L18.0597 32.4443ZM34.8155 27.9665L29.3166 29.436L29.3168 29.4365L34.8155 27.9665ZM25.0477 41.799L19.5488 43.2685L21.0184 48.7674L26.5172 47.2979L25.0477 41.799ZM33.4256 39.5601L34.8951 45.059L40.394 43.5895L38.9245 38.0906L33.4256 39.5601ZM31.1863 31.1808L36.6852 29.7113L35.2157 24.2124L29.7168 25.6819L31.1863 31.1808ZM22.8084 33.4197L21.3389 27.9208L15.8401 29.3904L17.3096 34.8892L22.8084 33.4197ZM14.2152 44.7703L12.8116 39.2542L12.787 39.2605L12.7624 39.267L14.2152 44.7703ZM12.0432 44.1163L7.78857 47.8971L7.7936 47.9028L12.0432 44.1163ZM12.2147 41.0629L8.44083 36.802L8.42553 36.8156L8.41032 36.8293L12.2147 41.0629ZM19.4729 34.6344L23.2468 38.8953L23.4131 38.7479L23.5675 38.5881L19.4729 34.6344ZM22.3544 37.8594L18.8837 33.3482L18.7278 33.4681L18.5806 33.5985L22.3544 37.8594ZM15.0962 44.288L11.3223 40.0271L11.2631 40.0796L11.2053 40.1337L15.0962 44.288ZM44.1327 36.7682L42.6465 31.2738L42.6219 31.2804L42.5975 31.2873L44.1327 36.7682ZM43.1286 36.7896L44.4283 31.2482L44.3513 31.2301L44.2737 31.2142L43.1286 36.7896ZM33.631 34.8388L34.7762 29.2634L34.5836 29.2238L34.3886 29.1977L33.631 34.8388ZM34.5196 30.6063L32.9432 36.0755L33.1567 36.137L33.3744 36.1817L34.5196 30.6063ZM44.0171 32.5571L45.2023 26.99L45.1823 26.9857L45.1623 26.9816L44.0171 32.5571ZM45.6889 35.1178L51.2609 36.2796L51.2624 36.2722L45.6889 35.1178ZM35.3751 30.0629L33.9056 24.564L17.1497 29.0418L18.6193 34.5407L20.0888 40.0395L36.8446 35.5617L35.3751 30.0629ZM18.6193 34.5407L17.1497 29.0418C16.942 29.0973 16.7204 29.0681 16.5339 28.9602L13.6843 33.8874L10.8347 38.8145C13.6348 40.4339 16.9636 40.8747 20.0888 40.0395L18.6193 34.5407ZM13.6843 33.8874L16.5339 28.9602C16.3473 28.8523 16.211 28.6745 16.1552 28.4659L10.6564 29.9354L5.15749 31.4049C5.99257 34.5297 8.03462 37.1951 10.8347 38.8145L13.6843 33.8874ZM10.6564 29.9354L16.1552 28.4659L13.9159 20.0865L8.41708 21.556L2.91822 23.0255L5.15749 31.4049L10.6564 29.9354ZM8.41708 21.556L13.9159 20.0865C13.8602 19.8779 13.8896 19.6558 13.9975 19.4692L9.0699 16.6204L4.14228 13.7716C2.52333 16.572 2.08314 19.9007 2.91822 23.0255L8.41708 21.556ZM9.0699 16.6204L13.9975 19.4692C14.1054 19.2826 14.2828 19.1468 14.4906 19.0912L13.0211 13.5924L11.5516 8.09351C8.42639 8.92867 5.76124 10.9713 4.14228 13.7716L9.0699 16.6204ZM13.0211 13.5924L14.4906 19.0912L31.2464 14.6134L29.7769 9.11457L28.3074 3.6157L11.5516 8.09351L13.0211 13.5924ZM29.7769 9.11457L31.2464 14.6134C31.4542 14.5579 31.6757 14.5871 31.8623 14.695L34.7119 9.76789L37.5615 4.84075C34.7613 3.22131 31.4325 2.78054 28.3074 3.6157L29.7769 9.11457ZM34.7119 9.76789L31.8623 14.695C32.0489 14.803 32.1852 14.9807 32.2409 15.1894L37.7398 13.7199L43.2387 12.2504C42.4036 9.12554 40.3615 6.46017 37.5615 4.84075L34.7119 9.76789ZM37.7398 13.7199L32.2409 15.1894L34.4802 23.5687L39.9791 22.0992L45.4779 20.6297L43.2387 12.2504L37.7398 13.7199ZM39.9791 22.0992L34.4802 23.5687C34.536 23.7774 34.5065 23.9995 34.3986 24.1861L39.3263 27.0348L44.2539 29.8836C45.8728 27.0833 46.313 23.7545 45.4779 20.6297L39.9791 22.0992ZM39.3263 27.0348L34.3986 24.1861C34.2908 24.3726 34.1134 24.5085 33.9056 24.564L35.3751 30.0629L36.8446 35.5617C39.9698 34.7266 42.6349 32.684 44.2539 29.8836L39.3263 27.0348ZM14.1407 17.782L12.6712 12.2832C10.657 12.8214 8.93938 14.1379 7.89602 15.9426L12.8236 18.7914L17.7513 21.6402C17.2835 22.4492 16.5134 23.0395 15.6102 23.2809L14.1407 17.782ZM12.8236 18.7914L7.89602 15.9426C6.85269 17.7473 6.56904 19.8924 7.10718 21.9061L12.606 20.4366L18.1049 18.9671C18.3461 19.8696 18.219 20.8311 17.7513 21.6402L12.8236 18.7914ZM12.606 20.4366L7.10718 21.9061L9.34645 30.2854L14.8453 28.8159L20.3442 27.3464L18.1049 18.9671L12.606 20.4366ZM14.8453 28.8159L9.34645 30.2854C9.88459 32.2991 11.2005 34.0168 13.005 35.0604L15.8546 30.1332L18.7042 25.2061C19.5132 25.674 20.103 26.4439 20.3442 27.3464L14.8453 28.8159ZM15.8546 30.1332L13.005 35.0604C14.8096 36.104 16.9549 36.3881 18.9691 35.8499L17.4996 30.351L16.0301 24.8522C16.9333 24.6108 17.8952 24.7382 18.7042 25.2061L15.8546 30.1332ZM17.4996 30.351L18.9691 35.8499L35.725 31.3721L34.2555 25.8732L32.7859 20.3744L16.0301 24.8522L17.4996 30.351ZM34.2555 25.8732L35.725 31.3721C37.7391 30.8338 39.4568 29.5174 40.5001 27.7126L35.5725 24.8639L30.6449 22.0151C31.1126 21.206 31.8828 20.6157 32.7859 20.3744L34.2555 25.8732ZM35.5725 24.8639L40.5001 27.7126C41.5435 25.9079 41.8271 23.7628 41.289 21.7492L35.7901 23.2187L30.2912 24.6882C30.0501 23.7857 30.1772 22.8242 30.6449 22.0151L35.5725 24.8639ZM35.7901 23.2187L41.289 21.7492L39.0497 13.3698L33.5508 14.8393L28.052 16.3088L30.2912 24.6882L35.7901 23.2187ZM33.5508 14.8393L39.0497 13.3698C38.5116 11.3562 37.1957 9.63851 35.3911 8.59486L32.5415 13.522L29.6919 18.4491C28.883 17.9813 28.2932 17.2113 28.052 16.3088L33.5508 14.8393ZM32.5415 13.522L35.3911 8.59486C33.5866 7.5512 31.4412 7.2671 29.427 7.80536L30.8965 13.3042L32.366 18.8031C31.4629 19.0445 30.5009 18.917 29.6919 18.4491L32.5415 13.522ZM30.8965 13.3042L29.427 7.80536L12.6712 12.2832L14.1407 17.782L15.6102 23.2809L32.366 18.8031L30.8965 13.3042ZM20.569 25.0408L19.1761 19.522C20.0115 19.3112 20.8956 19.4238 21.6512 19.8372L18.9196 24.8307L16.1879 29.8242C17.9508 30.7886 20.0132 31.0514 21.9618 30.5596L20.569 25.0408ZM18.9196 24.8307L21.5691 19.7931C22.2562 20.1545 22.8045 20.7326 23.1292 21.4374L17.9594 23.8187L12.7897 26.1999C13.514 27.7726 14.7374 29.0621 16.27 29.8682L18.9196 24.8307ZM17.9594 23.8187L23.1292 21.4374C23.4539 22.1423 23.5367 22.9346 23.3649 23.6915L17.8143 22.4312L12.2638 21.1709C11.8804 22.8595 12.0653 24.6273 12.7897 26.1999L17.9594 23.8187ZM17.8143 22.4312L23.3649 23.6915C23.193 24.4484 22.776 25.1275 22.1784 25.6233L18.5444 21.2426L14.9103 16.8619C13.5775 17.9675 12.6472 19.4824 12.2638 21.1709L17.8143 22.4312ZM18.5444 21.2426L22.1784 25.6233C21.5808 26.1191 20.8361 26.4036 20.0601 26.4326L19.8473 20.7448L19.6345 15.0569C17.9039 15.1217 16.2432 15.7562 14.9103 16.8619L18.5444 21.2426ZM19.8473 20.7448L20.5402 26.3943C20.0543 26.4539 19.5619 26.4318 19.0833 26.329L20.2788 20.7641L21.4744 15.1993C20.7123 15.0355 19.9281 15.0004 19.1543 15.0953L19.8473 20.7448ZM20.2788 20.7641L19.9761 26.4479C19.4602 26.4204 18.953 26.3039 18.4769 26.1035L20.6853 20.8575L22.8936 15.6115C22.1594 15.3024 21.3771 15.1227 20.5816 15.0803L20.2788 20.7641ZM20.6853 20.8575L18.5611 26.1381L18.9634 26.2999L21.0876 21.0193L23.2117 15.7387L22.8094 15.5769L20.6853 20.8575ZM21.0876 21.0193L18.4044 26.039C17.7738 25.7019 17.2607 25.181 16.9333 24.5456L21.9929 21.9384L27.0525 19.3313C26.322 17.9136 25.1775 16.7515 23.7708 15.9996L21.0876 21.0193ZM21.9929 21.9384L16.9333 24.5456C16.6059 23.9102 16.4795 23.1902 16.5709 22.4812L22.216 23.2092L27.8611 23.9371C28.0651 22.3553 27.783 20.7489 27.0525 19.3313L21.9929 21.9384ZM22.216 23.2092L16.5709 22.4812C16.6623 21.7722 16.9673 21.1076 17.4455 20.5759L21.6778 24.3816L25.9102 28.1874C26.9767 27.0014 27.6571 25.5189 27.8611 23.9371L22.216 23.2092ZM21.6778 24.3816L17.4455 20.5759C17.9237 20.0441 18.5524 19.6703 19.2482 19.5043L20.569 25.0408L21.8898 30.5772C23.4414 30.2071 24.8437 29.3735 25.9102 28.1874L21.6778 24.3816ZM28.9443 22.8028L27.4428 17.3125C28.1182 17.1278 28.8332 17.1485 29.4966 17.3718L27.681 22.7663L25.8654 28.1608C27.3451 28.6588 28.9397 28.7049 30.4458 28.293L28.9443 22.8028ZM27.681 22.7663L29.4966 17.3718C30.16 17.5951 30.7418 18.0108 31.1678 18.5659L26.6526 22.0314L22.1374 25.497C23.0879 26.7353 24.3857 27.6627 25.8654 28.1608L27.681 22.7663ZM26.6526 22.0314L31.1678 18.5659C31.5938 19.121 31.8449 19.7903 31.8891 20.4886L26.2086 20.848L20.5282 21.2073C20.6267 22.7653 21.1869 24.2586 22.1374 25.497L26.6526 22.0314ZM26.2086 20.848L31.8891 20.4886C31.9333 21.1869 31.7686 21.8826 31.4158 22.4871L26.4999 19.618L21.5841 16.7489C20.7971 18.0973 20.4296 19.6494 20.5282 21.2073L26.2086 20.848ZM26.4999 19.618L31.4275 22.4668C31.1965 22.8664 30.889 23.2166 30.5226 23.4974L27.0604 18.9797L23.5981 14.462C22.7779 15.0906 22.0895 15.8746 21.5723 16.7692L26.4999 19.618ZM27.0604 18.9797L30.5226 23.4974C30.1562 23.7783 29.738 23.9842 29.2919 24.1034L27.8224 18.6045L26.3529 13.1057C25.3544 13.3725 24.4184 13.8334 23.5981 14.462L27.0604 18.9797ZM27.8224 18.6045L29.2919 24.1034C28.8458 24.2226 28.3806 24.2527 27.923 24.1922L28.67 18.5496L29.417 12.907C28.3925 12.7713 27.3513 12.8388 26.3529 13.1057L27.8224 18.6045ZM28.67 18.5496L27.923 24.1922C27.4652 24.1316 27.024 23.9814 26.6245 23.7503L29.4741 18.8232L32.3237 13.896C31.4292 13.3787 30.4415 13.0426 29.417 12.907L28.67 18.5496ZM29.4741 18.8232L26.6245 23.7503C26.225 23.5193 25.8749 23.2118 25.5942 22.8455L30.1123 19.3837L34.6305 15.922C34.002 15.1018 33.2182 14.4134 32.3237 13.896L29.4741 18.8232ZM30.1123 19.3837L25.5942 22.8455C25.3135 22.4791 25.1078 22.0611 24.9887 21.6154L30.4875 20.1459L35.9864 18.6764C35.7196 17.6782 35.2589 16.7423 34.6305 15.922L30.1123 19.3837ZM30.4875 20.1459L24.9887 21.6154C24.8695 21.1697 24.8394 20.7048 24.8999 20.2473L30.5426 20.9936L36.1852 21.74C36.3207 20.7156 36.2531 19.6746 35.9864 18.6764L30.4875 20.1459ZM30.5426 20.9936L24.8999 20.2473C24.9604 19.7898 25.1104 19.3486 25.3414 18.9491L30.269 21.7978L35.1967 24.6466C35.7138 23.752 36.0498 22.7644 36.1852 21.74L30.5426 20.9936ZM30.269 21.7978L25.4645 18.746C25.5908 18.5472 25.7367 18.3616 25.9 18.1918L30.0011 22.1388L34.1021 26.0857C34.4664 25.7072 34.7919 25.2931 35.0735 24.8497L30.269 21.7978ZM30.0011 22.1388L25.4702 18.6938C25.7828 18.2826 26.1643 17.9286 26.5977 17.6474L29.6954 22.4225L32.7931 27.1975C33.4615 26.7639 34.0498 26.2179 34.532 25.5838L30.0011 22.1388ZM29.6954 22.4225L25.8832 18.1959C26.2467 17.868 26.6625 17.6032 27.1134 17.4125L29.3311 22.6545L31.5487 27.8965C32.2667 27.5928 32.9287 27.1712 33.5076 26.6491L29.6954 22.4225ZM29.3311 22.6545L27.2939 17.3397L26.9071 17.488L28.9443 22.8028L30.9815 28.1175L31.3682 27.9693L29.3311 22.6545ZM21.9598 13.4472L20.4903 7.94837C21.3935 7.707 22.3554 7.83443 23.1644 8.30231L20.3148 13.2295L17.4652 18.1566C19.2697 19.2003 21.4151 19.4844 23.4293 18.9461L21.9598 13.4472ZM20.3148 13.2295L23.1644 8.30231C23.9733 8.77017 24.5631 9.54011 24.8043 10.4426L19.3055 11.9121L13.8066 13.3816C14.3447 15.3953 15.6607 17.113 17.4652 18.1566L20.3148 13.2295ZM19.3055 11.9121L24.8043 10.4426L24.2445 8.34779L18.7456 9.8173L13.2468 11.2868L13.8066 13.3816L19.3055 11.9121ZM18.7456 9.8173L24.2445 8.34779C24.4857 9.2503 24.3586 10.2118 23.8909 11.0209L18.9633 8.17209L14.0356 5.32332C12.9923 7.12801 12.7086 9.27313 13.2468 11.2868L18.7456 9.8173ZM18.9633 8.17209L23.8909 11.0209C23.4231 11.8299 22.653 12.4202 21.7498 12.6616L20.2803 7.16274L18.8108 1.66388C16.7966 2.20214 15.079 3.51858 14.0356 5.32332L18.9633 8.17209ZM20.2803 7.16274L21.7498 12.6616C20.8466 12.903 19.8847 12.7755 19.0757 12.3077L21.9253 7.38052L24.7749 2.45337C22.9703 1.40971 20.825 1.12561 18.8108 1.66388L20.2803 7.16274ZM21.9253 7.38052L19.0757 12.3077C18.2667 11.8398 17.6769 11.0699 17.4357 10.1674L22.9346 8.69785L28.4335 7.22834C27.8953 5.21467 26.5794 3.49701 24.7749 2.45337L21.9253 7.38052ZM22.9346 8.69785L17.4357 10.1674L17.9956 12.2622L23.4944 10.7927L28.9933 9.32317L28.4335 7.22834L22.9346 8.69785ZM23.4944 10.7927L17.9956 12.2622C17.7544 11.3597 17.8815 10.3982 18.3492 9.58912L23.2768 12.4379L28.2044 15.2867C29.2478 13.482 29.5314 11.3368 28.9933 9.32317L23.4944 10.7927ZM23.2768 12.4379L18.3492 9.58912C18.8169 8.78003 19.5871 8.18974 20.4903 7.94837L21.9598 13.4472L23.4293 18.9461C25.4434 18.4078 27.1611 17.0914 28.2044 15.2867L23.2768 12.4379ZM25.7523 52.833L24.2828 47.3341C25.186 47.0927 26.148 47.2202 26.957 47.6881L24.1074 52.6152L21.2578 57.5423C23.0623 58.586 25.2077 58.8701 27.2219 58.3318L25.7523 52.833ZM24.1074 52.6152L26.957 47.6881C27.7659 48.1559 28.3557 48.9259 28.5969 49.8284L23.098 51.2979L17.5992 52.7674C18.1373 54.7811 19.4532 56.4987 21.2578 57.5423L24.1074 52.6152ZM23.098 51.2979L28.5969 49.8284L26.9175 43.5439L21.4186 45.0134L15.9197 46.4829L17.5992 52.7674L23.098 51.2979ZM21.4186 45.0134L26.9175 43.5439C27.1586 44.4464 27.0315 45.4079 26.5638 46.2169L21.6362 43.3682L16.7086 40.5194C15.6652 42.3241 15.3816 44.4692 15.9197 46.4829L21.4186 45.0134ZM21.6362 43.3682L26.5638 46.2169C26.0961 47.026 25.3259 47.6163 24.4228 47.8577L22.9532 42.3588L21.4837 36.86C19.4696 37.3982 17.7519 38.7147 16.7086 40.5194L21.6362 43.3682ZM22.9532 42.3588L24.4228 47.8577C23.5196 48.0991 22.5577 47.9716 21.7486 47.5037L24.5982 42.5766L27.4478 37.6495C25.6433 36.6058 23.4979 36.3217 21.4837 36.86L22.9532 42.3588ZM24.5982 42.5766L21.7486 47.5037C20.9397 47.0359 20.3499 46.2659 20.1087 45.3634L25.6075 43.8939L31.1064 42.4244C30.5683 40.4108 29.2524 38.6931 27.4478 37.6495L24.5982 42.5766ZM25.6075 43.8939L20.1087 45.3634L21.7881 51.6479L27.287 50.1784L32.7859 48.7089L31.1064 42.4244L25.6075 43.8939ZM27.287 50.1784L21.7881 51.6479C21.547 50.7454 21.6741 49.7839 22.1418 48.9749L27.0694 51.8236L31.997 54.6724C33.0404 52.8677 33.324 50.7226 32.7859 48.7089L27.287 50.1784ZM27.0694 51.8236L22.1418 48.9749C22.6095 48.1658 23.3796 47.5755 24.2828 47.3341L25.7523 52.833L27.2219 58.3318C29.236 57.7936 30.9537 56.4771 31.997 54.6724L27.0694 51.8236ZM38.3204 49.4743L36.8509 43.9755C37.7541 43.7341 38.716 43.8615 39.525 44.3294L36.6754 49.2565L33.8258 54.1837C35.6303 55.2273 37.7757 55.5115 39.7899 54.9732L38.3204 49.4743ZM36.6754 49.2565L39.525 44.3294C40.334 44.7973 40.9238 45.5672 41.165 46.4697L35.6661 47.9392L30.1672 49.4087C30.7054 51.4224 32.0213 53.1401 33.8258 54.1837L36.6754 49.2565ZM35.6661 47.9392L41.165 46.4697L39.4855 40.1852L33.9866 41.6547L28.4878 43.1242L30.1672 49.4087L35.6661 47.9392ZM33.9866 41.6547L39.4855 40.1852C39.7267 41.0877 39.5996 42.0492 39.1319 42.8583L34.2042 40.0095L29.2766 37.1607C28.2333 38.9654 27.9496 41.1106 28.4878 43.1242L33.9866 41.6547ZM34.2042 40.0095L39.1319 42.8583C38.6641 43.6674 37.894 44.2577 36.9908 44.499L35.5213 39.0002L34.0518 33.5013C32.0376 34.0396 30.32 35.356 29.2766 37.1607L34.2042 40.0095ZM35.5213 39.0002L36.9908 44.499C36.0876 44.7404 35.1257 44.613 34.3167 44.1451L37.1663 39.2179L40.0159 34.2908C38.2113 33.2471 36.0659 32.963 34.0518 33.5013L35.5213 39.0002ZM37.1663 39.2179L34.3167 44.1451C33.5077 43.6772 32.9179 42.9073 32.6767 42.0048L38.1756 40.5353L43.6745 39.0658C43.1363 37.0521 41.8204 35.3344 40.0159 34.2908L37.1663 39.2179ZM38.1756 40.5353L32.6767 42.0048L34.3562 48.2893L39.855 46.8198L45.3539 45.3503L43.6745 39.0658L38.1756 40.5353ZM39.855 46.8198L34.3562 48.2893C34.115 47.3868 34.2421 46.4252 34.7098 45.6162L39.6374 48.465L44.5651 51.3137C45.6084 49.5091 45.892 47.3639 45.3539 45.3503L39.855 46.8198ZM39.6374 48.465L34.7098 45.6162C35.1776 44.8071 35.9477 44.2168 36.8509 43.9755L38.3204 49.4743L39.7899 54.9732C41.8041 54.4349 43.5217 53.1185 44.5651 51.3137L39.6374 48.465ZM36.6397 43.1901L35.1702 37.6912L22.6034 41.0496L24.0729 46.5484L25.5424 52.0473L38.1093 48.6889L36.6397 43.1901ZM24.0729 46.5484L22.6034 41.0496C23.5065 40.8082 24.4685 40.9356 25.2775 41.4035L22.4279 46.3306L19.5783 51.2578C21.3829 52.3015 23.5282 52.5855 25.5424 52.0473L24.0729 46.5484ZM22.4279 46.3306L25.2775 41.4035C26.0863 41.8713 26.6762 42.6412 26.9175 43.5439L21.4186 45.0134L15.9197 46.4829C16.4579 48.4968 17.7739 50.2143 19.5783 51.2578L22.4279 46.3306ZM21.4186 45.0134L26.9175 43.5439L23.5585 30.9748L18.0597 32.4443L12.5608 33.9138L15.9197 46.4829L21.4186 45.0134ZM18.0597 32.4443L23.5585 30.9748C23.7997 31.8773 23.6726 32.8389 23.2049 33.6479L18.2773 30.7991L13.3496 27.9503C12.3063 29.755 12.0227 31.9002 12.5608 33.9138L18.0597 32.4443ZM18.2773 30.7991L23.2049 33.6479C22.7371 34.457 21.967 35.0473 21.0638 35.2886L19.5943 29.7898L18.1248 24.2909C16.1106 24.8292 14.393 26.1456 13.3496 27.9503L18.2773 30.7991ZM19.5943 29.7898L21.0638 35.2886L33.6307 31.9303L32.1612 26.4314L30.6917 20.9326L18.1248 24.2909L19.5943 29.7898ZM32.1612 26.4314L33.6307 31.9303C32.7275 32.1717 31.7656 32.0442 30.9566 31.5763L33.8062 26.6492L36.6558 21.7221C34.8512 20.6784 32.7059 20.3943 30.6917 20.9326L32.1612 26.4314ZM33.8062 26.6492L30.9566 31.5763C30.1476 31.1085 29.5578 30.3385 29.3166 29.436L34.8155 27.9665L40.3144 26.497C39.7762 24.4833 38.4603 22.7657 36.6558 21.7221L33.8062 26.6492ZM34.8155 27.9665L29.3168 29.4365L32.6769 42.0053L38.1756 40.5353L43.6743 39.0653L40.3142 26.4965L34.8155 27.9665ZM38.1756 40.5353L32.6767 42.0048C32.4334 41.0943 32.5656 40.1338 33.0292 39.332L37.9568 42.1807L42.8844 45.0295C43.9236 43.232 44.2147 41.0874 43.6745 39.0658L38.1756 40.5353ZM37.9568 42.1807L33.0292 39.332C33.4969 38.5229 34.2671 37.9326 35.1702 37.6912L36.6397 43.1901L38.1093 48.6889C40.1234 48.1507 41.8411 46.8342 42.8844 45.0295L37.9568 42.1807ZM25.0477 41.799L26.5172 47.2979L34.8951 45.059L33.4256 39.5601L31.9561 34.0613L23.5782 36.3002L25.0477 41.799ZM33.4256 39.5601L38.9245 38.0906L36.6852 29.7113L31.1863 31.1808L25.6875 32.6503L27.9268 41.0296L33.4256 39.5601ZM31.1863 31.1808L29.7168 25.6819L21.3389 27.9208L22.8084 33.4197L24.2779 38.9186L32.6559 36.6797L31.1863 31.1808ZM22.8084 33.4197L17.3096 34.8892L19.5488 43.2685L25.0477 41.799L30.5466 40.3295L28.3073 31.9502L22.8084 33.4197ZM14.2152 44.7703L12.7624 39.267C13.3918 39.1008 14.0548 39.1123 14.678 39.2999L13.0369 44.75L11.3959 50.2002C12.7858 50.6187 14.2645 50.6441 15.6681 50.2736L14.2152 44.7703ZM13.0369 44.75L14.678 39.2999C15.3012 39.4875 15.8601 39.8441 16.2929 40.3298L12.0432 44.1163L7.7936 47.9028C8.75915 48.9864 10.0059 49.7816 11.3959 50.2002L13.0369 44.75ZM12.0432 44.1163L16.2979 40.3354C16.9163 41.0314 17.2341 41.9437 17.182 42.8732L11.4991 42.5542L5.8162 42.2352C5.69978 44.3089 6.40887 46.3445 7.78858 47.8971L12.0432 44.1163ZM11.4991 42.5542L17.182 42.8732C17.1298 43.8027 16.7118 44.674 16.019 45.2966L12.2147 41.0629L8.41032 36.8293C6.86513 38.2178 5.93262 40.1614 5.8162 42.2352L11.4991 42.5542ZM12.2147 41.0629L15.9885 45.3238L23.2468 38.8953L19.4729 34.6344L15.6991 30.3735L8.44083 36.802L12.2147 41.0629ZM19.4729 34.6344L23.5675 38.5881C23.2308 38.9367 22.8259 39.2122 22.3779 39.3972L20.2047 34.1366L18.0315 28.876C17.0324 29.2887 16.1292 29.9031 15.3784 30.6807L19.4729 34.6344ZM20.2047 34.1366L22.3779 39.3972C21.9299 39.5823 21.4485 39.673 20.9639 39.6636L21.0743 33.9728L21.1848 28.2821C20.104 28.2611 19.0305 28.4633 18.0315 28.876L20.2047 34.1366ZM21.0743 33.9728L20.9639 39.6636C20.4793 39.6542 20.0019 39.5449 19.5616 39.3427L21.937 34.1702L24.3125 28.9978C23.3303 28.5467 22.2655 28.303 21.1848 28.2821L21.0743 33.9728ZM21.937 34.1702L19.5616 39.3427C19.1212 39.1404 18.7274 38.8496 18.4046 38.4883L22.649 34.696L26.8935 30.9037C26.1734 30.0977 25.2947 29.4489 24.3125 28.9978L21.937 34.1702ZM22.649 34.696L18.4046 38.4883C18.0818 38.127 17.837 37.7031 17.6855 37.2431L23.0916 35.4625L28.4978 33.6819C28.1597 32.6554 27.6136 31.7096 26.8935 30.9037L22.649 34.696ZM23.0916 35.4625L17.6855 37.2431C17.534 36.783 17.4789 36.2966 17.5238 35.8142L23.1911 36.342L28.8585 36.8697C28.9587 35.7936 28.8359 34.7084 28.4978 33.6819L23.0916 35.4625ZM23.1911 36.342L17.5238 35.8142C17.5687 35.3319 17.7127 34.8639 17.9466 34.4396L22.931 37.1879L27.9153 39.9363C28.4372 38.9898 28.7583 37.9458 28.8585 36.8697L23.1911 36.342ZM22.931 37.1879L17.9466 34.4396C18.1806 34.0153 18.4996 33.6437 18.8837 33.3482L22.3544 37.8594L25.8252 42.3706C26.6819 41.7115 27.3934 40.8828 27.9153 39.9363L22.931 37.1879ZM22.3544 37.8594L18.5806 33.5985L11.3223 40.0271L15.0962 44.288L18.87 48.5489L26.1283 42.1203L22.3544 37.8594ZM15.0962 44.288L11.2053 40.1337C11.658 39.7097 12.2105 39.4072 12.8116 39.2542L14.2152 44.7703L15.6188 50.2863C16.8792 49.9656 18.0378 49.3313 18.987 48.4423L15.0962 44.288ZM44.1327 36.7682L42.5975 31.2873C43.1947 31.12 43.8245 31.1065 44.4283 31.2482L43.1286 36.7896L41.8288 42.331C43.0949 42.628 44.4156 42.5998 45.6679 42.249L44.1327 36.7682ZM43.1286 36.7896L44.2737 31.2142L34.7762 29.2634L33.631 34.8388L32.4858 40.4143L41.9834 42.365L43.1286 36.7896ZM33.631 34.8388L34.3886 29.1977C34.869 29.2622 35.3308 29.4251 35.7453 29.6761L32.7964 34.5445L29.8475 39.4129C30.772 39.9728 31.8021 40.3361 32.8734 40.48L33.631 34.8388ZM32.7964 34.5445L35.7453 29.6761C36.1597 29.9272 36.5179 30.2609 36.7974 30.6566L32.1489 33.9411L27.5003 37.2256C28.124 38.1083 28.923 38.8529 29.8475 39.4129L32.7964 34.5445ZM32.1489 33.9411L36.7974 30.6566C37.077 31.0522 37.2719 31.5012 37.3701 31.9755L31.7964 33.1292L26.2227 34.2829C26.4417 35.3412 26.8767 36.3429 27.5003 37.2256L32.1489 33.9411ZM31.7964 33.1292L37.3701 31.9755C37.4683 32.4499 37.4676 32.9394 37.368 33.4135L31.7976 32.2441L26.2272 31.0747C26.0052 32.1324 26.0036 33.2246 26.2227 34.2829L31.7964 33.1292ZM31.7976 32.2441L37.368 33.4135C37.2685 33.8877 37.0722 34.3362 36.7915 34.7311L32.1524 31.4333L27.5134 28.1354C26.8871 29.0163 26.4493 30.0169 26.2272 31.0747L31.7976 32.2441ZM32.1524 31.4333L36.7915 34.7311C36.5107 35.1261 36.1515 35.4589 35.7362 35.7088L32.8016 30.8318L29.8671 25.9548C28.9409 26.5121 28.1396 27.2544 27.5134 28.1354L32.1524 31.4333ZM32.8016 30.8318L35.7362 35.7088C35.3208 35.9587 34.8584 36.1203 34.3779 36.1833L33.6371 30.5399L32.8963 24.8965C31.8245 25.0372 30.7933 25.3974 29.8671 25.9548L32.8016 30.8318ZM33.6371 30.5399L34.3779 36.1833C33.8973 36.2464 33.4089 36.2097 32.9432 36.0755L34.5196 30.6063L36.0959 25.1371C35.0573 24.8377 33.9681 24.7558 32.8963 24.8965L33.6371 30.5399ZM34.5196 30.6063L33.3744 36.1817L42.872 38.1325L44.0171 32.5571L45.1623 26.9816L35.6647 25.0308L34.5196 30.6063ZM44.0171 32.5571L42.8319 38.1241C41.9209 37.9302 41.124 37.3835 40.6151 36.6039L45.3812 33.4925L50.1474 30.3811C49.0119 28.6419 47.2342 27.4226 45.2023 26.99L44.0171 32.5571ZM45.3812 33.4925L40.6151 36.6039C40.1062 35.8244 39.9265 34.8751 40.1153 33.9635L45.6889 35.1178L51.2624 36.2722C51.6836 34.2383 51.2828 32.1204 50.1474 30.3811L45.3812 33.4925ZM45.6889 35.1178L40.1168 33.9561C40.2496 33.3192 40.5562 32.7314 41.0027 32.2579L45.1438 36.1628L49.2849 40.0677C50.2807 39.0116 50.9646 37.7005 51.2609 36.2796L45.6889 35.1178ZM45.1438 36.1628L41.0027 32.2579C41.4492 31.7844 42.0181 31.4437 42.6465 31.2738L44.1327 36.7682L45.6188 42.2625C47.0201 41.8835 48.289 41.1238 49.2849 40.0677L45.1438 36.1628Z" fill="white" mask="url(#path-1-outside-1_1_443)"/>
</g>
<defs>
<filter id="filter0_d_1_443" x="0.227906" y="0.259094" width="53.4746" height="61.7544" filterUnits="userSpaceOnUse" color-interpolation-filters="sRGB">
<feFlood flood-opacity="0" result="BackgroundImageFix"/>
<feColorMatrix in="SourceAlpha" type="matrix" values="0 0 0 0 0 0 0 0 0 0 0 0 0 0 0 0 0 0 127 0" result="hardAlpha"/>
<feOffset dy="1.13837"/>
<feGaussianBlur stdDeviation="1.13837"/>
<feComposite in2="hardAlpha" operator="out"/>
<feColorMatrix type="matrix" values="0 0 0 0 0 0 0 0 0 0 0 0 0 0 0 0 0 0 0.1 0"/>
<feBlend mode="normal" in2="BackgroundImageFix" result="effect1_dropShadow_1_443"/>
<feBlend mode="normal" in="SourceGraphic" in2="effect1_dropShadow_1_443" result="shape"/>
</filter>
</defs>
</svg>
