<svg width="63" height="63" viewBox="0 0 63 63" fill="none" xmlns="http://www.w3.org/2000/svg">
<g filter="url(#filter0_d_1_442)">
<path d="M25.7177 23.637L15.0992 28.2614L23.9141 35.7349L24.999 47.2579L34.8479 41.1562L46.1353 43.653L43.4071 32.4103L49.2984 22.4285L37.7652 21.5822L30.1179 12.9168L25.7177 23.637ZM35.4566 26.2237L41.2487 26.6481L38.29 31.6602L39.6609 37.3034L33.9929 36.052L29.0474 39.1136L28.5027 33.3295L24.0775 29.5768L29.4082 27.2553L31.6177 21.8707L35.4566 26.2237Z" fill="#333333"/>
<path d="M27.3448 11.7829L23.4099 21.372L13.9092 25.5097L9.48237 27.4376L13.157 30.5536L21.0434 37.2388L22.0136 47.5476L22.4659 52.3524L26.5718 49.8085L35.3829 44.35L45.4804 46.5835L50.1867 47.6245L49.049 42.9365L46.6088 32.8785L51.879 23.9493L54.3356 19.7876L49.5258 19.435L39.2082 18.6775L32.3679 10.9262L29.1794 7.31322L27.3448 11.7829ZM33.206 28.2139L34.0126 29.1284L35.2296 29.2171L36.2118 29.2883L35.7097 30.1387L35.088 31.1919L35.3766 32.377L35.609 33.333L34.6467 33.1207L33.4582 32.8587L32.421 33.5003L31.5812 34.0199L31.4883 33.0392L31.3741 31.8253L30.4449 31.0367L29.6946 30.3999L30.5982 30.007L31.7177 29.5199L32.1817 28.3886L32.5565 27.4757L33.206 28.2139Z" stroke="white" stroke-width="6"/>
</g>
<defs>
<filter id="filter0_d_1_442" x="0.639805" y="0.0974905" width="61.9574" height="62.1872" filterUnits="userSpaceOnUse" color-interpolation-filters="sRGB">
<feFlood flood-opacity="0" result="BackgroundImageFix"/>
<feColorMatrix in="SourceAlpha" type="matrix" values="0 0 0 0 0 0 0 0 0 0 0 0 0 0 0 0 0 0 127 0" result="hardAlpha"/>
<feOffset dy="1.61247"/>
<feGaussianBlur stdDeviation="1.61247"/>
<feComposite in2="hardAlpha" operator="out"/>
<feColorMatrix type="matrix" values="0 0 0 0 0 0 0 0 0 0 0 0 0 0 0 0 0 0 0.15 0"/>
<feBlend mode="normal" in2="BackgroundImageFix" result="effect1_dropShadow_1_442"/>
<feBlend mode="normal" in="SourceGraphic" in2="effect1_dropShadow_1_442" result="shape"/>
</filter>
</defs>
</svg>
