<svg width="400" height="261" viewBox="0 0 400 261" fill="none" xmlns="http://www.w3.org/2000/svg">
<g opacity="0.5">
<path d="M141.747 311.463C135.509 248.126 123.212 185.641 119.746 121.998C114.626 63.8349 131.392 45.434 184.72 36.0199C295.844 17.6449 341.822 0.755361 352.193 142.893C356.596 184.77 361.962 226.475 369.287 267.894C374.457 303.439 381.232 339.67 376.627 375.714C373.048 411.537 338.347 418.46 310.278 421.28C283.279 424.452 256.23 427.207 229.169 429.745C142.091 442.634 150.684 379.318 141.877 311.445C141.834 311.451 141.79 311.457 141.747 311.463ZM163.68 303.611C163.95 303.576 164.221 303.541 164.492 303.506C166.082 320.734 167.436 337.992 169.354 355.178C172.121 375.563 173.123 404.16 197.729 406.489C242.901 407.726 288.161 399.602 332.895 393.288C365.327 389.08 355.349 344.896 354.112 320.643C348.841 278.918 341.62 237.471 335.397 195.893C328.227 154.741 326.062 112.183 314.413 72.0981C303.192 33.6774 256.474 49.6486 228.152 50.8184C203.498 53.8228 178.459 58.1882 155.399 68.4117C145.634 72.522 142.461 85.034 142.128 95.2239C142.626 165.354 156.919 234.048 163.68 303.611Z" fill="white"/>
<path d="M387.055 120.509C373.981 123.24 368.621 108.943 378.149 101.827C399.097 90.8336 421.698 83.1956 443.431 74.0113C457.341 67.916 467.295 87.1998 453.638 95.0835C449.737 97.0299 445.556 98.3603 441.476 99.8937C423.973 106.536 404.074 113.68 387.055 120.509Z" fill="white"/>
<path d="M93.433 244.248C93.9608 249.309 91.432 252.894 87.9648 255.651C71.6757 268.602 53.9759 279.437 36.5012 290.449C23.7427 296.984 14.2872 280.207 25.9405 271.466C41.0068 261.407 56.416 251.857 71.6433 242.054C78.9109 236.667 90.9685 230.7 93.433 244.248Z" fill="white"/>
<path d="M83.367 121.007C80.663 120.659 77.7209 120.923 75.294 119.862C59.9307 112.066 42.4465 107.423 28.5798 96.9641C20.7142 88.8482 28.3977 74.2498 39.0265 76.7785C53.01 82.1545 66.104 90.2223 79.6644 96.7566C90.757 100.625 96.004 114.832 83.367 121.007Z" fill="white"/>
<path d="M431.896 177.969C433.46 186.962 423.847 193.958 416.636 189.742C408.217 184.506 400.373 178.101 392.47 172.023C377.461 161.04 391.017 142.488 405.154 154.603C412.079 159.27 418.915 164.087 425.815 168.797C429.143 171.07 431.506 173.978 431.896 177.969Z" fill="white"/>
<path d="M83.3545 191.889C74.2335 193.639 63.9739 193.361 54.621 194.045C42.846 195.193 37.2504 179.181 48.8636 173.93C50.3308 173.337 51.9563 172.89 53.5117 172.884C63.4779 173.271 73.6945 172.053 83.5324 173.773C91.9231 176.488 92.4086 188.662 83.3545 191.889Z" fill="white"/>
<path d="M372.856 55.278C364.213 55.9682 360.18 46.2193 364.321 39.1047C369.1 31.597 371.883 18.1655 382.257 18.3841C388.767 18.628 393.566 26.191 390.407 32.5883C387.002 39.4854 382.4 45.7503 378.005 52.0444C376.912 53.611 374.605 54.2257 372.856 55.278Z" fill="white"/>
<path d="M209.35 73.3584C236.892 71.3878 264.435 69.4142 291.977 67.4432C298.921 66.963 303.888 70.4416 306.209 77.0224C318.534 117.607 319.469 161.185 326.762 203.013C330.489 228.968 333.865 255.033 339.332 280.654C342.702 300.319 347.242 330.29 324.538 338.119C289.617 350.957 252.585 354.249 216.295 360.257C210.013 361.124 203.525 361.125 197.196 360.618C189.432 359.995 185.874 355.501 184.7 347.342C181.655 333.877 180.318 320.204 179.237 306.43C173.54 261.527 167.617 216.654 162.228 171.706C157.25 107.226 130.885 82.5894 209.355 73.8995C209.354 73.7193 209.352 73.539 209.35 73.3584ZM178.043 158.534C179.454 164.476 181.223 172.585 183.331 180.593C186.345 193.131 202.824 189.714 200.678 176.486C198.527 158.608 197.627 140.629 196.847 122.635C196.527 115.98 192.068 110.81 186.547 110.843C179.951 110.741 175.656 116.719 175.98 124.064C176.617 134.796 177.263 145.527 178.043 158.534Z" fill="white"/>
</g>
</svg>
