<svg width="247" height="8" viewBox="0 0 247 8" fill="none" xmlns="http://www.w3.org/2000/svg">
<path d="M0.1 4L0.19721 2.00236L0.148634 2H0.1L0.1 4ZM1.55 4.07056L1.45279 6.0682L1.55 4.07056ZM3.75 3.99159L3.35896 2.03019L3.75 3.99159ZM6.75 3.683L6.38305 5.64904L6.75 3.683ZM8.25 3.96296L7.88305 5.92901L8.25 3.96296ZM9.75 4.31676L9.20167 6.24012L9.75 4.31676ZM15.75 3.80786L15.8888 5.80304L15.75 3.80786ZM16.5 3.75567L16.3612 1.7605L16.5 3.75567ZM17.25 3.70349L17.1112 1.70831L17.25 3.70349ZM23.25 4.64409L22.5806 6.52876L23.25 4.64409ZM26.25 4.55282L25.936 2.57762L26.25 4.55282ZM27.75 4.62335L27.2595 6.56226L27.75 4.62335ZM32.25 4.71059L32.6689 6.66622L32.25 4.71059ZM33.75 4.34406L33.2206 2.4154L33.75 4.34406ZM35.25 3.93233L35.7794 5.86099L35.25 3.93233ZM36.75 3.7036L36.689 1.70452L36.75 3.7036ZM37.5 3.68073L37.439 1.68166L37.5 3.68073ZM42.75 4.19393L42.0004 6.04816L42.75 4.19393ZM44.25 4.80029L44.9996 2.94607L44.25 4.80029ZM45.75 5.07561L45.6758 3.07699L45.75 5.07561ZM48.75 4.4784L47.6199 2.82827L48.75 4.4784ZM50.25 3.45113L51.3801 5.10126L50.25 3.45113ZM51.75 3.09348L51.3428 5.05158L51.75 3.09348ZM53.25 3.40543L53.6572 1.44733L53.25 3.40543ZM56.25 4.05216L55.8238 6.00622L56.25 4.05216ZM57.75 4.15337L57.5842 2.16025L57.75 4.15337ZM63.75 3.49418L64.7255 1.7482L63.75 3.49418ZM65.25 4.33222L66.2255 2.58624L65.25 4.33222ZM69.75 3.66824L68.8558 5.4572L69.75 3.66824ZM70.5 4.04312L69.6058 5.83209L70.5 4.04312ZM71.25 4.41801L72.1442 2.62904L71.25 4.41801ZM74.25 4.47641L73.9714 2.4959L74.25 4.47641ZM75.75 4.08206L75.0312 2.21569L75.75 4.08206ZM77.25 3.50435L77.9688 5.37071L77.25 3.50435ZM84.75 3.48943L84.3258 5.44393L84.75 3.48943ZM86.25 3.81497L86.6742 1.86047L86.25 3.81497ZM90.75 4.62368L89.6486 2.95429L90.75 4.62368ZM92.25 3.63402L93.3514 5.30341L92.25 3.63402ZM98.25 5.03417L98.1555 3.0364L98.25 5.03417ZM99.75 5.03994L99.6402 7.03692L99.75 5.03994ZM102.75 5.16728L102.74 7.16726L102.75 5.16728ZM105.75 4.70254L104.679 3.01341L105.75 4.70254ZM107.25 3.75155L108.321 5.44068L107.25 3.75155ZM108.75 3.37029L108.999 1.38589L108.75 3.37029ZM109.5 3.46452L109.251 5.44892L109.5 3.46452ZM113.25 4.54711L112.511 6.40573L113.25 4.54711ZM114.75 4.51297L113.94 2.68431L114.75 4.51297ZM116.25 3.84861L117.06 5.67727L116.25 3.84861ZM117.75 3.70375L117.265 5.64414L117.75 3.70375ZM119.25 4.07838L118.765 6.01878L119.25 4.07838ZM120.75 4.04588L120.187 2.12662L120.75 4.04588ZM122.25 3.60624L122.813 5.52551L122.25 3.60624ZM123.75 3.63224L124.373 1.73171L123.75 3.63224ZM125.25 4.12387L124.627 6.02439L125.25 4.12387ZM126.75 3.98221L125.832 2.20533L126.75 3.98221ZM128.25 3.20726L127.332 1.43038L128.25 3.20726ZM129.75 3.30817L130.841 1.6322L129.75 3.30817ZM131.25 4.28495L130.159 5.96093L131.25 4.28495ZM132.75 4.56735L133.28 6.49594L132.75 4.56735ZM133.5 4.36137L132.97 2.43279L133.5 4.36137ZM134.25 4.15539L133.72 2.2268L134.25 4.15539ZM135.75 4.01336L135.58 6.00613L135.75 4.01336ZM137.25 4.14129L137.42 2.14852L137.25 4.14129ZM138.75 4.07419L139.094 6.04434L138.75 4.07419ZM140.25 3.81208L139.906 1.84193L140.25 3.81208ZM141.75 4.04295L142.619 2.24171L141.75 4.04295ZM143.25 4.76679L142.381 6.56803L143.25 4.76679ZM144.75 4.99306L144.394 3.02499L144.75 4.99306ZM146.25 4.72175L146.606 6.68982L146.25 4.72175ZM149.25 4.56895L149.235 2.569L149.25 4.56895ZM150.75 4.15714L151.702 5.91588L150.75 4.15714ZM152.25 3.34496L151.298 1.58622L152.25 3.34496ZM155.25 2.9909L155.204 4.99036L155.25 2.9909ZM156.75 3.40528L155.814 5.17288L156.75 3.40528ZM158.25 4.19935L159.186 2.43175L158.25 4.19935ZM159.75 4.34457L160.387 6.24056L159.75 4.34457ZM161.25 3.84096L160.613 1.94497L161.25 3.84096ZM162.75 3.70039L163.043 1.72203L162.75 3.70039ZM164.25 3.92287L163.957 5.90123L164.25 3.92287ZM165.75 4.3143L165.05 6.18783L165.75 4.3143ZM167.25 4.87467L167.95 3.00114L167.25 4.87467ZM168.75 4.75606L169.689 6.52193L168.75 4.75606ZM170.25 3.95845L169.311 2.19258L170.25 3.95845ZM171.75 3.73671L172.21 1.79022L171.75 3.73671ZM173.25 4.09083L172.79 6.03732L173.25 4.09083ZM174.75 4.39961L174.404 6.36946L174.75 4.39961ZM176.25 4.66305L176.596 2.6932L176.25 4.66305ZM179.25 4.71158L179.176 2.71294L179.25 4.71158ZM180.75 4.28714L181.685 6.05506L180.75 4.28714ZM182.25 3.49374L181.315 1.72581L182.25 3.49374ZM183.75 3.55956L184.8 1.85725L183.75 3.55956ZM185.25 4.48462L184.2 6.18693L185.25 4.48462ZM186.75 4.53578L185.788 2.78223L186.75 4.53578ZM188.25 3.71305L189.212 5.4666L188.25 3.71305ZM189.75 3.71659L190.718 1.96654L189.75 3.71659ZM191.25 4.54641L190.282 6.29646L191.25 4.54641ZM192.75 4.83551L193.081 6.80795L192.75 4.83551ZM194.25 4.58388L193.919 2.61144L194.25 4.58388ZM195.75 4.40059L195.597 2.40644L195.75 4.40059ZM197.25 4.28564L197.403 6.2798L197.25 4.28564ZM198.75 4.41482L199.233 2.47403L198.75 4.41482ZM200.25 4.78813L199.767 6.72893L200.25 4.78813ZM201.75 4.83243L202.123 6.79734L201.75 4.83243ZM203.25 4.54771L202.877 2.58279L203.25 4.54771ZM204.75 4.15334L204.113 2.2575L204.75 4.15334ZM205.5 3.90134L204.863 2.0055L205.5 3.90134ZM206.25 3.64934L206.887 5.54518L206.25 3.64934ZM207.75 3.72181L208.544 1.88622L207.75 3.72181ZM209.25 4.37074L208.456 6.20633L209.25 4.37074ZM210.75 4.27291L211.731 6.01563L210.75 4.27291ZM212.25 3.4283L211.269 1.68557L212.25 3.4283ZM213.75 3.28419L214.446 1.40904L213.75 3.28419ZM215.25 3.84059L214.554 5.71574L215.25 3.84059ZM216.75 4.29041L216.304 6.24002L216.75 4.29041ZM218.25 4.63364L218.696 2.68403L218.25 4.63364ZM219.75 4.87284L219.93 2.88091L219.75 4.87284ZM221.25 5.00801L221.07 6.99994L221.25 5.00801ZM222.75 4.57027L223.868 6.22892L222.75 4.57027ZM224.25 3.55962L223.132 1.90098L224.25 3.55962ZM225.75 3.32537L225.07 5.20629L225.75 3.32537ZM227.25 3.86752L227.93 1.98661L227.25 3.86752ZM228.75 4.07648L228.915 6.06965L228.75 4.07648ZM230.25 3.95223L230.085 1.95906L230.25 3.95223ZM231.75 3.72821L232.172 5.68318L231.75 3.72821ZM232.5 3.56631L232.078 1.61134L232.5 3.56631ZM233.25 3.40441L232.828 1.44944L233.25 3.40441ZM234.75 3.20134L234.64 1.20434L234.75 3.20134ZM236.25 3.11899L236.36 5.11598L236.25 3.11899ZM237.75 3.31495L238.353 1.408L237.75 3.31495ZM239.25 3.78922L238.647 5.69617L239.25 3.78922ZM240.75 4.18661L241.168 2.23077L240.75 4.18661ZM242.25 4.50714L241.832 6.46298L242.25 4.50714ZM243.5 4.3119L244.659 5.9419L243.5 4.3119ZM244 3.9564L242.841 2.3264L244 3.9564ZM244.5 3.6009L243.341 1.9709L244.5 3.6009ZM245 3.6227L246.933 4.13509L247 3.88324V3.6227L245 3.6227ZM244.9 4L242.967 3.48761L242.301 6L244.9 6V4ZM0 4L0 6H0.1L0.1 4L0.1 2H0L0 4ZM0.1 4L0.0027904 5.99764L1.45279 6.0682L1.55 4.07056L1.64721 2.07292L0.19721 2.00236L0.1 4ZM1.55 4.07056L1.45279 6.0682C2.4647 6.11744 3.39534 6.10166 4.14104 5.95299L3.75 3.99159L3.35896 2.03019C3.10466 2.08089 2.56864 2.11776 1.64721 2.07292L1.55 4.07056ZM3.75 3.99159L4.14104 5.95299L4.89104 5.80347L4.5 3.84207L4.10896 1.88067L3.35896 2.03019L3.75 3.99159ZM4.5 3.84207L4.89104 5.80347L5.64104 5.65394L5.25 3.69254L4.85896 1.73114L4.10896 1.88067L4.5 3.84207ZM5.25 3.69254L5.64104 5.65394C5.89159 5.60399 6.13431 5.60262 6.38305 5.64904L6.75 3.683L7.11695 1.71695C6.36569 1.57673 5.60841 1.58172 4.85896 1.73114L5.25 3.69254ZM6.75 3.683L6.38305 5.64904L7.13305 5.78903L7.5 3.82298L7.86695 1.85693L7.11695 1.71695L6.75 3.683ZM7.5 3.82298L7.13305 5.78903L7.88305 5.92901L8.25 3.96296L8.61695 1.99691L7.86695 1.85693L7.5 3.82298ZM8.25 3.96296L7.88305 5.92901C8.32063 6.01068 8.76012 6.11424 9.20167 6.24012L9.75 4.31676L10.2983 2.39339C9.73988 2.23419 9.17937 2.10188 8.61695 1.99691L8.25 3.96296ZM9.75 4.31676L9.20167 6.24012L9.95167 6.45394L10.5 4.53057L11.0483 2.60721L10.2983 2.39339L9.75 4.31676ZM10.5 4.53057L9.95167 6.45394L10.7017 6.66775L11.25 4.74439L11.7983 2.82102L11.0483 2.60721L10.5 4.53057ZM11.25 4.74439L10.7017 6.66775C11.6184 6.9291 12.5509 6.88632 13.4375 6.56179L12.75 4.68366L12.0625 2.80554C11.9491 2.84706 11.8816 2.84476 11.7983 2.82102L11.25 4.74439ZM12.75 4.68366L13.4375 6.56179L14.1875 6.28725L13.5 4.40913L12.8125 2.531L12.0625 2.80554L12.75 4.68366ZM13.5 4.40913L14.1875 6.28725L14.9375 6.01271L14.25 4.13459L13.5625 2.25646L12.8125 2.531L13.5 4.40913ZM14.25 4.13459L14.9375 6.01271C15.272 5.89027 15.5876 5.824 15.8888 5.80304L15.75 3.80786L15.6112 1.81269C14.9124 1.86131 14.228 2.01286 13.5625 2.25646L14.25 4.13459ZM15.75 3.80786L15.8888 5.80304L16.6388 5.75085L16.5 3.75567L16.3612 1.7605L15.6112 1.81269L15.75 3.80786ZM16.5 3.75567L16.6388 5.75085L17.3888 5.69866L17.25 3.70349L17.1112 1.70831L16.3612 1.7605L16.5 3.75567ZM17.25 3.70349L17.3888 5.69866C17.7997 5.67007 18.2103 5.66904 18.6211 5.69556L18.75 3.69972L18.8789 1.70388C18.2897 1.66584 17.7003 1.66732 17.1112 1.70831L17.25 3.70349ZM18.75 3.69972L18.6211 5.69556L19.3711 5.74399L19.5 3.74814L19.6289 1.7523L18.8789 1.70388L18.75 3.69972ZM19.5 3.74814L19.3711 5.74399L20.1211 5.79241L20.25 3.79656L20.3789 1.80072L19.6289 1.7523L19.5 3.74814ZM20.25 3.79656L20.1211 5.79241C20.4261 5.8121 20.7445 5.87665 21.0806 5.99602L21.75 4.11135L22.4194 2.22669C21.7555 1.9909 21.0739 1.84559 20.3789 1.80072L20.25 3.79656ZM21.75 4.11135L21.0806 5.99602L21.8306 6.26239L22.5 4.37772L23.1694 2.49306L22.4194 2.22669L21.75 4.11135ZM22.5 4.37772L21.8306 6.26239L22.5806 6.52876L23.25 4.64409L23.9194 2.75943L23.1694 2.49306L22.5 4.37772ZM23.25 4.64409L22.5806 6.52876C23.38 6.81266 24.2177 6.90096 25.064 6.76645L24.75 4.79125L24.436 2.81604C24.2823 2.84049 24.12 2.83068 23.9194 2.75943L23.25 4.64409ZM24.75 4.79125L25.064 6.76645L25.814 6.64724L25.5 4.67203L25.186 2.69683L24.436 2.81604L24.75 4.79125ZM25.5 4.67203L25.814 6.64724L26.564 6.52802L26.25 4.55282L25.936 2.57762L25.186 2.69683L25.5 4.67203ZM26.25 4.55282L26.564 6.52802C26.791 6.49193 27.0173 6.50101 27.2595 6.56226L27.75 4.62335L28.2405 2.68444C27.4827 2.4927 26.709 2.45476 25.936 2.57762L26.25 4.55282ZM27.75 4.62335L27.2595 6.56226L28.0095 6.75201L28.5 4.81309L28.9905 2.87418L28.2405 2.68444L27.75 4.62335ZM28.5 4.81309L28.0095 6.75201L28.7595 6.94175L29.25 5.00284L29.7405 3.06392L28.9905 2.87418L28.5 4.81309ZM29.25 5.00284L28.7595 6.94175C29.5546 7.14292 30.3658 7.15958 31.1689 6.98755L30.75 5.03192L30.3311 3.07628C30.1342 3.11847 29.9454 3.11574 29.7405 3.06392L29.25 5.00284ZM30.75 5.03192L31.1689 6.98755L31.9189 6.82689L31.5 4.87125L31.0811 2.91562L30.3311 3.07628L30.75 5.03192ZM31.5 4.87125L31.9189 6.82689L32.6689 6.66622L32.25 4.71059L31.8311 2.75496L31.0811 2.91562L31.5 4.87125ZM32.25 4.71059L32.6689 6.66622C33.2065 6.55107 33.7433 6.41987 34.2794 6.27273L33.75 4.34406L33.2206 2.4154C32.7567 2.54275 32.2935 2.6559 31.8311 2.75496L32.25 4.71059ZM33.75 4.34406L34.2794 6.27273L35.0294 6.06686L34.5 4.1382L33.9706 2.20953L33.2206 2.4154L33.75 4.34406ZM34.5 4.1382L35.0294 6.06686L35.7794 5.86099L35.25 3.93233L34.7206 2.00367L33.9706 2.20953L34.5 4.1382ZM35.25 3.93233L35.7794 5.86099C36.1322 5.76416 36.475 5.71291 36.811 5.70267L36.75 3.7036L36.689 1.70452C36.025 1.72477 35.3678 1.82601 34.7206 2.00367L35.25 3.93233ZM36.75 3.7036L36.811 5.70267L37.561 5.6798L37.5 3.68073L37.439 1.68166L36.689 1.70452L36.75 3.7036ZM37.5 3.68073L37.561 5.6798L38.311 5.65693L38.25 3.65786L38.189 1.65879L37.439 1.68166L37.5 3.68073ZM38.25 3.65786L38.311 5.65693C38.7337 5.64404 39.1566 5.6556 39.5801 5.6917L39.75 3.69893L39.9199 1.70616C39.3434 1.65701 38.7663 1.64119 38.189 1.65879L38.25 3.65786ZM39.75 3.69893L39.5801 5.6917L40.3301 5.75564L40.5 3.76287L40.6699 1.7701L39.9199 1.70616L39.75 3.69893ZM40.5 3.76287L40.3301 5.75564L41.0801 5.81958L41.25 3.82681L41.4199 1.83403L40.6699 1.7701L40.5 3.76287ZM41.25 3.82681L41.0801 5.81958C41.3667 5.84401 41.6718 5.91533 42.0004 6.04816L42.75 4.19393L43.4996 2.3397C42.8282 2.06829 42.1333 1.89485 41.4199 1.83403L41.25 3.82681ZM42.75 4.19393L42.0004 6.04816L42.7504 6.35134L43.5 4.49711L44.2496 2.64288L43.4996 2.3397L42.75 4.19393ZM43.5 4.49711L42.7504 6.35134L43.5004 6.65452L44.25 4.80029L44.9996 2.94607L44.2496 2.64288L43.5 4.49711ZM44.25 4.80029L43.5004 6.65452C44.2412 6.95395 45.0211 7.10407 45.8242 7.07423L45.75 5.07561L45.6758 3.07699C45.4789 3.08431 45.2588 3.05088 44.9996 2.94607L44.25 4.80029ZM45.75 5.07561L45.8242 7.07423L46.5742 7.04637L46.5 5.04775L46.4258 3.04913L45.6758 3.07699L45.75 5.07561ZM46.5 5.04775L46.5742 7.04637L47.3242 7.01851L47.25 5.01989L47.1758 3.02127L46.4258 3.04913L46.5 5.04775ZM47.25 5.01989L47.3242 7.01851C48.275 6.98319 49.1344 6.63916 49.8801 6.12852L48.75 4.4784L47.6199 2.82827C47.3656 3.00247 47.225 3.01944 47.1758 3.02127L47.25 5.01989ZM48.75 4.4784L49.8801 6.12852L50.6301 5.61489L49.5 3.96476L48.3699 2.31464L47.6199 2.82827L48.75 4.4784ZM49.5 3.96476L50.6301 5.61489L51.3801 5.10126L50.25 3.45113L49.1199 1.801L48.3699 2.31464L49.5 3.96476ZM50.25 3.45113L51.3801 5.10126C51.4634 5.04419 51.4906 5.04398 51.4639 5.05037C51.4508 5.05348 51.4305 5.05673 51.4055 5.05711C51.3804 5.05749 51.3586 5.05488 51.3428 5.05158L51.75 3.09348L52.1572 1.13538C51.0255 0.90001 49.9785 1.21304 49.1199 1.801L50.25 3.45113ZM51.75 3.09348L51.3428 5.05158L52.0928 5.20756L52.5 3.24946L52.9072 1.29135L52.1572 1.13538L51.75 3.09348ZM52.5 3.24946L52.0928 5.20756L52.8428 5.36354L53.25 3.40543L53.6572 1.44733L52.9072 1.29135L52.5 3.24946ZM53.25 3.40543L52.8428 5.36354C53.3364 5.4662 53.8301 5.57138 54.3238 5.67906L54.75 3.725L55.1762 1.77094C54.6699 1.6605 54.1636 1.55264 53.6572 1.44733L53.25 3.40543ZM54.75 3.725L54.3238 5.67906L55.0738 5.84264L55.5 3.88858L55.9262 1.93452L55.1762 1.77094L54.75 3.725ZM55.5 3.88858L55.0738 5.84264L55.8238 6.00622L56.25 4.05216L56.6762 2.0981L55.9262 1.93452L55.5 3.88858ZM56.25 4.05216L55.8238 6.00622C56.5142 6.1568 57.2136 6.20488 57.9158 6.14649L57.75 4.15337L57.5842 2.16025C57.2864 2.18502 56.9858 2.16564 56.6762 2.0981L56.25 4.05216ZM57.75 4.15337L57.9158 6.14649L58.6658 6.08411L58.5 4.09099L58.3342 2.09787L57.5842 2.16025L57.75 4.15337ZM58.5 4.09099L58.6658 6.08411L59.4158 6.02173L59.25 4.02861L59.0842 2.0355L58.3342 2.09787L58.5 4.09099ZM59.25 4.02861L59.4158 6.02173C60.0579 5.96833 60.6931 5.84674 61.3195 5.66068L60.75 3.74347L60.1805 1.82625C59.8069 1.93722 59.4421 2.00573 59.0842 2.0355L59.25 4.02861ZM60.75 3.74347L61.3195 5.66068L62.0695 5.43792L61.5 3.5207L60.9305 1.60349L60.1805 1.82625L60.75 3.74347ZM61.5 3.5207L62.0695 5.43792L62.8195 5.21515L62.25 3.29793L61.6805 1.38072L60.9305 1.60349L61.5 3.5207ZM62.25 3.29793L62.8195 5.21515C62.818 5.21558 62.8078 5.21836 62.7906 5.21979C62.7733 5.22123 62.7558 5.2207 62.7405 5.21871C62.7256 5.21676 62.7193 5.21425 62.7231 5.21557C62.7274 5.21704 62.7445 5.22336 62.7745 5.24017L63.75 3.49418L64.7255 1.7482C63.8056 1.23428 62.7509 1.06278 61.6805 1.38072L62.25 3.29793ZM63.75 3.49418L62.7745 5.24017L63.5245 5.65919L64.5 3.9132L65.4755 2.16722L64.7255 1.7482L63.75 3.49418ZM64.5 3.9132L63.5245 5.65919L64.2745 6.07821L65.25 4.33222L66.2255 2.58624L65.4755 2.16722L64.5 3.9132ZM65.25 4.33222L64.2745 6.07821C65.3248 6.66498 66.5152 6.72455 67.6242 6.18561L66.75 4.38677L65.8758 2.58793C65.887 2.58248 65.9604 2.55261 66.0727 2.55669C66.1825 2.56068 66.2391 2.59384 66.2255 2.58624L65.25 4.33222ZM66.75 4.38677L67.6242 6.18561L68.3742 5.82114L67.5 4.0223L66.6258 2.22346L65.8758 2.58793L66.75 4.38677ZM67.5 4.0223L68.3742 5.82114L69.1242 5.45667L68.25 3.65783L67.3758 1.85899L66.6258 2.22346L67.5 4.0223ZM68.25 3.65783L69.1242 5.45667C69.1288 5.4544 69.0767 5.47878 68.9861 5.47815C68.896 5.47752 68.8467 5.45265 68.8558 5.4572L69.75 3.66824L70.6442 1.87927C69.5919 1.35329 68.4384 1.3426 67.3758 1.85899L68.25 3.65783ZM69.75 3.66824L68.8558 5.4572L69.6058 5.83209L70.5 4.04312L71.3942 2.25416L70.6442 1.87927L69.75 3.66824ZM70.5 4.04312L69.6058 5.83209L70.3558 6.20697L71.25 4.41801L72.1442 2.62904L71.3942 2.25416L70.5 4.04312ZM71.25 4.41801L70.3558 6.20697C71.1778 6.61785 72.0847 6.80067 73.0286 6.6679L72.75 4.6874L72.4714 2.70689C72.4153 2.71478 72.3222 2.71801 72.1442 2.62904L71.25 4.41801ZM72.75 4.6874L73.0286 6.6679L73.7786 6.5624L73.5 4.5819L73.2214 2.6014L72.4714 2.70689L72.75 4.6874ZM73.5 4.5819L73.7786 6.5624L74.5286 6.45691L74.25 4.47641L73.9714 2.4959L73.2214 2.6014L73.5 4.5819ZM74.25 4.47641L74.5286 6.45691C75.1881 6.36415 75.8355 6.19233 76.4688 5.94842L75.75 4.08206L75.0312 2.21569C74.6645 2.35693 74.3119 2.44801 73.9714 2.4959L74.25 4.47641ZM75.75 4.08206L76.4688 5.94842L77.2188 5.65957L76.5 3.7932L75.7812 1.92684L75.0312 2.21569L75.75 4.08206ZM76.5 3.7932L77.2188 5.65957L77.9688 5.37071L77.25 3.50435L76.5312 1.63799L75.7812 1.92684L76.5 3.7932ZM77.25 3.50435L77.9688 5.37071C77.9929 5.36144 78.0084 5.35766 78.0162 5.35611C78.0238 5.3546 78.027 5.35458 78.0275 5.35457C78.028 5.35456 78.0303 5.3545 78.0361 5.3555C78.0421 5.35653 78.0553 5.3593 78.0765 5.36691L78.75 3.4837L79.4235 1.6005C78.4679 1.25877 77.4738 1.27493 76.5312 1.63799L77.25 3.50435ZM78.75 3.4837L78.0765 5.36691L78.8265 5.63512L79.5 3.75191L80.1735 1.86871L79.4235 1.6005L78.75 3.4837ZM79.5 3.75191L78.8265 5.63512L79.5765 5.90333L80.25 4.02012L80.9235 2.13692L80.1735 1.86871L79.5 3.75191ZM80.25 4.02012L79.5765 5.90333C80.4855 6.22837 81.4367 6.24859 82.3605 5.95245L81.75 4.04792L81.1395 2.14338C81.0633 2.1678 81.0145 2.16949 80.9235 2.13692L80.25 4.02012ZM81.75 4.04792L82.3605 5.95245L83.1105 5.71204L82.5 3.8075L81.8895 1.90296L81.1395 2.14338L81.75 4.04792ZM82.5 3.8075L83.1105 5.71204L83.8605 5.47162L83.25 3.56708L82.6395 1.66254L81.8895 1.90296L82.5 3.8075ZM83.25 3.56708L83.8605 5.47162C84.0352 5.41563 84.1784 5.41194 84.3258 5.44393L84.75 3.48943L85.1742 1.53493C84.3216 1.34989 83.4648 1.39797 82.6395 1.66254L83.25 3.56708ZM84.75 3.48943L84.3258 5.44393L85.0758 5.6067L85.5 3.6522L85.9242 1.6977L85.1742 1.53493L84.75 3.48943ZM85.5 3.6522L85.0758 5.6067L85.8258 5.76947L86.25 3.81497L86.6742 1.86047L85.9242 1.6977L85.5 3.6522ZM86.25 3.81497L85.8258 5.76947C86.224 5.85588 86.6282 5.97609 87.0391 6.13234L87.75 4.26293L88.4609 2.39353C87.8718 2.16952 87.276 1.99109 86.6742 1.86047L86.25 3.81497ZM87.75 4.26293L87.0391 6.13234L87.7891 6.41753L88.5 4.54813L89.2109 2.67872L88.4609 2.39353L87.75 4.26293ZM88.5 4.54813L87.7891 6.41753L88.5391 6.70273L89.25 4.83332L89.9609 2.96391L89.2109 2.67872L88.5 4.54813ZM89.25 4.83332L88.5391 6.70273C89.719 7.15137 90.889 6.92804 91.8514 6.29307L90.75 4.62368L89.6486 2.95429C89.601 2.98566 89.6286 2.95597 89.7232 2.94275C89.7687 2.93639 89.817 2.93584 89.8638 2.94147C89.91 2.94702 89.9432 2.95721 89.9609 2.96391L89.25 4.83332ZM90.75 4.62368L91.8514 6.29307L92.6014 5.79824L91.5 4.12885L90.3986 2.45946L89.6486 2.95429L90.75 4.62368ZM91.5 4.12885L92.6014 5.79824L93.3514 5.30341L92.25 3.63402L91.1486 1.96463L90.3986 2.45946L91.5 4.12885ZM92.25 3.63402L93.3514 5.30341C93.3386 5.31187 93.2091 5.38877 92.9926 5.38797C92.7767 5.38717 92.6497 5.30973 92.6401 5.30328L93.75 3.63954L94.8599 1.9758C94.3503 1.63578 93.7233 1.39063 93.0074 1.388C92.2909 1.38536 91.6614 1.62628 91.1486 1.96463L92.25 3.63402ZM93.75 3.63954L92.6401 5.30328L93.3901 5.80363L94.5 4.1399L95.6099 2.47616L94.8599 1.9758L93.75 3.63954ZM94.5 4.1399L93.3901 5.80363L94.1401 6.30399L95.25 4.64025L96.3599 2.97651L95.6099 2.47616L94.5 4.1399ZM95.25 4.64025L94.1401 6.30399C94.9223 6.82586 95.8374 7.15054 96.8445 7.10289L96.75 5.10513L96.6555 3.10736C96.6482 3.10771 96.6303 3.10814 96.5921 3.09629C96.5505 3.0834 96.4732 3.0521 96.3599 2.97651L95.25 4.64025ZM96.75 5.10513L96.8445 7.10289L97.5945 7.06742L97.5 5.06965L97.4055 3.07188L96.6555 3.10736L96.75 5.10513ZM97.5 5.06965L97.5945 7.06742L98.3445 7.03194L98.25 5.03417L98.1555 3.0364L97.4055 3.07188L97.5 5.06965ZM98.25 5.03417L98.3445 7.03194C98.7764 7.01151 99.2082 7.01317 99.6402 7.03692L99.75 5.03994L99.8598 3.04296C99.2918 3.01172 98.7236 3.00953 98.1555 3.0364L98.25 5.03417ZM99.75 5.03994L99.6402 7.03692L100.39 7.07817L100.5 5.08119L100.61 3.08421L99.8598 3.04296L99.75 5.03994ZM100.5 5.08119L100.39 7.07817L101.14 7.11942L101.25 5.12244L101.36 3.12546L100.61 3.08421L100.5 5.08119ZM101.25 5.12244L101.14 7.11942C101.674 7.14876 102.207 7.16471 102.74 7.16726L102.75 5.16728L102.76 3.1673C102.293 3.16507 101.826 3.15113 101.36 3.12546L101.25 5.12244ZM102.75 5.16728L102.74 7.16726L103.49 7.17084L103.5 5.17087L103.51 3.17089L102.76 3.1673L102.75 5.16728ZM103.5 5.17087L103.49 7.17084L104.24 7.17443L104.25 5.17445L104.26 3.17448L103.51 3.17089L103.5 5.17087ZM104.25 5.17445L104.24 7.17443C105.189 7.17897 106.058 6.87522 106.821 6.39168L105.75 4.70254L104.679 3.01341C104.442 3.16387 104.311 3.17472 104.26 3.17448L104.25 5.17445ZM105.75 4.70254L106.821 6.39168L107.571 5.91618L106.5 4.22705L105.429 2.53792L104.679 3.01341L105.75 4.70254ZM106.5 4.22705L107.571 5.91618L108.321 5.44068L107.25 3.75155L106.179 2.06242L105.429 2.53792L106.5 4.22705ZM107.25 3.75155L108.321 5.44068C108.418 5.37889 108.475 5.36134 108.493 5.35685C108.502 5.35454 108.505 5.35456 108.503 5.35466C108.502 5.35477 108.5 5.35462 108.501 5.35469L108.75 3.37029L108.999 1.38589C107.96 1.25536 107 1.5422 106.179 2.06242L107.25 3.75155ZM108.75 3.37029L108.501 5.35469L109.251 5.44892L109.5 3.46452L109.749 1.48012L108.999 1.38589L108.75 3.37029ZM109.5 3.46452L109.251 5.44892L110.001 5.54315L110.25 3.55876L110.499 1.57436L109.749 1.48012L109.5 3.46452ZM110.25 3.55876L110.001 5.54315C110.322 5.58353 110.658 5.66919 111.011 5.80965L111.75 3.95103L112.489 2.09241C111.842 1.83548 111.178 1.65963 110.499 1.57436L110.25 3.55876ZM111.75 3.95103L111.011 5.80965L111.761 6.10769L112.5 4.24907L113.239 2.39045L112.489 2.09241L111.75 3.95103ZM112.5 4.24907L111.761 6.10769L112.511 6.40573L113.25 4.54711L113.989 2.68849L113.239 2.39045L112.5 4.24907ZM113.25 4.54711L112.511 6.40573C113.52 6.80645 114.578 6.77663 115.56 6.34163L114.75 4.51297L113.94 2.68431C113.922 2.69211 113.917 2.69292 113.921 2.69177C113.927 2.69053 113.938 2.68848 113.954 2.68811C113.971 2.68775 113.984 2.68924 113.993 2.69093C114.002 2.69255 114.001 2.69331 113.989 2.68849L113.25 4.54711ZM114.75 4.51297L115.56 6.34163L116.31 6.00945L115.5 4.18079L114.69 2.35213L113.94 2.68431L114.75 4.51297ZM115.5 4.18079L116.31 6.00945L117.06 5.67727L116.25 3.84861L115.44 2.01995L114.69 2.35213L115.5 4.18079ZM116.25 3.84861L117.06 5.67727C117.18 5.62431 117.225 5.63399 117.265 5.64414L117.75 3.70375L118.235 1.76335C117.275 1.52374 116.32 1.63 115.44 2.01995L116.25 3.84861ZM117.75 3.70375L117.265 5.64414L118.015 5.83146L118.5 3.89106L118.985 1.95067L118.235 1.76335L117.75 3.70375ZM118.5 3.89106L118.015 5.83146L118.765 6.01878L119.25 4.07838L119.735 2.13798L118.985 1.95067L118.5 3.89106ZM119.25 4.07838L118.765 6.01878C119.614 6.23074 120.475 6.21047 121.313 5.96514L120.75 4.04588L120.187 2.12662C120.025 2.17438 119.886 2.17577 119.735 2.13798L119.25 4.07838ZM120.75 4.04588L121.313 5.96514L122.063 5.74533L121.5 3.82606L120.937 1.9068L120.187 2.12662L120.75 4.04588ZM121.5 3.82606L122.063 5.74533L122.813 5.52551L122.25 3.60624L121.687 1.68698L120.937 1.9068L121.5 3.82606ZM122.25 3.60624L122.813 5.52551C122.92 5.49386 123.007 5.49347 123.127 5.53277L123.75 3.63224L124.373 1.73171C123.493 1.44326 122.579 1.42554 121.687 1.68698L122.25 3.60624ZM123.75 3.63224L123.127 5.53277L123.877 5.77858L124.5 3.87805L125.123 1.97753L124.373 1.73171L123.75 3.63224ZM124.5 3.87805L123.877 5.77858L124.627 6.02439L125.25 4.12387L125.873 2.22334L125.123 1.97753L124.5 3.87805ZM125.25 4.12387L124.627 6.02439C125.675 6.36771 126.728 6.24446 127.668 5.75908L126.75 3.98221L125.832 2.20533C125.806 2.21885 125.792 2.22317 125.791 2.22365C125.789 2.224 125.797 2.22162 125.812 2.22022C125.827 2.2188 125.843 2.21902 125.857 2.22066C125.871 2.22227 125.876 2.2245 125.873 2.22334L125.25 4.12387ZM126.75 3.98221L127.668 5.75908L128.418 5.37161L127.5 3.59473L126.582 1.81786L125.832 2.20533L126.75 3.98221ZM127.5 3.59473L128.418 5.37161L129.168 4.98414L128.25 3.20726L127.332 1.43038L126.582 1.81786L127.5 3.59473ZM128.25 3.20726L129.168 4.98414C129.135 5.00135 129.023 5.04484 128.866 5.03424C128.715 5.0241 128.64 4.97232 128.659 4.98415L129.75 3.30817L130.841 1.6322C129.783 0.943057 128.517 0.818118 127.332 1.43038L128.25 3.20726ZM129.75 3.30817L128.659 4.98415L129.409 5.47254L130.5 3.79656L131.591 2.12058L130.841 1.6322L129.75 3.30817ZM130.5 3.79656L129.409 5.47254L130.159 5.96093L131.25 4.28495L132.341 2.60897L131.591 2.12058L130.5 3.79656ZM131.25 4.28495L130.159 5.96093C131.058 6.54665 132.142 6.8083 133.28 6.49594L132.75 4.56735L132.22 2.63877C132.235 2.63479 132.258 2.63012 132.289 2.62881C132.319 2.6275 132.347 2.62997 132.37 2.63428C132.417 2.64321 132.409 2.65331 132.341 2.60897L131.25 4.28495ZM132.75 4.56735L133.28 6.49594L134.03 6.28996L133.5 4.36137L132.97 2.43279L132.22 2.63877L132.75 4.56735ZM133.5 4.36137L134.03 6.28996L134.78 6.08397L134.25 4.15539L133.72 2.2268L132.97 2.43279L133.5 4.36137ZM134.25 4.15539L134.78 6.08397C135.06 6.00705 135.323 5.98421 135.58 6.00613L135.75 4.01336L135.92 2.0206C135.177 1.95724 134.44 2.02908 133.72 2.2268L134.25 4.15539ZM135.75 4.01336L135.58 6.00613L136.33 6.07009L136.5 4.07733L136.67 2.08456L135.92 2.0206L135.75 4.01336ZM136.5 4.07733L136.33 6.07009L137.08 6.13405L137.25 4.14129L137.42 2.14852L136.67 2.08456L136.5 4.07733ZM137.25 4.14129L137.08 6.13405C137.754 6.1915 138.427 6.16102 139.094 6.04434L138.75 4.07419L138.406 2.10404C138.073 2.1621 137.746 2.17635 137.42 2.14852L137.25 4.14129ZM138.75 4.07419L139.094 6.04434L139.844 5.91328L139.5 3.94314L139.156 1.97299L138.406 2.10404L138.75 4.07419ZM139.5 3.94314L139.844 5.91328L140.594 5.78223L140.25 3.81208L139.906 1.84193L139.156 1.97299L139.5 3.94314ZM140.25 3.81208L140.594 5.78223C140.643 5.77368 140.72 5.76683 140.881 5.84419L141.75 4.04295L142.619 2.24171C141.78 1.8365 140.857 1.67574 139.906 1.84193L140.25 3.81208ZM141.75 4.04295L140.881 5.84419L141.631 6.20611L142.5 4.40487L143.369 2.60363L142.619 2.24171L141.75 4.04295ZM142.5 4.40487L141.631 6.20611L142.381 6.56803L143.25 4.76679L144.119 2.96555L143.369 2.60363L142.5 4.40487ZM143.25 4.76679L142.381 6.56803C143.224 6.97502 144.151 7.13378 145.106 6.96113L144.75 4.99306L144.394 3.02499C144.349 3.03321 144.276 3.04112 144.119 2.96555L143.25 4.76679ZM144.75 4.99306L145.106 6.96113L145.856 6.82547L145.5 4.8574L145.144 2.88934L144.394 3.02499L144.75 4.99306ZM145.5 4.8574L145.856 6.82547L146.606 6.68982L146.25 4.72175L145.894 2.75368L145.144 2.88934L145.5 4.8574ZM146.25 4.72175L146.606 6.68982C146.995 6.61939 147.381 6.58325 147.765 6.58032L147.75 4.58038L147.735 2.58044C147.119 2.58513 146.505 2.64324 145.894 2.75368L146.25 4.72175ZM147.75 4.58038L147.765 6.58032L148.515 6.5746L148.5 4.57466L148.485 2.57472L147.735 2.58044L147.75 4.58038ZM148.5 4.57466L148.515 6.5746L149.265 6.56889L149.25 4.56895L149.235 2.569L148.485 2.57472L148.5 4.57466ZM149.25 4.56895L149.265 6.56889C150.135 6.56226 150.954 6.32089 151.702 5.91588L150.75 4.15714L149.798 2.3984C149.546 2.53485 149.365 2.56801 149.235 2.569L149.25 4.56895ZM150.75 4.15714L151.702 5.91588L152.452 5.50979L151.5 3.75105L150.548 1.99231L149.798 2.3984L150.75 4.15714ZM151.5 3.75105L152.452 5.50979L153.202 5.1037L152.25 3.34496L151.298 1.58622L150.548 1.99231L151.5 3.75105ZM152.25 3.34496L153.202 5.1037C153.439 4.9757 153.597 4.95322 153.704 4.95568L153.75 2.95621L153.796 0.956749C152.903 0.936089 152.061 1.17277 151.298 1.58622L152.25 3.34496ZM153.75 2.95621L153.704 4.95568L154.454 4.97302L154.5 2.97356L154.546 0.974091L153.796 0.956749L153.75 2.95621ZM154.5 2.97356L154.454 4.97302L155.204 4.99036L155.25 2.9909L155.296 0.991433L154.546 0.974091L154.5 2.97356ZM155.25 2.9909L155.204 4.99036C155.355 4.99385 155.552 5.03428 155.814 5.17288L156.75 3.40528L157.686 1.63768C156.948 1.24689 156.145 1.01107 155.296 0.991433L155.25 2.9909ZM156.75 3.40528L155.814 5.17288L156.564 5.56991L157.5 3.80231L158.436 2.03471L157.686 1.63768L156.75 3.40528ZM157.5 3.80231L156.564 5.56991L157.314 5.96695L158.25 4.19935L159.186 2.43175L158.436 2.03471L157.5 3.80231ZM158.25 4.19935L157.314 5.96695C158.259 6.46728 159.326 6.59652 160.387 6.24056L159.75 4.34457L159.113 2.44859C159.112 2.44907 159.121 2.44609 159.138 2.44405C159.155 2.44197 159.174 2.4417 159.193 2.44348C159.211 2.44524 159.221 2.44833 159.223 2.44868C159.223 2.44888 159.211 2.44517 159.186 2.43175L158.25 4.19935ZM159.75 4.34457L160.387 6.24056L161.137 5.98875L160.5 4.09277L159.863 2.19678L159.113 2.44859L159.75 4.34457ZM160.5 4.09277L161.137 5.98875L161.887 5.73695L161.25 3.84096L160.613 1.94497L159.863 2.19678L160.5 4.09277ZM161.25 3.84096L161.887 5.73695C162.101 5.66501 162.282 5.65292 162.457 5.67874L162.75 3.70039L163.043 1.72203C162.218 1.59954 161.399 1.68115 160.613 1.94497L161.25 3.84096ZM162.75 3.70039L162.457 5.67874L163.207 5.78999L163.5 3.81163L163.793 1.83327L163.043 1.72203L162.75 3.70039ZM163.5 3.81163L163.207 5.78999L163.957 5.90123L164.25 3.92287L164.543 1.94451L163.793 1.83327L163.5 3.81163ZM164.25 3.92287L163.957 5.90123C164.31 5.95369 164.674 6.04741 165.05 6.18783L165.75 4.3143L166.45 2.44077C165.826 2.2076 165.19 2.04037 164.543 1.94451L164.25 3.92287ZM165.75 4.3143L165.05 6.18783L165.8 6.46802L166.5 4.59449L167.2 2.72096L166.45 2.44077L165.75 4.3143ZM166.5 4.59449L165.8 6.46802L166.55 6.7482L167.25 4.87467L167.95 3.00114L167.2 2.72096L166.5 4.59449ZM167.25 4.87467L166.55 6.7482C167.623 7.14886 168.718 7.03814 169.689 6.52193L168.75 4.75606L167.811 2.99019C167.79 3.00136 167.783 3.0025 167.791 3.00024C167.799 2.99782 167.817 2.99337 167.842 2.99134C167.868 2.98929 167.894 2.99036 167.916 2.99367C167.938 2.99692 167.95 3.00125 167.95 3.00114L167.25 4.87467ZM168.75 4.75606L169.689 6.52193L170.439 6.12313L169.5 4.35726L168.561 2.59138L167.811 2.99019L168.75 4.75606ZM169.5 4.35726L170.439 6.12313L171.189 5.72433L170.25 3.95845L169.311 2.19258L168.561 2.59138L169.5 4.35726ZM170.25 3.95845L171.189 5.72433C171.226 5.70473 171.252 5.69421 171.268 5.68871C171.284 5.68331 171.292 5.68219 171.292 5.68211C171.293 5.68207 171.29 5.68238 171.287 5.68223C171.283 5.68208 171.284 5.68171 171.29 5.6832L171.75 3.73671L172.21 1.79022C171.187 1.54889 170.193 1.72382 169.311 2.19258L170.25 3.95845ZM171.75 3.73671L171.29 5.6832L172.04 5.86026L172.5 3.91377L172.96 1.96728L172.21 1.79022L171.75 3.73671ZM172.5 3.91377L172.04 5.86026L172.79 6.03732L173.25 4.09083L173.71 2.14434L172.96 1.96728L172.5 3.91377ZM173.25 4.09083L172.79 6.03732C173.328 6.16414 173.866 6.27488 174.404 6.36946L174.75 4.39961L175.096 2.42976C174.634 2.34871 174.172 2.2536 173.71 2.14434L173.25 4.09083ZM174.75 4.39961L174.404 6.36946L175.154 6.50118L175.5 4.53133L175.846 2.56148L175.096 2.42976L174.75 4.39961ZM175.5 4.53133L175.154 6.50118L175.904 6.6329L176.25 4.66305L176.596 2.6932L175.846 2.56148L175.5 4.53133ZM176.25 4.66305L175.904 6.6329C176.541 6.7447 177.181 6.78944 177.824 6.76568L177.75 4.76704L177.676 2.76841C177.319 2.78162 176.959 2.75704 176.596 2.6932L176.25 4.66305ZM177.75 4.76704L177.824 6.76568L178.574 6.73795L178.5 4.73931L178.426 2.74068L177.676 2.76841L177.75 4.76704ZM178.5 4.73931L178.574 6.73795L179.324 6.71021L179.25 4.71158L179.176 2.71294L178.426 2.74068L178.5 4.73931ZM179.25 4.71158L179.324 6.71021C180.162 6.67923 180.954 6.4418 181.685 6.05506L180.75 4.28714L179.815 2.51922C179.546 2.66142 179.338 2.70695 179.176 2.71294L179.25 4.71158ZM180.75 4.28714L181.685 6.05506L182.435 5.65836L181.5 3.89044L180.565 2.12252L179.815 2.51922L180.75 4.28714ZM181.5 3.89044L182.435 5.65836L183.185 5.26166L182.25 3.49374L181.315 1.72581L180.565 2.12252L181.5 3.89044ZM182.25 3.49374L183.185 5.26166C183.162 5.27363 183.062 5.31649 182.912 5.30992C182.767 5.30353 182.69 5.25545 182.7 5.26187L183.75 3.55956L184.8 1.85725C183.725 1.19445 182.47 1.11456 181.315 1.72581L182.25 3.49374ZM183.75 3.55956L182.7 5.26187L183.45 5.7244L184.5 4.02209L185.55 2.31978L184.8 1.85725L183.75 3.55956ZM184.5 4.02209L183.45 5.7244L184.2 6.18693L185.25 4.48462L186.3 2.78231L185.55 2.31978L184.5 4.02209ZM185.25 4.48462L184.2 6.18693C185.29 6.85894 186.558 6.92234 187.712 6.28933L186.75 4.53578L185.788 2.78223C185.808 2.77119 185.911 2.72448 186.068 2.72984C186.222 2.73508 186.306 2.78601 186.3 2.78231L185.25 4.48462ZM186.75 4.53578L187.712 6.28933L188.462 5.87797L187.5 4.12442L186.538 2.37087L185.788 2.78223L186.75 4.53578ZM187.5 4.12442L188.462 5.87797L189.212 5.4666L188.25 3.71305L187.288 1.9595L186.538 2.37087L187.5 4.12442ZM188.25 3.71305L189.212 5.4666C189.213 5.46605 189.192 5.47727 189.152 5.48837C189.11 5.4998 189.056 5.50839 188.995 5.50825C188.934 5.5081 188.881 5.49926 188.84 5.48781C188.8 5.4767 188.78 5.46567 188.782 5.46664L189.75 3.71659L190.718 1.96654C189.619 1.35873 188.391 1.35461 187.288 1.9595L188.25 3.71305ZM189.75 3.71659L188.782 5.46664L189.532 5.88155L190.5 4.1315L191.468 2.38145L190.718 1.96654L189.75 3.71659ZM190.5 4.1315L189.532 5.88155L190.282 6.29646L191.25 4.54641L192.218 2.79636L191.468 2.38145L190.5 4.1315ZM191.25 4.54641L190.282 6.29646C191.124 6.76249 192.079 6.97604 193.081 6.80795L192.75 4.83551L192.419 2.86307C192.405 2.8654 192.395 2.86556 192.378 2.86228C192.359 2.85845 192.306 2.84512 192.218 2.79636L191.25 4.54641ZM192.75 4.83551L193.081 6.80795L193.831 6.68214L193.5 4.7097L193.169 2.73726L192.419 2.86307L192.75 4.83551ZM193.5 4.7097L193.831 6.68214L194.581 6.55632L194.25 4.58388L193.919 2.61144L193.169 2.73726L193.5 4.7097ZM194.25 4.58388L194.581 6.55632C195.023 6.48223 195.463 6.42844 195.903 6.39475L195.75 4.40059L195.597 2.40644C195.037 2.44938 194.477 2.51778 193.919 2.61144L194.25 4.58388ZM195.75 4.40059L195.903 6.39475L196.653 6.33727L196.5 4.34312L196.347 2.34897L195.597 2.40644L195.75 4.40059ZM196.5 4.34312L196.653 6.33727L197.403 6.2798L197.25 4.28564L197.097 2.29149L196.347 2.34897L196.5 4.34312ZM197.25 4.28564L197.403 6.2798C197.684 6.25829 197.969 6.28144 198.267 6.35562L198.75 4.41482L199.233 2.47403C198.531 2.29933 197.816 2.23637 197.097 2.29149L197.25 4.28564ZM198.75 4.41482L198.267 6.35562L199.017 6.54228L199.5 4.60148L199.983 2.66068L199.233 2.47403L198.75 4.41482ZM199.5 4.60148L199.017 6.54228L199.767 6.72893L200.25 4.78813L200.733 2.84733L199.983 2.66068L199.5 4.60148ZM200.25 4.78813L199.767 6.72893C200.544 6.92222 201.336 6.94679 202.123 6.79734L201.75 4.83243L201.377 2.86751C201.164 2.90788 200.956 2.90292 200.733 2.84733L200.25 4.78813ZM201.75 4.83243L202.123 6.79734L202.873 6.65498L202.5 4.69007L202.127 2.72515L201.377 2.86751L201.75 4.83243ZM202.5 4.69007L202.873 6.65498L203.623 6.51262L203.25 4.54771L202.877 2.58279L202.127 2.72515L202.5 4.69007ZM203.25 4.54771L203.623 6.51262C204.216 6.40013 204.804 6.24515 205.387 6.04919L204.75 4.15334L204.113 2.2575C203.696 2.39754 203.284 2.50547 202.877 2.58279L203.25 4.54771ZM204.75 4.15334L205.387 6.04919L206.137 5.79719L205.5 3.90134L204.863 2.0055L204.113 2.2575L204.75 4.15334ZM205.5 3.90134L206.137 5.79719L206.887 5.54518L206.25 3.64934L205.613 1.7535L204.863 2.0055L205.5 3.90134ZM206.25 3.64934L206.887 5.54518C206.902 5.54001 206.91 5.53901 206.91 5.53899C206.91 5.53895 206.909 5.53906 206.908 5.53913C206.906 5.5392 206.905 5.5392 206.903 5.53913C206.9 5.53896 206.901 5.53859 206.907 5.54017C206.914 5.54182 206.93 5.54627 206.956 5.55739L207.75 3.72181L208.544 1.88622C207.607 1.4809 206.598 1.42262 205.613 1.7535L206.25 3.64934ZM207.75 3.72181L206.956 5.55739L207.706 5.88186L208.5 4.04628L209.294 2.21069L208.544 1.88622L207.75 3.72181ZM208.5 4.04628L207.706 5.88186L208.456 6.20633L209.25 4.37074L210.044 2.53516L209.294 2.21069L208.5 4.04628ZM209.25 4.37074L208.456 6.20633C209.564 6.6859 210.72 6.58486 211.731 6.01563L210.75 4.27291L209.769 2.53019C209.742 2.54528 209.78 2.51861 209.87 2.51276C209.912 2.51003 209.952 2.51285 209.986 2.51922C210.02 2.52546 210.04 2.53345 210.044 2.53516L209.25 4.37074ZM210.75 4.27291L211.731 6.01563L212.481 5.59332L211.5 3.8506L210.519 2.10788L209.769 2.53019L210.75 4.27291ZM211.5 3.8506L212.481 5.59332L213.231 5.17102L212.25 3.4283L211.269 1.68557L210.519 2.10788L211.5 3.8506ZM212.25 3.4283L213.231 5.17102C213.273 5.14773 213.256 5.16574 213.191 5.17195C213.161 5.17484 213.131 5.17408 213.103 5.17025C213.075 5.16647 213.059 5.16086 213.054 5.15934L213.75 3.28419L214.446 1.40904C213.348 1.00207 212.237 1.14048 211.269 1.68557L212.25 3.4283ZM213.75 3.28419L213.054 5.15934L213.804 5.43754L214.5 3.56239L215.196 1.68724L214.446 1.40904L213.75 3.28419ZM214.5 3.56239L213.804 5.43754L214.554 5.71574L215.25 3.84059L215.946 1.96544L215.196 1.68724L214.5 3.56239ZM215.25 3.84059L214.554 5.71574C215.133 5.93023 215.716 6.10548 216.304 6.24002L216.75 4.29041L217.196 2.34079C216.784 2.24651 216.367 2.12189 215.946 1.96544L215.25 3.84059ZM216.75 4.29041L216.304 6.24002L217.054 6.41163L217.5 4.46202L217.946 2.51241L217.196 2.34079L216.75 4.29041ZM217.5 4.46202L217.054 6.41163L217.804 6.58325L218.25 4.63364L218.696 2.68403L217.946 2.51241L217.5 4.46202ZM218.25 4.63364L217.804 6.58325C218.39 6.71732 218.979 6.81145 219.57 6.86477L219.75 4.87284L219.93 2.88091C219.521 2.84411 219.11 2.77878 218.696 2.68403L218.25 4.63364ZM219.75 4.87284L219.57 6.86477L220.32 6.93235L220.5 4.94043L220.68 2.9485L219.93 2.88091L219.75 4.87284ZM220.5 4.94043L220.32 6.93235L221.07 6.99994L221.25 5.00801L221.43 3.01608L220.68 2.9485L220.5 4.94043ZM221.25 5.00801L221.07 6.99994C222.116 7.09411 223.066 6.76904 223.868 6.22892L222.75 4.57027L221.632 2.91163C221.527 2.98252 221.463 3.00559 221.44 3.01245C221.42 3.01806 221.421 3.01534 221.43 3.01608L221.25 5.00801ZM222.75 4.57027L223.868 6.22892L224.618 5.72359L223.5 4.06495L222.382 2.4063L221.632 2.91163L222.75 4.57027ZM223.5 4.06495L224.618 5.72359L225.368 5.21827L224.25 3.55962L223.132 1.90098L222.382 2.4063L223.5 4.06495ZM224.25 3.55962L225.368 5.21827C225.42 5.18268 225.398 5.21042 225.309 5.22445C225.265 5.23124 225.218 5.23273 225.171 5.22791C225.124 5.22314 225.09 5.2134 225.07 5.20629L225.75 3.32537L226.43 1.44446C225.243 1.0154 224.08 1.26238 223.132 1.90098L224.25 3.55962ZM225.75 3.32537L225.07 5.20629L225.82 5.47736L226.5 3.59645L227.18 1.71553L226.43 1.44446L225.75 3.32537ZM226.5 3.59645L225.82 5.47736L226.57 5.74844L227.25 3.86752L227.93 1.98661L227.18 1.71553L226.5 3.59645ZM227.25 3.86752L226.57 5.74844C227.324 6.0209 228.112 6.1362 228.915 6.06965L228.75 4.07648L228.585 2.0833C228.388 2.09959 228.176 2.07558 227.93 1.98661L227.25 3.86752ZM228.75 4.07648L228.915 6.06965L229.665 6.00753L229.5 4.01435L229.335 2.02118L228.585 2.0833L228.75 4.07648ZM229.5 4.01435L229.665 6.00753L230.415 5.9454L230.25 3.95223L230.085 1.95906L229.335 2.02118L229.5 4.01435ZM230.25 3.95223L230.415 5.9454C231.003 5.89669 231.589 5.80904 232.172 5.68318L231.75 3.72821L231.328 1.77324C230.911 1.86324 230.497 1.92493 230.085 1.95906L230.25 3.95223ZM231.75 3.72821L232.172 5.68318L232.922 5.52128L232.5 3.56631L232.078 1.61134L231.328 1.77324L231.75 3.72821ZM232.5 3.56631L232.922 5.52128L233.672 5.35938L233.25 3.40441L232.828 1.44944L232.078 1.61134L232.5 3.56631ZM233.25 3.40441L233.672 5.35938C234.071 5.27317 234.467 5.21989 234.86 5.19833L234.75 3.20134L234.64 1.20434C234.033 1.23768 233.429 1.31978 232.828 1.44944L233.25 3.40441ZM234.75 3.20134L234.86 5.19833L235.61 5.15716L235.5 3.16016L235.39 1.16317L234.64 1.20434L234.75 3.20134ZM235.5 3.16016L235.61 5.15716L236.36 5.11598L236.25 3.11899L236.14 1.122L235.39 1.16317L235.5 3.16016ZM236.25 3.11899L236.36 5.11598C236.607 5.10238 236.866 5.1331 237.147 5.2219L237.75 3.31495L238.353 1.408C237.634 1.18062 236.893 1.0807 236.14 1.122L236.25 3.11899ZM237.75 3.31495L237.147 5.2219L237.897 5.45903L238.5 3.55208L239.103 1.64513L238.353 1.408L237.75 3.31495ZM238.5 3.55208L237.897 5.45903L238.647 5.69617L239.25 3.78922L239.853 1.88226L239.103 1.64513L238.5 3.55208ZM239.25 3.78922L238.647 5.69617C239.206 5.87301 239.768 6.02194 240.332 6.14246L240.75 4.18661L241.168 2.23077C240.732 2.1376 240.294 2.0216 239.853 1.88226L239.25 3.78922ZM240.75 4.18661L240.332 6.14246L241.082 6.30272L241.5 4.34687L241.918 2.39103L241.168 2.23077L240.75 4.18661ZM241.5 4.34687L241.082 6.30272L241.832 6.46298L242.25 4.50714L242.668 2.55129L241.918 2.39103L241.5 4.34687ZM242.25 4.50714L241.832 6.46298C242.733 6.65557 243.759 6.58148 244.659 5.9419L243.5 4.3119L242.341 2.6819C242.435 2.615 242.541 2.5762 242.629 2.56242C242.707 2.55019 242.728 2.56419 242.668 2.55129L242.25 4.50714ZM243.5 4.3119L244.659 5.9419L245.159 5.5864L244 3.9564L242.841 2.3264L242.341 2.6819L243.5 4.3119ZM244 3.9564L245.159 5.5864L245.659 5.2309L244.5 3.6009L243.341 1.9709L242.841 2.3264L244 3.9564ZM244.5 3.6009L245.659 5.2309C245.821 5.11569 245.734 5.20325 245.508 5.2786C245.465 5.29303 244.884 5.50805 244.193 5.21711C243.771 5.03973 243.426 4.7198 243.216 4.31545C243.028 3.95251 243 3.62099 243 3.43405L245 3.43405L247 3.43405C247 2.9716 246.8 1.97448 245.745 1.53036C245.012 1.22189 244.369 1.44204 244.242 1.48428C243.849 1.61524 243.512 1.84911 243.341 1.9709L244.5 3.6009ZM245 3.43405L243 3.43405V3.6227L245 3.6227L247 3.6227V3.43405L245 3.43405ZM245 3.6227L243.067 3.11031L242.967 3.48761L244.9 4L246.833 4.51239L246.933 4.13509L245 3.6227ZM244.9 4V6H245V4V2H244.9V4Z" fill="#6C1EFF"/>
</svg>
