<svg width="400" height="256" viewBox="0 0 400 256" fill="none" xmlns="http://www.w3.org/2000/svg">
<g opacity="0.5">
<path d="M118.462 194.008C111.918 193.456 107.061 187.703 107.614 181.159L114.405 100.756C114.958 94.2121 120.711 89.3553 127.255 89.9081L127.649 89.9414C134.193 90.4941 139.05 96.2471 138.497 102.791L131.706 183.194C131.153 189.738 125.4 194.594 118.856 194.042L118.462 194.008Z" fill="white"/>
<path d="M50.7669 190.8C35.9946 189.552 24.792 184.462 17.159 175.53C9.52609 166.597 6.35446 154.497 7.64414 139.229L11.5675 92.7819C12.1203 86.238 17.8732 81.3812 24.4171 81.934L24.8114 81.9673C31.3553 82.52 36.212 88.273 35.6593 94.8169L31.8113 140.372C30.9738 150.286 32.4033 157.596 36.0997 162.302C39.7961 167.008 45.3126 169.67 52.6491 170.29C59.9857 170.91 65.8707 169.21 70.304 165.191C74.7374 161.172 77.3728 154.206 78.2102 144.291L82.0582 98.7361C82.611 92.1922 88.4124 87.3396 94.9562 87.8923C101.5 88.4451 106.405 94.2021 105.853 100.746L101.929 147.193C100.64 162.461 95.4831 173.858 86.46 181.384C77.4369 188.909 65.5392 192.048 50.7669 190.8Z" fill="white"/>
<rect x="-17.0433" y="29.8328" width="197.797" height="197.797" rx="35.9788" transform="rotate(4.9084 -17.0433 29.8328)" stroke="white" stroke-width="18"/>
</g>
<g opacity="0.5">
<path d="M323.804 267.295C314.587 266.416 310.253 255.458 316.376 248.512L347.215 213.531C349.065 211.432 352.519 212.929 352.253 215.713C351.987 218.508 348.292 219.316 346.884 216.887L324.772 178.751C320.145 170.77 326.475 160.898 335.658 161.773C339.32 162.123 342.586 164.226 344.417 167.416L364.622 202.61C365.84 204.732 364.178 207.349 361.74 207.148C359.278 206.946 358.075 204.046 359.671 202.16L385.873 171.205C388.152 168.512 391.605 167.107 395.116 167.441C403.862 168.275 407.984 178.667 402.187 185.269L373.004 218.507C371.184 220.58 367.775 219.108 368.037 216.362C368.299 213.615 371.926 212.813 373.321 215.194L397.268 256.073C401.986 264.127 395.598 274.139 386.305 273.253C382.57 272.897 379.246 270.733 377.41 267.46L356.271 229.791C355.106 227.715 356.753 225.185 359.123 225.411C361.483 225.636 362.627 228.413 361.109 230.235L333.591 263.266C331.194 266.143 327.532 267.65 323.804 267.295Z" fill="white"/>
<path d="M259.33 263.883C244.332 262.453 233.003 257.158 225.344 247.998C217.686 238.837 214.595 226.506 216.073 211.004L220.586 163.655C221.21 157.117 227.015 152.323 233.552 152.946L234.338 153.021C240.875 153.644 245.67 159.449 245.046 165.986L240.619 212.43C239.659 222.496 241.032 229.94 244.737 234.763C248.442 239.585 254.018 242.351 261.467 243.061C268.916 243.771 274.915 242.109 279.464 238.073C284.013 234.038 286.768 226.987 287.727 216.921L292.154 170.477C292.778 163.94 298.583 159.145 305.12 159.768L305.604 159.814C312.141 160.438 316.936 166.243 316.312 172.78L311.799 220.13C310.321 235.631 304.956 247.156 295.705 254.705C286.453 262.253 274.328 265.313 259.33 263.883Z" fill="white"/>
<rect x="206.103" y="91.7161" width="226.465" height="226.465" rx="35.9788" transform="rotate(4.9084 206.103 91.7161)" stroke="white" stroke-width="18"/>
</g>
</svg>
