<svg width="400" height="331" viewBox="0 0 400 331" fill="none" xmlns="http://www.w3.org/2000/svg">
<path opacity="0.5" d="M441.998 0C444.207 0 445.998 1.79086 445.998 4V7.78597C445.998 8.85155 445.573 9.87327 444.816 10.6236C429.907 25.4106 414.95 39.8431 399.891 53.8971C399.282 54.4654 398.862 55.2094 398.708 56.0281C397.055 64.8717 397.195 72.5896 398.963 79.5607C399.689 82.4236 403.257 83.0454 405.218 80.8368C416.589 68.0312 427.882 55.4644 439.038 43.1196C441.492 40.404 446 42.1413 445.999 45.8014L445.998 60.4253C445.998 61.415 445.633 62.3669 444.971 63.1019C377.816 137.581 306.637 219.619 249.579 311.712C249.371 312.047 249.213 312.414 249.113 312.795C236.815 359.709 240.804 403.732 269.622 444.411C271.55 447.131 269.657 450.999 266.324 450.999H254.712C253.375 450.999 252.123 450.332 251.395 449.211C244.867 439.159 239.643 428.841 235.617 418.327C234.954 416.598 233.218 415.508 231.38 415.74C217.94 417.437 202.33 420.635 189.894 427.431C189.129 427.849 188.538 428.521 188.199 429.323C185.522 435.652 182.927 442.028 180.42 448.443C179.819 449.982 178.337 450.999 176.685 450.999H166.125C163.334 450.999 161.401 448.213 162.398 445.606C164.68 439.641 167.034 433.714 169.466 427.827C170.021 426.483 169.818 424.935 168.865 423.835C161.196 414.985 150.062 407.866 137.301 403.05C135.509 402.373 133.506 403.135 132.559 404.8C122.798 421.958 114.873 437.215 109.864 448.571C109.216 450.04 107.771 450.999 106.166 450.999H95.3043C92.5372 450.999 90.6148 448.26 91.6474 445.693C96.3842 433.915 103.858 419.055 113.126 402.48C114.489 400.041 113.018 396.983 110.241 396.681C92.4563 394.747 74.4453 396.928 60.7256 403.182C60.5292 403.28 60.3606 403.426 60.2356 403.607C49.8294 418.63 40.0818 433.76 31.0506 449.027C30.3283 450.248 29.0166 451 27.5979 451H16.1948C13.1296 451 11.2068 447.696 12.7451 445.045C22.9269 427.498 34.0172 410.171 45.9048 393.022C46.5727 392.059 46.7907 390.851 46.4771 389.721C44.7404 383.465 42.6414 377.701 40.1039 372.36C39.0424 370.126 36.1873 369.535 34.2387 371.058L-0.533142 398.249C-3.15903 400.303 -6.99716 398.432 -6.99716 395.098V382.668C-6.99716 381.437 -6.43015 380.274 -5.45999 379.516L24.478 356.123C26.2849 354.711 26.5433 352.066 24.9512 350.416C18.6568 343.892 11.0395 338.101 1.79324 332.766C0.733856 332.155 -0.56015 332.124 -1.65936 332.66C-4.12488 333.863 -6.99808 332.06 -6.99808 329.317V317.914C-6.99808 316.391 -6.13321 315.001 -4.76865 314.325C11.4811 306.278 27.4702 298.038 43.224 289.592C44.4207 288.951 45.216 287.744 45.2889 286.388C45.9098 274.846 43.9025 265.221 38.917 256.467C33.0343 246.141 22.6172 236.625 5.66528 227.7L2.57916 226.069C1.98303 225.754 1.31693 225.595 0.6427 225.603C-0.618469 225.617 -1.87204 225.618 -3.11746 225.607C-5.27966 225.588 -6.99808 223.812 -6.99808 221.65V211.856C-6.99808 209.598 -5.13043 207.792 -2.87256 207.802C-0.380676 207.814 2.16629 207.766 4.76974 207.656C6.12671 207.599 7.3569 206.839 8.00992 205.648C15.3831 192.202 19.5688 178.868 21.6846 165.39C21.9568 163.656 21.0231 161.968 19.4384 161.214C11.1844 157.286 3.00699 152.888 -5.07266 148.058C-6.27188 147.341 -7 146.043 -7 144.646V133.277C-7 130.093 -3.45224 128.178 -0.754272 129.869C59.3813 167.559 121.593 179.136 187.947 152.156C255.596 121.412 323.687 83.2236 375.547 52.0342C375.777 51.8961 375.989 51.7369 376.187 51.5557C393.934 35.2628 411.579 18.4773 429.127 1.15526C429.876 0.415506 430.887 0 431.94 0H441.998ZM380.123 72.0364C372.035 79.3737 363.93 86.63 355.782 93.7701C354.68 94.7357 354.183 96.2259 354.547 97.6451C356.399 104.856 359.608 113.114 363.925 120.514C365.253 122.79 368.398 122.963 370.114 120.964C375.577 114.599 381.05 108.293 386.515 102.041C387.63 100.766 387.811 98.932 387.047 97.4202C383.123 89.6566 380.765 81.1419 380.122 72.0387C380.122 72.0378 380.122 72.037 380.123 72.0364ZM338.976 108.322C338.976 108.322 338.976 108.322 338.976 108.322C331.072 115.072 323.144 121.748 315.167 128.319C314.737 128.674 314.384 129.115 314.137 129.615C304.532 149.107 300.742 170.852 304.904 191.021C305.558 194.19 309.545 194.936 311.533 192.382C325.022 175.058 338.774 158.132 352.629 141.593C353.853 140.131 353.87 138.014 352.743 136.475C346.297 127.668 341.857 117.708 338.977 108.322C338.977 108.322 338.977 108.322 338.976 108.322ZM306.827 112.097C306.827 112.097 306.827 112.097 306.826 112.097C289.344 121.689 271.192 131.333 252.665 140.735C250.926 141.617 250.043 143.643 250.908 145.391C251.478 146.544 252.194 147.746 253.078 148.946C253.3 149.247 253.53 149.546 253.768 149.844C255.026 151.41 257.311 151.542 258.905 150.319C272.81 139.643 286.581 128.701 300.242 117.509C300.34 117.428 300.422 117.329 300.483 117.217C300.594 117.01 300.707 116.803 300.82 116.597C300.895 116.459 301.069 116.41 301.206 116.488C301.307 116.546 301.434 116.535 301.524 116.461C303.294 115.009 305.059 113.559 306.826 112.097C306.826 112.096 306.827 112.097 306.827 112.097ZM235.294 154.144C234.182 152.123 231.694 151.173 229.62 152.182C225.139 154.363 220.645 156.519 216.146 158.657C216.138 158.661 216.133 158.669 216.133 158.678C216.133 158.687 216.128 158.695 216.121 158.699C209.582 162.083 203.063 165.103 196.556 167.787C191.548 170.07 186.545 172.333 181.54 174.533C175.484 177.195 169.445 179.783 163.422 182.306C161.087 183.285 160.231 186.163 161.956 188.017C163.128 189.277 164.463 190.523 165.958 191.71C171.781 196.333 179.57 199.914 187.12 201.106C188.073 201.256 189.04 201.009 189.836 200.464C206.196 189.248 222.35 177.727 238.307 165.881C240.194 164.481 240.45 161.772 239.036 159.896C238.928 159.753 238.822 159.61 238.716 159.466C237.461 157.762 236.306 155.984 235.294 154.144ZM286.568 158.485C286.568 158.486 286.568 158.486 286.568 158.486C265.453 177.517 244.83 196.624 224.871 215.863C222.115 218.519 224.323 223.135 228.123 222.672L288.549 215.314C291.238 214.987 292.831 212.135 291.849 209.61C285.442 193.14 284.056 175.597 286.567 158.486C286.567 158.485 286.568 158.485 286.568 158.485ZM43.5729 171.253C41.1989 170.405 38.6156 171.886 38.1147 174.357C36.483 182.405 34.1444 190.476 30.931 198.547C29.7544 201.502 32.1845 204.711 35.3172 204.161C51.941 201.243 69.9168 196.677 88.7469 190.813C92.9758 189.497 92.146 182.853 87.7596 182.239C72.829 180.148 58.0897 176.437 43.5729 171.253ZM141.974 191.025C141.974 191.025 141.973 191.024 141.973 191.025C129.491 195.927 117.165 200.467 105.055 204.525C102.748 205.298 101.645 207.925 102.643 210.144C107.668 221.312 110.802 232.431 112.465 243.484C112.901 246.386 116.146 248.001 118.653 246.476C133.69 237.331 148.529 227.976 163.181 218.372C165.833 216.634 165.506 212.594 162.761 211.006C159.96 209.385 157.308 207.573 154.845 205.617C149.611 201.463 145.034 196.573 141.974 191.025C141.974 191.025 141.974 191.025 141.974 191.025ZM84.9068 214.221C84.0703 212.507 82.11 211.68 80.2762 212.203C66.7846 216.054 53.6721 219.208 41.0742 221.484C37.5561 222.119 36.3739 226.795 39.0461 229.17C45.4286 234.842 50.5839 240.98 54.4092 247.697C58.7837 255.378 61.4162 263.647 62.5476 272.367C62.9293 275.308 66.1481 277.096 68.7356 275.646C77.2769 270.859 85.7436 265.999 94.1531 261.085C95.4205 260.344 96.184 258.967 96.106 257.502C95.3399 243.1 91.9836 228.719 84.9068 214.221ZM168.026 247.282C171.433 243.774 166.308 237.528 162.199 240.178C146.91 250.038 131.423 259.652 115.712 269.025C114.55 269.718 113.819 270.95 113.745 272.301C113.285 280.737 112.156 289.123 110.557 297.443C109.756 301.617 115.292 304.452 118.095 301.256C134.02 283.095 150.707 265.115 168.026 247.282ZM280.133 234.235C280.133 234.235 280.133 234.236 280.133 234.236L253.787 237.438C252.958 237.538 252.187 237.889 251.577 238.459C237.141 251.946 217.398 276.205 197.407 303.934C196.521 305.164 196.416 306.788 197.089 308.146C201.047 316.13 204.098 325.01 206.232 334.974C207.043 338.757 212.348 339.709 214.25 336.34C234.313 300.82 256.597 266.839 280.132 234.235C280.132 234.235 280.133 234.235 280.133 234.235ZM224.298 241.041C224.297 241.04 224.297 241.04 224.296 241.04L197.101 244.349C196.21 244.458 195.381 244.863 194.748 245.5C186.675 253.63 178.723 261.774 170.924 269.951C169.287 271.668 169.508 274.419 171.334 275.933C175.184 279.125 178.761 282.507 182.053 286.118C183.82 288.057 186.954 287.966 188.506 285.851C200.937 268.91 213.106 253.52 224.297 241.043C224.298 241.042 224.298 241.041 224.298 241.041ZM95.2578 281.041C95.2577 281.041 95.2577 281.041 95.2576 281.041C72.2491 294.305 48.7483 307.068 24.704 319.396C21.9987 320.784 21.7467 324.577 24.1611 326.425C38.7294 337.574 49.4425 351.02 56.832 366.973C58.1581 369.835 62.127 370.347 64.0125 367.818C67.904 362.597 71.8631 357.395 75.9008 352.205C76.1712 351.857 76.3829 351.467 76.5265 351.051C84.7967 327.083 92.5248 303.929 95.2584 281.041C95.2585 281.04 95.2579 281.04 95.2578 281.041ZM155.682 286.213C155.681 286.212 155.68 286.212 155.68 286.213C148.912 293.527 142.257 300.871 135.737 308.233C133.787 310.434 134.815 313.912 137.626 314.775C152.575 319.361 167.691 325.501 180.801 335.063C183.89 337.317 188.415 334.739 187.41 331.049C181.943 310.975 171.564 297.922 155.682 286.213C155.682 286.213 155.682 286.213 155.682 286.213ZM121.101 328.57C119.619 328.179 118.046 328.68 117.057 329.851C105.306 343.763 94.0495 357.761 83.3325 371.86C81.1471 374.735 83.6422 378.893 87.2406 378.588C98.9072 377.6 110.962 378.292 122.69 380.535C124.372 380.857 126.087 380.114 126.969 378.646C133.941 367.036 141.478 354.978 149.361 342.817C150.702 340.748 149.881 337.965 147.594 337.044C139.145 333.643 130.192 330.964 121.101 328.57ZM167.628 347.404C167.628 347.405 167.628 347.405 167.628 347.405C160.019 359.07 152.691 370.828 145.849 382.181C144.558 384.323 145.541 387.103 147.848 388.069C157.415 392.071 166.296 397.3 173.895 403.815C176.017 405.634 179.365 405.004 180.523 402.46C184.232 394.31 188.068 386.228 192.031 378.233C192.575 377.136 192.596 375.847 192.046 374.754C186.072 362.868 177.621 354.123 167.629 347.404C167.629 347.404 167.628 347.404 167.628 347.404ZM225.101 353.585C225.101 353.586 225.101 353.586 225.1 353.587C217.439 367.487 210.122 381.6 203.23 395.949C201.721 399.09 204.727 402.565 208.113 401.744C213.9 400.342 219.571 399.355 224.893 398.616C227.258 398.288 228.85 396.009 228.367 393.67C225.65 380.497 224.639 367.107 225.101 353.585Z" fill="white"/>
</svg>
