<svg width="22" height="22" viewBox="0 0 22 22" fill="none" xmlns="http://www.w3.org/2000/svg">
<path d="M0 7.1499H3.3M3.3 7.1499V4.3999M3.3 7.1499V17.5999" stroke="#333333" stroke-width="2.2"/>
<path d="M12.31 5.50312C13.8619 5.55681 15.3339 6.20547 16.421 7.31425C17.5083 8.42318 18.1276 9.90793 18.1505 11.4607L15.9505 11.493C15.9359 10.505 15.5422 9.5603 14.8505 8.85468C14.1586 8.14897 13.2215 7.73616 12.2337 7.70205C11.246 7.66793 10.2828 8.0148 9.54387 8.67099C8.80496 9.32724 8.34721 10.2429 8.26448 11.2276C8.1818 12.2123 8.48021 13.1913 9.09915 13.9615C9.7183 14.7318 10.6106 15.2345 11.5903 15.3655C11.9321 15.4112 12.1008 15.4 12.6508 15.4L12.903 17.5462C12.3747 17.6169 11.835 17.618 11.2981 17.5462C9.75888 17.3402 8.35757 16.5501 7.3847 15.3397C6.41194 14.1294 5.94213 12.5913 6.072 11.0439C6.20195 9.49637 6.92175 8.05766 8.08294 7.02636C9.24413 5.99507 10.7579 5.44951 12.31 5.50312Z" fill="#333333"/>
<path d="M12.0996 16.5L21.9996 16.5" stroke="#333333" stroke-width="2.2"/>
</svg>
