<svg width="22" height="22" viewBox="0 0 22 22" fill="none" xmlns="http://www.w3.org/2000/svg">
<g clip-path="url(#clip0_1_759)">
<path d="M3.60977 15.7311V14.6807C3.60977 13.1701 3.08284 11.8493 2.2514 10.9991C3.08456 10.1488 3.60977 8.82808 3.60977 7.31745V6.26703C3.60977 4.59216 5.15803 3.23037 7.06214 3.23037V1.24072H7.01937C4.03747 1.26296 1.62012 3.50923 1.62012 6.26874V7.31917C1.62012 8.90165 0.766434 10.0051 0 10.0051V11.9948C0.766434 11.9948 1.62012 13.0982 1.62012 14.6807V15.7311C1.62012 18.5026 4.06142 20.7591 7.06214 20.7591V18.7695C5.15803 18.7695 3.60977 17.406 3.60977 15.7311Z" fill="#A5F04B"/>
<path d="M20.3801 7.31917V6.26874C20.3801 3.49726 17.9388 1.24072 14.9381 1.24072V3.23037C16.8422 3.23037 18.3905 4.59387 18.3905 6.26703V7.31745C18.3905 8.82808 18.9174 10.1488 19.7489 10.9991C18.9157 11.8493 18.3905 13.1701 18.3905 14.6807V15.7311C18.3905 17.406 16.8422 18.7695 14.9381 18.7695V20.7591H14.9809C17.9628 20.7369 20.3801 18.4906 20.3801 15.7311V14.6807C20.3801 13.0982 21.2338 11.9948 22.0003 11.9948V10.0051C21.2338 10.0051 20.3801 8.90165 20.3801 7.31917Z" fill="#A5F04B"/>
<path d="M16.1074 14.2372V7.76413C16.1074 6.73391 15.2696 5.89453 14.2378 5.89453H7.76481C6.73458 5.89453 5.8952 6.73236 5.8952 7.76413V14.2372C5.8952 15.2674 6.73303 16.1068 7.76481 16.1068H14.2378C15.2681 16.1068 16.1074 15.2689 16.1074 14.2372ZM7.76481 7.34367H14.2378C14.469 7.34367 14.6583 7.5314 14.6583 7.76413V8.86107H7.34434V7.76413C7.34434 7.53296 7.53208 7.34367 7.76481 7.34367ZM14.2394 14.6561H7.76636C7.53518 14.6561 7.34589 14.4683 7.34589 14.2356V10.3087H14.6598V14.2356C14.6598 14.4668 14.4721 14.6561 14.2394 14.6561Z" fill="#A5F04B"/>
<path d="M15.8571 7.76367C15.8569 6.87165 15.1313 6.14461 14.238 6.14453H7.76434C6.87242 6.14478 6.14545 6.87047 6.1452 7.76367V14.2373C6.14528 15.1294 6.87104 15.8562 7.76434 15.8564H14.238C15.1301 15.8564 15.857 15.1308 15.8571 14.2373V7.76367ZM14.4099 10.5586H7.59637V14.2354C7.59637 14.3294 7.67261 14.4062 7.7663 14.4062H14.239C14.333 14.4062 14.4099 14.3291 14.4099 14.2354V10.5586ZM14.4079 7.76367C14.4076 7.66987 14.3315 7.59383 14.238 7.59375H7.76434C7.67065 7.594 7.59467 7.67033 7.59442 7.76367V8.61133H14.4079V7.76367ZM14.9099 14.2354C14.9099 14.604 14.6104 14.9062 14.239 14.9062H7.7663C7.39768 14.9062 7.09637 14.6067 7.09637 14.2354V10.0586H14.9099V14.2354ZM14.9079 9.11133H7.09442V7.76367C7.09467 7.39539 7.39331 7.094 7.76434 7.09375H14.238C14.6064 7.09383 14.9076 7.39253 14.9079 7.76367V9.11133ZM16.3571 14.2373C16.357 15.4072 15.406 16.3564 14.238 16.3564H7.76434C6.59462 16.3562 5.64528 15.4052 5.6452 14.2373V7.76367C5.64545 6.59406 6.59655 5.64478 7.76434 5.64453H14.238C15.4077 5.64461 16.3569 6.59577 16.3571 7.76367V14.2373Z" fill="#A5F04B"/>
</g>
<defs>
<clipPath id="clip0_1_759">
<rect width="22" height="22" fill="white"/>
</clipPath>
</defs>
</svg>
