<svg width="22" height="22" viewBox="0 0 22 22" fill="none" xmlns="http://www.w3.org/2000/svg">
<g clip-path="url(#clip0_1_564)">
<path fill-rule="evenodd" clip-rule="evenodd" d="M11.1616 8.11319C10.4561 8.563 9.63663 8.80134 8.8 8.8C8.73108 8.79999 8.66218 8.79838 8.59334 8.79519L8.60392 8.8L6.84337 13.9402C8.02312 14.7294 8.8 16.074 8.8 17.6C8.8 20.03 6.83004 22 4.4 22C1.96996 22 0 20.03 0 17.6C0 15.17 1.96996 13.2 4.4 13.2C4.51963 13.2 4.63801 13.2048 4.75516 13.2142L6.42441 8.10425C5.20671 7.3216 4.4 5.95513 4.4 4.4C4.4 1.96996 6.36996 0 8.8 0C11.23 0 13.2 1.96996 13.2 4.4C13.2 5.15763 13.0085 5.8707 12.6712 6.4933L15.3414 9.42315C16.0237 9.01417 16.8045 8.79874 17.6 8.8C20.03 8.8 22 10.77 22 13.2C22 15.63 20.03 17.6 17.6 17.6C15.17 17.6 13.2 15.63 13.2 13.2C13.1988 12.4618 13.3842 11.7353 13.739 11.088L11.1616 8.11319ZM4.4 19.8C5.61509 19.8 6.6 18.8151 6.6 17.6C6.6 16.3849 5.61509 15.4 4.4 15.4C3.18491 15.4 2.2 16.3849 2.2 17.6C2.2 18.8151 3.18491 19.8 4.4 19.8ZM8.8 6.6C10.0151 6.6 11 5.61509 11 4.4C11 3.18491 10.0151 2.2 8.8 2.2C7.58491 2.2 6.6 3.18491 6.6 4.4C6.6 5.61509 7.58491 6.6 8.8 6.6ZM17.6 15.4C18.8151 15.4 19.8 14.4151 19.8 13.2C19.8 11.9849 18.8151 11 17.6 11C16.3849 11 15.4 11.9849 15.4 13.2C15.4 14.4151 16.3849 15.4 17.6 15.4Z" fill="#333333"/>
</g>
<defs>
<clipPath id="clip0_1_564">
<rect width="22" height="22" fill="white"/>
</clipPath>
</defs>
</svg>
