<svg width="425" height="257" viewBox="0 0 425 257" fill="none" xmlns="http://www.w3.org/2000/svg">
<path opacity="0.5" d="M-4.57304e-06 104.619L-1.3335e-06 30.507C-6.00673e-07 13.7418 13.7399 0.230282 30.5027 0.511231L103.265 1.73073C119.635 2.0051 132.762 15.354 132.762 31.7265L132.762 92.3809C132.762 108.949 146.193 122.381 162.762 122.381L224.367 122.381C240.936 122.381 254.367 108.949 254.367 92.3809L254.367 32.2251C254.367 15.6566 267.799 2.22512 284.367 2.22512L357.129 2.22512C373.698 2.22512 387.129 15.6566 387.129 32.2251L387.129 92.381C387.129 108.949 400.561 122.381 417.129 122.381L462 122.381C478.569 122.381 492 135.812 492 152.381L492 227C492 243.569 478.569 257 462 257L404.857 257C388.289 257 374.857 243.568 374.857 227L374.857 164.619C374.857 148.051 361.426 134.619 344.857 134.619L284.367 134.619C267.799 134.619 254.367 148.051 254.367 164.619L254.367 227C254.367 243.569 240.936 257 224.367 257L151.605 257C135.037 257 121.605 243.568 121.605 227L121.605 164.619C121.605 148.05 108.174 134.619 91.6054 134.619L30 134.619C13.4314 134.619 -5.29728e-06 121.188 -4.57304e-06 104.619Z" fill="url(#paint0_linear_1_290)"/>
<defs>
<linearGradient id="paint0_linear_1_290" x1="-82.5" y1="109.5" x2="422.094" y2="55.5651" gradientUnits="userSpaceOnUse">
<stop stop-color="#6C1EFF"/>
<stop offset="1" stop-color="#1D2B64"/>
</linearGradient>
</defs>
</svg>
