<svg width="22" height="22" viewBox="0 0 22 22" fill="none" xmlns="http://www.w3.org/2000/svg">
<g clip-path="url(#clip0_1_285)">
<path fill-rule="evenodd" clip-rule="evenodd" d="M7.67399 14.2053L2.25469 16.0036V6.03592L9.89883 8.53133V19.4067L4.54922 17.5505L7.67399 16.4795V14.2053ZM10.9988 6.57625L4.62119 4.49334L10.9988 2.30623L17.3765 4.49334L10.9988 6.57625ZM21.205 18.5763C21.6473 18.4227 21.9439 18.0059 21.944 17.5376V4.5202C21.944 4.05021 21.6453 3.63174 21.2007 3.47928L11.3555 0.103009C11.182 0.0435839 10.9974 0.0291924 10.8184 0.0589659L10.6422 0.103009L0.798047 3.47928C0.353489 3.63175 0.0546875 4.05022 0.0546875 4.5202V17.5376C0.0547836 18.0059 0.35139 18.4227 0.79375 18.5763L10.6379 21.9934C10.8715 22.0745 11.1272 22.0745 11.3608 21.9934L11.377 21.9881C11.3817 21.9864 11.3874 21.9843 11.3941 21.9819C11.4033 21.9784 11.4144 21.9743 11.4274 21.9698L11.6251 21.9011C11.6983 21.8756 11.7857 21.8454 11.886 21.8107C12.0206 21.764 12.1785 21.7094 12.3566 21.6475C12.6319 21.552 12.9557 21.4397 13.3169 21.3145C13.7726 21.1564 14.2878 20.9778 14.8402 20.786C15.8371 20.44 16.9558 20.0516 18.0663 19.666C19.1622 19.2855 20.2501 18.9078 21.205 18.5763ZM12.0988 19.4078V8.53133L19.744 6.03592V15.9929C19.374 15.865 18.9981 15.7354 18.6317 15.6091C18.2836 15.4891 17.9442 15.3721 17.6268 15.2624L16.2313 14.7801C16.131 14.7454 15.5644 14.5736 15.0816 14.4272C14.7231 14.3185 14.4108 14.2239 14.3697 14.2097V16.4956L15.0148 16.6871L15.1013 16.7169C15.1423 16.7311 15.1914 16.7479 15.2476 16.7673C15.3235 16.7934 15.4124 16.824 15.5127 16.8587L16.9081 17.341C16.9989 17.3724 17.0917 17.4043 17.1859 17.4367C17.2831 17.4702 17.3819 17.5041 17.4817 17.5387C16.8887 17.7445 16.292 17.9521 15.7112 18.1541C15.1607 18.3456 14.6245 18.5321 14.1194 18.7074C13.708 18.8502 13.3171 18.9856 12.9561 19.1107C12.6464 19.218 12.3586 19.3176 12.0988 19.4078Z" fill="white"/>
</g>
<defs>
<clipPath id="clip0_1_285">
<rect width="22" height="22" fill="white"/>
</clipPath>
</defs>
</svg>
