<svg width="22" height="22" viewBox="0 0 22 22" fill="none" xmlns="http://www.w3.org/2000/svg">
<path d="M16.3603 15.2598C16.3603 15.6572 16.146 16.0237 15.7996 16.2185L11.0016 18.9174L6.20355 16.2185C5.85718 16.0237 5.64284 15.6572 5.64284 15.2598V12.7184L4.11177 11.8678V15.5119C4.11177 16.3067 4.54047 17.0397 5.23319 17.4293L9.923 20.0673C10.5927 20.444 11.4104 20.444 12.0801 20.0673L16.77 17.4293C17.4627 17.0397 17.8914 16.3067 17.8914 15.5119V11.8678L16.3603 12.7184V15.2598Z" fill="#333333"/>
<path d="M11.0007 1.32617L0.283203 6.88337V8.21033L11.0007 14.1643L20.1871 9.06094V13.2887H21.7182V6.88337L11.0007 1.32617ZM11.0007 12.4132L2.28417 7.57049L11.0007 3.05082L19.7172 7.57049L11.0007 12.4132Z" fill="#333333"/>
<path d="M16.085 12.5566L16.2266 12.4775L18.166 11.4004V15.5117C18.166 16.4059 17.6836 17.2306 16.9043 17.6689L12.2148 20.3066C11.4614 20.7304 10.5415 20.7304 9.78809 20.3066L5.09863 17.6689C4.31931 17.2306 3.83691 16.4059 3.83691 15.5117V11.4004L5.77637 12.4775L5.91797 12.5566V15.2598C5.91797 15.5576 6.07842 15.8323 6.33789 15.9785L11.001 18.6016L15.665 15.9785C15.9246 15.8323 16.085 15.5577 16.085 15.2598V12.5566ZM21.8447 6.63965L21.9932 6.71582V13.5635H19.9121V9.52832L11.1338 14.4043L11.001 14.4785L0.149414 8.45117L0.0078125 8.37207V6.71582L0.15625 6.63965L10.874 1.08203L11.001 1.0166L21.8447 6.63965ZM0.558594 7.05078V8.04785L11 13.8496L20.4619 8.59375V13.0137H21.4434V7.05078L11 1.63574L0.558594 7.05078ZM20.2988 7.5625L19.8506 7.81055L11.1338 12.6533L11.001 12.7275L1.70312 7.5625L2.15723 7.32617L10.874 2.80664L11.001 2.74121L20.2988 7.5625ZM2.86523 7.57812L11 12.0986L19.1357 7.57812L11 3.36035L2.86523 7.57812ZM16.6357 15.2598C16.6357 15.7564 16.3674 16.2144 15.9346 16.458L11.1367 19.1572L11.002 19.2334L10.8672 19.1572L6.06836 16.458C5.63562 16.2144 5.36816 15.7564 5.36816 15.2598V12.8799L4.38672 12.335V15.5117C4.38672 16.2072 4.76203 16.8485 5.36816 17.1895L10.0576 19.8281C10.6435 20.1577 11.3594 20.1576 11.9453 19.8281L16.6348 17.1895C17.2409 16.8485 17.6162 16.2072 17.6162 15.5117V12.335L16.6357 12.8799V15.2598Z" fill="#333333"/>
</svg>
