<svg width="22" height="22" viewBox="0 0 22 22" fill="none" xmlns="http://www.w3.org/2000/svg">
<path d="M17.5478 0.361328H4.4542C4.02012 0.361328 3.60382 0.533765 3.29688 0.840705C2.98994 1.14765 2.8175 1.56395 2.8175 1.99802V20.0017C2.8175 20.4358 2.98994 20.8521 3.29688 21.159C3.60382 21.4659 4.02012 21.6384 4.4542 21.6384H17.5478C17.9819 21.6384 18.3982 21.4659 18.7051 21.159C19.012 20.8521 19.1845 20.4358 19.1845 20.0017V1.99802C19.1845 1.56395 19.012 1.14765 18.7051 0.840705C18.3982 0.533765 17.9819 0.361328 17.5478 0.361328ZM17.5478 1.99802V6.90811H4.4542V1.99802H17.5478ZM4.4542 13.4549V8.54481H17.5478V13.4549H4.4542ZM4.4542 20.0017V15.0916H17.5478V20.0017H4.4542Z" fill="#A5F04B"/>
<path d="M2.59729 20.0013V1.99844C2.59729 1.50601 2.79265 1.03287 3.14084 0.684668C3.48904 0.33647 3.96219 0.141113 4.45461 0.141113L4.4542 0.361328C4.02012 0.361328 3.60382 0.533765 3.29688 0.840705C2.98994 1.14765 2.8175 1.56395 2.8175 1.99802V20.0017C2.8175 20.4358 2.98994 20.8521 3.29688 21.159C3.56546 21.4276 3.91772 21.5937 4.29241 21.6309L4.4542 21.6384H17.5478C17.9274 21.6383 18.2938 21.5062 18.5849 21.2678L18.7051 21.159C19.012 20.8521 19.1845 20.4358 19.1845 20.0017V1.99802C19.1845 1.61818 19.0524 1.252 18.8137 0.960742L18.7051 0.840705C18.4365 0.572137 18.0841 0.406009 17.7094 0.368848L17.5478 0.361328L17.5483 0.141113C18.0405 0.141244 18.5129 0.336638 18.861 0.684668C19.2092 1.03287 19.4045 1.50601 19.4045 1.99844V20.0013C19.4045 20.4937 19.2092 20.9668 18.861 21.315C18.5129 21.6631 18.0405 21.8585 17.5483 21.8586H4.45461C3.96219 21.8586 3.48904 21.6632 3.14084 21.315C2.79265 20.9668 2.59729 20.4937 2.59729 20.0013ZM17.5478 15.0916V20.0017H4.4542V15.0916H17.5478ZM4.67375 19.7821H17.3281V15.3112H4.67375V19.7821ZM17.5478 8.54481V13.4549H4.4542V8.54481H17.5478ZM4.67375 13.2348H17.3281V8.76494H4.67375V13.2348ZM17.5478 1.99802V6.90811H4.4542V1.99802H17.5478ZM4.67375 6.68848H17.3281V2.21758H4.67375V6.68848ZM17.5483 0.141113L17.5478 0.361328H4.4542L4.45461 0.141113H17.5483Z" fill="#A5F04B"/>
<path d="M6.90899 5.27195C7.36095 5.27195 7.72733 4.90556 7.72733 4.4536C7.72733 4.00164 7.36095 3.63525 6.90899 3.63525C6.45702 3.63525 6.09064 4.00164 6.09064 4.4536C6.09064 4.90556 6.45702 5.27195 6.90899 5.27195Z" fill="#A5F04B"/>
<path d="M6.90899 11.8188C7.36095 11.8188 7.72733 11.4524 7.72733 11.0005C7.72733 10.5485 7.36095 10.1821 6.90899 10.1821C6.45702 10.1821 6.09064 10.5485 6.09064 11.0005C6.09064 11.4524 6.45702 11.8188 6.90899 11.8188Z" fill="#A5F04B"/>
<path d="M6.90899 18.3657C7.36095 18.3657 7.72733 17.9993 7.72733 17.5474C7.72733 17.0954 7.36095 16.729 6.90899 16.729C6.45702 16.729 6.09064 17.0954 6.09064 17.5474C6.09064 17.9993 6.45702 18.3657 6.90899 18.3657Z" fill="#A5F04B"/>
</svg>
