<svg width="22" height="22" viewBox="0 0 22 22" fill="none" xmlns="http://www.w3.org/2000/svg">
<g clip-path="url(#clip0_1_534)">
<path d="M19.7328 3.54043L12.1128 11.1605L10.5577 9.60539L18.1777 1.98535L19.7328 3.54043Z" fill="white"/>
<path d="M17.3807 13.6581C16.9673 15.3214 15.6255 16.594 13.9425 16.9181L9.54106 17.7647L3.95326 12.1769L4.80055 7.77615C5.12461 6.09311 6.39653 4.75072 8.05987 4.33729L20.4632 1.25474L17.3807 13.6581ZM8.5902 6.47242C7.75855 6.67915 7.12257 7.35035 6.96054 8.19185L6.33353 11.447L10.271 15.3844L13.5261 14.7574C14.3677 14.5954 15.0388 13.9595 15.2456 13.1278L17.447 4.27099L8.5902 6.47242Z" fill="white"/>
<path d="M0.859585 15.4959L2.92773 13.4277L4.48282 14.9828L2.41467 17.051L4.66926 19.3056L6.73741 17.2374L8.29318 18.7932L6.22503 20.8613C5.36588 21.7205 3.97264 21.7205 3.11349 20.8613L0.858895 18.6067C1.83447e-05 17.7476 0.00052318 16.3549 0.859585 15.4959Z" fill="white"/>
</g>
<defs>
<clipPath id="clip0_1_534">
<rect width="22" height="22" fill="white"/>
</clipPath>
</defs>
</svg>
