<svg width="22" height="22" viewBox="0 0 22 22" fill="none" xmlns="http://www.w3.org/2000/svg">
<path d="M10.3774 6.04871L5.92177 8.65846V3.43896L10.3774 6.04871Z" fill="#333333"/>
<path d="M11.2541 15.9513L15.7097 13.3416V18.5611L11.2541 15.9513Z" fill="#333333"/>
<path fill-rule="evenodd" clip-rule="evenodd" d="M6.75189 7.1186H6.04883C5.02768 7.11873 4.04819 7.52992 3.32595 8.26264C2.60368 8.99552 2.19745 9.99 2.19745 11.0266C2.19756 12.0631 2.60368 13.0578 3.32595 13.7906C4.04817 14.5231 5.0278 14.9345 6.04883 14.9346C7.46258 14.9346 8.79326 13.7052 9.69174 11.4198L11.6063 12.5402C10.3594 15.4945 8.39639 17.1636 6.04883 17.1636C4.44443 17.1635 2.90531 16.5173 1.77093 15.3665C0.636549 14.2155 0.000113025 12.654 0 11.0266C0 9.39918 0.636616 7.83775 1.77093 6.68676C2.90533 5.53585 4.44435 4.88973 6.04883 4.8896H6.75189V7.1186ZM5.75421 17.0465C5.8521 17.0515 5.95035 17.054 6.04883 17.054C5.85403 17.054 5.66029 17.0431 5.46809 17.024C5.56312 17.0335 5.65847 17.0417 5.75421 17.0465ZM9.65771 11.7925C9.67057 11.7627 9.68542 11.7336 9.69812 11.7034L9.70982 11.6744C9.69315 11.7143 9.67466 11.7532 9.65771 11.7925Z" fill="#333333"/>
<path fill-rule="evenodd" clip-rule="evenodd" d="M15.9512 4.8896C17.5556 4.88973 19.0947 5.53585 20.2291 6.68676C21.3634 7.83775 22 9.39918 22 11.0266C21.9999 12.654 21.3635 14.2155 20.2291 15.3665C19.0947 16.5173 17.5556 17.1635 15.9512 17.1636H15.2481V14.9346H15.9512C16.9722 14.9345 17.9518 14.5231 18.674 13.7906C19.3963 13.0578 19.8024 12.0631 19.8026 11.0266C19.8026 9.99 19.3963 8.99552 18.674 8.26264C17.9518 7.52992 16.9723 7.11873 15.9512 7.1186C14.5376 7.1186 13.2056 8.34662 12.3072 10.6313L10.3937 9.51088C11.6406 6.55755 13.604 4.8896 15.9512 4.8896ZM16.5298 17.024C16.3383 17.043 16.1453 17.053 15.9512 17.053L16.2458 17.0465C16.3408 17.0417 16.4355 17.0333 16.5298 17.024ZM12.1179 6.8726C12.0906 6.90357 12.064 6.93539 12.037 6.96713C12.1231 6.86598 12.2106 6.76857 12.2997 6.67495L12.1179 6.8726Z" fill="#333333"/>
</svg>
