<svg width="80" height="69" viewBox="0 0 80 69" fill="none" xmlns="http://www.w3.org/2000/svg">
<g filter="url(#filter0_d_1_619)">
<mask id="path-1-outside-1_1_619" maskUnits="userSpaceOnUse" x="-2.72522" y="-3.21209" width="55.4518" height="63.1541" fill="black">
<rect fill="white" x="-2.72522" y="-3.21209" width="55.4518" height="63.1541"/>
<path d="M34.1627 29.7047L17.337 33.2812C15.6636 33.6369 13.9179 33.3155 12.4839 32.3877C11.05 31.46 10.0452 30.0019 9.69074 28.3341L7.90861 19.9499C7.55413 18.2822 7.87892 16.5415 8.81155 15.1107C9.74418 13.6799 11.2082 12.6763 12.8817 12.3206L29.7074 8.74418C31.3808 8.38848 33.1265 8.70985 34.5605 9.6376C35.9944 10.5653 36.9992 12.0235 37.3536 13.6912L39.1358 22.0754C39.4902 23.7431 39.1655 25.4839 38.2328 26.9146C37.3002 28.3454 35.8361 29.349 34.1627 29.7047ZM13.7727 16.5127C13.2149 16.6313 12.7269 16.9658 12.416 17.4427C12.1051 17.9197 11.9969 18.4999 12.115 19.0558L13.8972 27.44C14.0153 27.996 14.3502 28.482 14.8282 28.7912C15.3062 29.1005 15.8881 29.2076 16.4459 29.089L33.2716 25.5126C33.8295 25.3941 34.3175 25.0595 34.6283 24.5826C34.9392 24.1057 35.0475 23.5254 34.9293 22.9695L33.1472 14.5853C33.029 14.0294 32.6941 13.5433 32.2162 13.2341C31.7382 12.9248 31.1563 12.8177 30.5985 12.9363L13.7727 16.5127Z"/>
<path d="M19.7614 24.0017C19.2029 24.1124 18.6234 24.0086 18.1389 23.7113C17.7318 23.4705 17.4161 23.1023 17.2407 22.664C17.0653 22.2256 17.0402 21.7416 17.1691 21.287C17.2981 20.8325 17.5739 20.433 17.9538 20.1505C18.3337 19.8679 18.7964 19.7183 19.2699 19.7247C19.4134 19.7145 19.5575 19.7283 19.6963 19.7655C19.8344 19.7799 19.9689 19.818 20.0939 19.8781L20.4839 20.0581C20.8574 20.2824 21.1534 20.6148 21.3327 21.011C21.512 21.4073 21.566 21.8487 21.4876 22.2766C21.4092 22.7046 21.202 23.0988 20.8937 23.4069C20.5854 23.715 20.1905 23.9225 19.7614 24.0017Z"/>
<path d="M28.1716 22.2142C27.7544 22.3055 27.3195 22.2708 26.9225 22.1146C26.5254 21.9585 26.1842 21.6879 25.9423 21.3375C25.7004 20.987 25.5687 20.5725 25.5641 20.1469C25.5595 19.7212 25.6822 19.3036 25.9165 18.9474C26.0711 18.7103 26.2709 18.5058 26.5046 18.3455C26.7384 18.1853 27.0014 18.0725 27.2787 18.0136C27.5561 17.9546 27.8423 17.9507 28.121 18.002C28.3997 18.0533 28.6654 18.1588 28.9031 18.3126C29.1407 18.4663 29.3456 18.6653 29.506 18.8981C29.6664 19.1309 29.7792 19.3929 29.8379 19.6693C29.8967 19.9457 29.9002 20.231 29.8484 20.5089C29.7965 20.7868 29.6903 21.0519 29.5357 21.289C29.4524 21.4058 29.3576 21.514 29.2527 21.612C29.1629 21.7178 29.0555 21.8074 28.9352 21.8767C28.8235 21.9671 28.6975 22.0383 28.5623 22.0874L28.1716 22.2142Z"/>
<path d="M21.7411 12.6274C21.1833 12.746 20.6014 12.6389 20.1234 12.3296C19.6454 12.0204 19.3105 11.5343 19.1923 10.9784L18.7468 8.88238C18.6286 8.32647 18.7369 7.74623 19.0478 7.26931C19.3587 6.79238 19.8467 6.45784 20.4045 6.33927C20.9623 6.22071 21.5442 6.32783 22.0222 6.63708C22.5002 6.94633 22.8351 7.43237 22.9532 7.98828L23.3988 10.0843C23.5169 10.6402 23.4087 11.2205 23.0978 11.6974C22.7869 12.1743 22.2989 12.5089 21.7411 12.6274Z"/>
<path d="M23.4503 51.6972C22.8925 51.8158 22.3106 51.7086 21.8326 51.3994C21.3546 51.0901 21.0197 50.6041 20.9015 50.0482L19.5649 43.76C19.4468 43.2041 19.555 42.6239 19.8659 42.1469C20.1768 41.67 20.6648 41.3355 21.2226 41.2169C21.7804 41.0983 22.3623 41.2055 22.8403 41.5147C23.3183 41.824 23.6532 42.31 23.7714 42.8659L25.108 49.1541C25.2261 49.71 25.1179 50.2902 24.807 50.7672C24.4961 51.2441 24.0081 51.5786 23.4503 51.6972Z"/>
<path d="M36.0707 49.0146C35.5129 49.1332 34.931 49.0261 34.4531 48.7168C33.9751 48.4076 33.6402 47.9215 33.522 47.3656L32.1854 41.0775C32.0672 40.5216 32.1755 39.9413 32.4864 39.4644C32.7973 38.9875 33.2853 38.6529 33.8431 38.5344C34.4009 38.4158 34.9828 38.5229 35.4608 38.8322C35.9388 39.1414 36.2737 39.6274 36.3918 40.1834L37.7284 46.4715C37.8466 47.0274 37.7383 47.6077 37.4274 48.0846C37.1166 48.5615 36.6285 48.8961 36.0707 49.0146Z"/>
<path d="M34.733 42.7266L22.1137 45.409C21.5559 45.5275 20.974 45.4204 20.496 45.1112C20.018 44.8019 19.6831 44.3159 19.5649 43.76L16.8917 31.1836C16.7736 30.6277 16.8818 30.0475 17.1927 29.5705C17.5036 29.0936 17.9916 28.7591 18.5494 28.6405L31.1687 25.9582C31.7265 25.8396 32.3084 25.9467 32.7864 26.256C33.2644 26.5652 33.5993 27.0513 33.7175 27.6072L36.3918 40.1834C36.51 40.7393 36.4005 41.3197 36.0897 41.7966C35.7788 42.2735 35.2908 42.6081 34.733 42.7266ZM23.3258 40.7698L31.7387 38.9816L29.9566 30.5974L21.5437 32.3856L23.3258 40.7698Z"/>
<path d="M12.4442 43.1573C12.0555 43.2387 11.652 43.2113 11.2784 43.078C10.9047 42.9447 10.5755 42.7109 10.3273 42.4024C9.9726 41.9604 9.80804 41.3961 9.86958 40.833C9.93112 40.2698 10.2137 39.7535 10.6557 39.397L18.1775 33.4166C18.3937 33.2153 18.6492 33.0606 18.928 32.9621C19.2068 32.8637 19.5028 32.8235 19.7977 32.8442C20.0926 32.865 20.3799 32.9461 20.6418 33.0826C20.9036 33.219 21.1343 33.4079 21.3195 33.6374C21.5047 33.8669 21.6404 34.132 21.718 34.4163C21.7957 34.7006 21.8137 34.9978 21.7709 35.2895C21.728 35.5812 21.6254 35.861 21.4692 36.1115C21.3131 36.3619 21.1069 36.5777 20.8634 36.7453L13.3416 42.7256C13.0837 42.9426 12.775 43.0911 12.4442 43.1573Z"/>
<path d="M42.4868 36.7647C42.1577 36.8388 41.8152 36.8287 41.4913 36.7353L32.1874 34.3314C31.8969 34.2774 31.6207 34.1641 31.3762 33.9988C31.1317 33.8335 30.9241 33.6196 30.7663 33.3706C30.6086 33.1215 30.5041 32.8427 30.4594 32.5514C30.4148 32.2601 30.4308 31.9627 30.5067 31.6777C30.5825 31.3928 30.7164 31.1264 30.9001 30.8952C31.0838 30.664 31.3133 30.473 31.5743 30.3342C31.8352 30.1953 32.1221 30.1116 32.4168 30.0881C32.7115 30.0647 33.0079 30.1021 33.2873 30.1981L42.5912 32.602C43.14 32.748 43.6081 33.1047 43.8934 33.5941C44.1787 34.0836 44.2578 34.666 44.1136 35.214C44.0123 35.5968 43.8067 35.9443 43.5195 36.2181C43.2324 36.4918 42.8749 36.681 42.4868 36.7647Z"/>
</mask>
<path d="M34.1627 29.7047L17.337 33.2812C15.6636 33.6369 13.9179 33.3155 12.4839 32.3877C11.05 31.46 10.0452 30.0019 9.69074 28.3341L7.90861 19.9499C7.55413 18.2822 7.87892 16.5415 8.81155 15.1107C9.74418 13.6799 11.2082 12.6763 12.8817 12.3206L29.7074 8.74418C31.3808 8.38848 33.1265 8.70985 34.5605 9.6376C35.9944 10.5653 36.9992 12.0235 37.3536 13.6912L39.1358 22.0754C39.4902 23.7431 39.1655 25.4839 38.2328 26.9146C37.3002 28.3454 35.8361 29.349 34.1627 29.7047ZM13.7727 16.5127C13.2149 16.6313 12.7269 16.9658 12.416 17.4427C12.1051 17.9197 11.9969 18.4999 12.115 19.0558L13.8972 27.44C14.0153 27.996 14.3502 28.482 14.8282 28.7912C15.3062 29.1005 15.8881 29.2076 16.4459 29.089L33.2716 25.5126C33.8295 25.3941 34.3175 25.0595 34.6283 24.5826C34.9392 24.1057 35.0475 23.5254 34.9293 22.9695L33.1472 14.5853C33.029 14.0294 32.6941 13.5433 32.2162 13.2341C31.7382 12.9248 31.1563 12.8177 30.5985 12.9363L13.7727 16.5127Z" fill="#A5F04B"/>
<path d="M19.7614 24.0017C19.2029 24.1124 18.6234 24.0086 18.1389 23.7113C17.7318 23.4705 17.4161 23.1023 17.2407 22.664C17.0653 22.2256 17.0402 21.7416 17.1691 21.287C17.2981 20.8325 17.5739 20.433 17.9538 20.1505C18.3337 19.8679 18.7964 19.7183 19.2699 19.7247C19.4134 19.7145 19.5575 19.7283 19.6963 19.7655C19.8344 19.7799 19.9689 19.818 20.0939 19.8781L20.4839 20.0581C20.8574 20.2824 21.1534 20.6148 21.3327 21.011C21.512 21.4073 21.566 21.8487 21.4876 22.2766C21.4092 22.7046 21.202 23.0988 20.8937 23.4069C20.5854 23.715 20.1905 23.9225 19.7614 24.0017Z" fill="#A5F04B"/>
<path d="M28.1716 22.2142C27.7544 22.3055 27.3195 22.2708 26.9225 22.1146C26.5254 21.9585 26.1842 21.6879 25.9423 21.3375C25.7004 20.987 25.5687 20.5725 25.5641 20.1469C25.5595 19.7212 25.6822 19.3036 25.9165 18.9474C26.0711 18.7103 26.2709 18.5058 26.5046 18.3455C26.7384 18.1853 27.0014 18.0725 27.2787 18.0136C27.5561 17.9546 27.8423 17.9507 28.121 18.002C28.3997 18.0533 28.6654 18.1588 28.9031 18.3126C29.1407 18.4663 29.3456 18.6653 29.506 18.8981C29.6664 19.1309 29.7792 19.3929 29.8379 19.6693C29.8967 19.9457 29.9002 20.231 29.8484 20.5089C29.7965 20.7868 29.6903 21.0519 29.5357 21.289C29.4524 21.4058 29.3576 21.514 29.2527 21.612C29.1629 21.7178 29.0555 21.8074 28.9352 21.8767C28.8235 21.9671 28.6975 22.0383 28.5623 22.0874L28.1716 22.2142Z" fill="#A5F04B"/>
<path d="M21.7411 12.6274C21.1833 12.746 20.6014 12.6389 20.1234 12.3296C19.6454 12.0204 19.3105 11.5343 19.1923 10.9784L18.7468 8.88238C18.6286 8.32647 18.7369 7.74623 19.0478 7.26931C19.3587 6.79238 19.8467 6.45784 20.4045 6.33927C20.9623 6.22071 21.5442 6.32783 22.0222 6.63708C22.5002 6.94633 22.8351 7.43237 22.9532 7.98828L23.3988 10.0843C23.5169 10.6402 23.4087 11.2205 23.0978 11.6974C22.7869 12.1743 22.2989 12.5089 21.7411 12.6274Z" fill="#A5F04B"/>
<path d="M23.4503 51.6972C22.8925 51.8158 22.3106 51.7086 21.8326 51.3994C21.3546 51.0901 21.0197 50.6041 20.9015 50.0482L19.5649 43.76C19.4468 43.2041 19.555 42.6239 19.8659 42.1469C20.1768 41.67 20.6648 41.3355 21.2226 41.2169C21.7804 41.0983 22.3623 41.2055 22.8403 41.5147C23.3183 41.824 23.6532 42.31 23.7714 42.8659L25.108 49.1541C25.2261 49.71 25.1179 50.2902 24.807 50.7672C24.4961 51.2441 24.0081 51.5786 23.4503 51.6972Z" fill="#A5F04B"/>
<path d="M36.0707 49.0146C35.5129 49.1332 34.931 49.0261 34.4531 48.7168C33.9751 48.4076 33.6402 47.9215 33.522 47.3656L32.1854 41.0775C32.0672 40.5216 32.1755 39.9413 32.4864 39.4644C32.7973 38.9875 33.2853 38.6529 33.8431 38.5344C34.4009 38.4158 34.9828 38.5229 35.4608 38.8322C35.9388 39.1414 36.2737 39.6274 36.3918 40.1834L37.7284 46.4715C37.8466 47.0274 37.7383 47.6077 37.4274 48.0846C37.1166 48.5615 36.6285 48.8961 36.0707 49.0146Z" fill="#A5F04B"/>
<path d="M34.733 42.7266L22.1137 45.409C21.5559 45.5275 20.974 45.4204 20.496 45.1112C20.018 44.8019 19.6831 44.3159 19.5649 43.76L16.8917 31.1836C16.7736 30.6277 16.8818 30.0475 17.1927 29.5705C17.5036 29.0936 17.9916 28.7591 18.5494 28.6405L31.1687 25.9582C31.7265 25.8396 32.3084 25.9467 32.7864 26.256C33.2644 26.5652 33.5993 27.0513 33.7175 27.6072L36.3918 40.1834C36.51 40.7393 36.4005 41.3197 36.0897 41.7966C35.7788 42.2735 35.2908 42.6081 34.733 42.7266ZM23.3258 40.7698L31.7387 38.9816L29.9566 30.5974L21.5437 32.3856L23.3258 40.7698Z" fill="#A5F04B"/>
<path d="M12.4442 43.1573C12.0555 43.2387 11.652 43.2113 11.2784 43.078C10.9047 42.9447 10.5755 42.7109 10.3273 42.4024C9.9726 41.9604 9.80804 41.3961 9.86958 40.833C9.93112 40.2698 10.2137 39.7535 10.6557 39.397L18.1775 33.4166C18.3937 33.2153 18.6492 33.0606 18.928 32.9621C19.2068 32.8637 19.5028 32.8235 19.7977 32.8442C20.0926 32.865 20.3799 32.9461 20.6418 33.0826C20.9036 33.219 21.1343 33.4079 21.3195 33.6374C21.5047 33.8669 21.6404 34.132 21.718 34.4163C21.7957 34.7006 21.8137 34.9978 21.7709 35.2895C21.728 35.5812 21.6254 35.861 21.4692 36.1115C21.3131 36.3619 21.1069 36.5777 20.8634 36.7453L13.3416 42.7256C13.0837 42.9426 12.775 43.0911 12.4442 43.1573Z" fill="#A5F04B"/>
<path d="M42.4868 36.7647C42.1577 36.8388 41.8152 36.8287 41.4913 36.7353L32.1874 34.3314C31.8969 34.2774 31.6207 34.1641 31.3762 33.9988C31.1317 33.8335 30.9241 33.6196 30.7663 33.3706C30.6086 33.1215 30.5041 32.8427 30.4594 32.5514C30.4148 32.2601 30.4308 31.9627 30.5067 31.6777C30.5825 31.3928 30.7164 31.1264 30.9001 30.8952C31.0838 30.664 31.3133 30.473 31.5743 30.3342C31.8352 30.1953 32.1221 30.1116 32.4168 30.0881C32.7115 30.0647 33.0079 30.1021 33.2873 30.1981L42.5912 32.602C43.14 32.748 43.6081 33.1047 43.8934 33.5941C44.1787 34.0836 44.2578 34.666 44.1136 35.214C44.0123 35.5968 43.8067 35.9443 43.5195 36.2181C43.2324 36.4918 42.8749 36.681 42.4868 36.7647Z" fill="#A5F04B"/>
<path d="M12.8817 12.3206L11.8421 7.42986L12.8817 12.3206ZM37.3536 13.6912L42.2444 12.6516L37.3536 13.6912ZM39.1358 22.0754L44.0265 21.0359L39.1358 22.0754ZM19.7614 24.0017L18.8535 19.0848L18.8216 19.0907L18.7897 19.097L19.7614 24.0017ZM18.1389 23.7113L20.7544 19.4499L20.7195 19.4285L20.6843 19.4077L18.1389 23.7113ZM19.2699 19.7247L19.2023 24.7242L19.4133 24.7271L19.6239 24.7121L19.2699 19.7247ZM19.6963 19.7655L18.4018 24.595L18.7842 24.6975L19.1779 24.7385L19.6963 19.7655ZM20.0939 19.8781L17.9263 24.3838L17.9623 24.4011L17.9986 24.4179L20.0939 19.8781ZM20.4839 20.0581L23.058 15.7717L22.8255 15.632L22.5793 15.5184L20.4839 20.0581ZM28.1716 22.2142L29.2395 27.0989L29.4808 27.0461L29.7158 26.9698L28.1716 22.2142ZM25.9165 18.9474L30.0939 21.695L30.0996 21.6864L30.1052 21.6777L25.9165 18.9474ZM29.5357 21.289L33.6069 24.1917L33.6674 24.1067L33.7244 24.0193L29.5357 21.289ZM29.2527 21.612L25.8398 17.9579L25.6276 18.1561L25.4398 18.3776L29.2527 21.612ZM28.9352 21.8767L26.4389 17.5444L26.0959 17.742L25.7883 17.9912L28.9352 21.8767ZM28.5623 22.0874L30.1065 26.843L30.1875 26.8167L30.2676 26.7876L28.5623 22.0874ZM21.7411 12.6274L22.7806 17.5182L21.7411 12.6274ZM20.4045 6.33927L19.3649 1.44853L20.4045 6.33927ZM20.9015 50.0482L25.7923 49.0086L20.9015 50.0482ZM19.5649 43.76L24.4557 42.7205L19.5649 43.76ZM16.8917 31.1836L21.7825 30.1441L16.8917 31.1836ZM33.7175 27.6072L28.8267 28.6468L28.8268 28.6472L33.7175 27.6072ZM23.3258 40.7698L18.4351 41.8093L19.4746 46.7001L24.3654 45.6605L23.3258 40.7698ZM31.7387 38.9816L32.7782 43.8723L37.669 42.8328L36.6294 37.942L31.7387 38.9816ZM29.9566 30.5974L34.8473 29.5578L33.8077 24.6671L28.917 25.7066L29.9566 30.5974ZM21.5437 32.3856L20.5041 27.4948L15.6134 28.5344L16.653 33.4251L21.5437 32.3856ZM12.4442 43.1573L11.463 38.2545L11.4412 38.2589L11.4194 38.2635L12.4442 43.1573ZM10.3273 42.4024L6.42763 45.5317L6.4318 45.5369L10.3273 42.4024ZM10.6557 39.397L7.54401 35.4832L7.52998 35.4944L7.51603 35.5056L10.6557 39.397ZM18.1775 33.4166L21.2892 37.3304L21.4417 37.2091L21.5843 37.0764L18.1775 33.4166ZM20.8634 36.7453L18.0286 32.6265L17.8867 32.7243L17.7517 32.8315L20.8634 36.7453ZM13.3416 42.7256L10.2299 38.8118L10.1756 38.855L10.1226 38.8997L13.3416 42.7256ZM42.4868 36.7647L41.4325 31.8771L41.4107 31.8818L41.389 31.8867L42.4868 36.7647ZM41.4913 36.7353L42.876 31.9309L42.8093 31.9116L42.7421 31.8943L41.4913 36.7353ZM32.1874 34.3314L33.4382 29.4904L33.2713 29.4473L33.1019 29.4157L32.1874 34.3314ZM33.2873 30.1981L31.6635 34.9271L31.8478 34.9904L32.0365 35.0391L33.2873 30.1981ZM42.5912 32.602L43.8767 27.7701L43.8593 27.7654L43.842 27.761L42.5912 32.602ZM44.1136 35.214L48.9472 36.4931L48.9489 36.4866L44.1136 35.214ZM34.1627 29.7047L33.1231 24.814L16.2974 28.3904L17.337 33.2812L18.3765 38.1719L35.2023 34.5955L34.1627 29.7047ZM17.337 33.2812L16.2974 28.3904C15.9157 28.4716 15.5209 28.3974 15.1999 28.1898L12.4839 32.3877L9.76786 36.5857C12.3148 38.2336 15.4114 38.8022 18.3765 38.1719L17.337 33.2812ZM12.4839 32.3877L15.1999 28.1898C14.8797 27.9826 14.6591 27.6598 14.5815 27.2946L9.69074 28.3341L4.8 29.3737C5.43134 32.3439 7.2202 34.9374 9.76786 36.5857L12.4839 32.3877ZM9.69074 28.3341L14.5815 27.2946L12.7994 18.9104L7.90861 19.9499L3.01788 20.9895L4.8 29.3737L9.69074 28.3341ZM7.90861 19.9499L12.7994 18.9104C12.7217 18.5451 12.792 18.1606 13.0003 17.841L8.81155 15.1107L4.62285 12.3804C2.96587 14.9224 2.38653 18.0193 3.01788 20.9895L7.90861 19.9499ZM8.81155 15.1107L13.0003 17.841C13.209 17.5208 13.5395 17.2925 13.9212 17.2113L12.8817 12.3206L11.8421 7.42986C8.87696 8.06012 6.27938 9.83902 4.62285 12.3804L8.81155 15.1107ZM12.8817 12.3206L13.9212 17.2113L30.747 13.6349L29.7074 8.74418L28.6678 3.85344L11.8421 7.42986L12.8817 12.3206ZM29.7074 8.74418L30.747 13.6349C31.1286 13.5538 31.5235 13.628 31.8444 13.8356L34.5605 9.6376L37.2765 5.43961C34.7295 3.79175 31.633 3.22318 28.6678 3.85344L29.7074 8.74418ZM34.5605 9.6376L31.8444 13.8356C32.1647 14.0428 32.3853 14.3655 32.4629 14.7307L37.3536 13.6912L42.2444 12.6516C41.613 9.68141 39.8242 7.08791 37.2765 5.43961L34.5605 9.6376ZM37.3536 13.6912L32.4629 14.7307L34.245 23.115L39.1358 22.0754L44.0265 21.0359L42.2444 12.6516L37.3536 13.6912ZM39.1358 22.0754L34.245 23.115C34.3227 23.4802 34.2524 23.8648 34.0441 24.1843L38.2328 26.9146L42.4215 29.645C44.0785 27.103 44.6578 24.0061 44.0265 21.0359L39.1358 22.0754ZM38.2328 26.9146L34.0441 24.1843C33.8354 24.5045 33.5048 24.7329 33.1231 24.814L34.1627 29.7047L35.2023 34.5955C38.1674 33.9652 40.765 32.1863 42.4215 29.645L38.2328 26.9146ZM13.7727 16.5127L12.7332 11.622C10.8836 12.0151 9.2621 13.1249 8.22732 14.7124L12.416 17.4427L16.6047 20.1731C16.1917 20.8067 15.5462 21.2474 14.8123 21.4034L13.7727 16.5127ZM12.416 17.4427L8.22732 14.7124C7.1921 16.3006 6.82929 18.237 7.22431 20.0954L12.115 19.0558L17.0058 18.0163C17.1645 18.7629 17.0182 19.5388 16.6047 20.1731L12.416 17.4427ZM12.115 19.0558L7.22431 20.0954L9.00643 28.4796L13.8972 27.44L18.7879 26.4005L17.0058 18.0163L12.115 19.0558ZM13.8972 27.44L9.00643 28.4796C9.40145 30.338 10.5205 31.9594 12.1122 32.9892L14.8282 28.7912L17.5443 24.5933C18.18 25.0046 18.6292 25.6539 18.7879 26.4005L13.8972 27.44ZM14.8282 28.7912L12.1122 32.9892C13.7032 34.0186 15.6359 34.3729 17.4855 33.9798L16.4459 29.089L15.4064 24.1983C16.1403 24.0423 16.9092 24.1824 17.5443 24.5933L14.8282 28.7912ZM16.4459 29.089L17.4855 33.9798L34.3112 30.4034L33.2716 25.5126L32.2321 20.6219L15.4064 24.1983L16.4459 29.089ZM33.2716 25.5126L34.3112 30.4034C36.1607 30.0102 37.7823 28.9004 38.8171 27.3129L34.6283 24.5826L30.4396 21.8523C30.8527 21.2186 31.4982 20.7779 32.2321 20.6219L33.2716 25.5126ZM34.6283 24.5826L38.8171 27.3129C39.8523 25.7248 40.2151 23.7884 39.8201 21.93L34.9293 22.9695L30.0386 24.0091C29.8799 23.2625 30.0262 22.4866 30.4396 21.8523L34.6283 24.5826ZM34.9293 22.9695L39.8201 21.93L38.0379 13.5457L33.1472 14.5853L28.2565 15.6249L30.0386 24.0091L34.9293 22.9695ZM33.1472 14.5853L38.0379 13.5457C37.6429 11.6873 36.5239 10.0659 34.9322 9.03611L32.2162 13.2341L29.5001 17.4321C28.8644 17.0208 28.4152 16.3714 28.2565 15.6249L33.1472 14.5853ZM32.2162 13.2341L34.9322 9.03611C33.3412 8.00675 31.4084 7.65242 29.5589 8.04555L30.5985 12.9363L31.638 17.827C30.9041 17.983 30.1352 17.843 29.5001 17.4321L32.2162 13.2341ZM30.5985 12.9363L29.5589 8.04555L12.7332 11.622L13.7727 16.5127L14.8123 21.4034L31.638 17.827L30.5985 12.9363ZM19.7614 24.0017L18.7897 19.097C19.4631 18.9636 20.1647 19.088 20.7544 19.4499L18.1389 23.7113L15.5234 27.9726C17.082 28.9293 18.9427 29.2611 20.733 28.9064L19.7614 24.0017ZM18.1389 23.7113L20.6843 19.4077C21.2252 19.7276 21.6477 20.2187 21.883 20.8068L17.2407 22.664L12.5984 24.5211C13.1844 25.9859 14.2384 27.2134 15.5935 28.0149L18.1389 23.7113ZM17.2407 22.664L21.883 20.8068C22.1183 21.3951 22.1517 22.044 21.9793 22.6517L17.1691 21.287L12.3589 19.9224C11.9286 21.4391 12.0123 23.0561 12.5984 24.5211L17.2407 22.664ZM17.1691 21.287L21.9793 22.6517C21.8069 23.2591 21.4394 23.7893 20.9376 24.1626L17.9538 20.1505L14.97 16.1383C13.7084 17.0766 12.7892 18.4059 12.3589 19.9224L17.1691 21.287ZM17.9538 20.1505L20.9376 24.1626C20.4359 24.5356 19.8262 24.7326 19.2023 24.7242L19.2699 19.7247L19.3376 14.7251C17.7665 14.7039 16.2314 15.2002 14.97 16.1383L17.9538 20.1505ZM19.2699 19.7247L19.6239 24.7121C19.2132 24.7413 18.8002 24.7018 18.4018 24.595L19.6963 19.7655L20.9907 14.936C20.3147 14.7548 19.6135 14.6877 18.916 14.7372L19.2699 19.7247ZM19.6963 19.7655L19.1779 24.7385C18.744 24.6933 18.3205 24.5735 17.9263 24.3838L20.0939 19.8781L22.2616 15.3724C21.6173 15.0625 20.9248 14.8664 20.2146 14.7924L19.6963 19.7655ZM20.0939 19.8781L17.9986 24.4179L18.3885 24.5979L20.4839 20.0581L22.5793 15.5184L22.1893 15.3384L20.0939 19.8781ZM20.4839 20.0581L17.9098 24.3446C17.4135 24.0466 17.0176 23.6033 16.7772 23.072L21.3327 21.011L25.8882 18.9501C25.2892 17.6262 24.3012 16.5182 23.058 15.7717L20.4839 20.0581ZM21.3327 21.011L16.7772 23.072C16.5368 22.5405 16.4645 21.9485 16.5694 21.3756L21.4876 22.2766L26.4057 23.1777C26.6675 21.7489 26.4872 20.274 25.8882 18.9501L21.3327 21.011ZM21.4876 22.2766L16.5694 21.3756C16.6744 20.8028 16.951 20.2783 17.3593 19.8703L20.8937 23.4069L24.4282 26.9435C25.4531 25.9192 26.144 24.6063 26.4057 23.1777L21.4876 22.2766ZM20.8937 23.4069L17.3593 19.8703C17.7675 19.4624 18.2887 19.1891 18.8535 19.0848L19.7614 24.0017L20.6693 28.9186C22.0923 28.6559 23.4034 27.9677 24.4282 26.9435L20.8937 23.4069ZM28.1716 22.2142L27.1037 17.3296C27.653 17.2095 28.2268 17.2548 28.7525 17.4616L26.9225 22.1146L25.0925 26.7677C26.4123 27.2868 27.8558 27.4014 29.2395 27.0989L28.1716 22.2142ZM26.9225 22.1146L28.7525 17.4616C29.2784 17.6684 29.7333 18.028 30.0571 18.497L25.9423 21.3375L21.8275 24.178C22.6351 25.3479 23.7725 26.2486 25.0925 26.7677L26.9225 22.1146ZM25.9423 21.3375L30.0571 18.497C30.3809 18.9661 30.5577 19.5219 30.5638 20.0929L25.5641 20.1469L20.5644 20.2008C20.5798 21.6231 21.0198 23.0079 21.8275 24.178L25.9423 21.3375ZM25.5641 20.1469L30.5638 20.0929C30.57 20.6638 30.4054 21.2214 30.0939 21.695L25.9165 18.9474L21.7391 16.1998C20.959 17.3859 20.5491 18.7786 20.5644 20.2008L25.5641 20.1469ZM25.9165 18.9474L30.1052 21.6777C29.9012 21.9907 29.6382 22.2595 29.3317 22.4696L26.5046 18.3455L23.6776 14.2215C22.9036 14.752 22.2409 15.4299 21.7278 16.2171L25.9165 18.9474ZM26.5046 18.3455L29.3317 22.4696C29.0253 22.6796 28.6809 22.8272 28.3183 22.9043L27.2787 18.0136L26.2392 13.1228C25.3219 13.3178 24.4515 13.691 23.6776 14.2215L26.5046 18.3455ZM27.2787 18.0136L28.3183 22.9043C27.9557 22.9814 27.5811 22.9866 27.2157 22.9193L28.121 18.002L29.0262 13.0846C28.1034 12.9147 27.1565 12.9278 26.2392 13.1228L27.2787 18.0136ZM28.121 18.002L27.2157 22.9193C26.8503 22.8521 26.5006 22.7135 26.187 22.5106L28.9031 18.3126L31.6191 14.1146C30.8302 13.6042 29.9491 13.2545 29.0262 13.0846L28.121 18.002ZM28.9031 18.3126L26.187 22.5106C25.8734 22.3076 25.6019 22.0443 25.3888 21.7351L29.506 18.8981L33.6232 16.0611C33.0893 15.2862 32.408 14.625 31.6191 14.1146L28.9031 18.3126ZM29.506 18.8981L25.3888 21.7351C25.1756 21.4258 25.0254 21.077 24.9472 20.7089L29.8379 19.6693L34.7287 18.6297C34.5329 17.7088 34.1571 16.836 33.6232 16.0611L29.506 18.8981ZM29.8379 19.6693L24.9472 20.7089C24.8689 20.3407 24.8643 19.961 24.9332 19.5918L29.8484 20.5089L34.7635 21.426C34.9361 20.5009 34.9244 19.5507 34.7287 18.6297L29.8379 19.6693ZM29.8484 20.5089L24.9332 19.5918C25.0021 19.2226 25.143 18.8716 25.347 18.5586L29.5357 21.289L33.7244 24.0193C34.2375 23.2321 34.5909 22.351 34.7635 21.426L29.8484 20.5089ZM29.5357 21.289L25.4645 18.3863C25.5752 18.2311 25.7009 18.0876 25.8398 17.9579L29.2527 21.612L32.6655 25.2662C33.0143 24.9404 33.3297 24.5805 33.6069 24.1917L29.5357 21.289ZM29.2527 21.612L25.4398 18.3776C25.7228 18.0439 26.0609 17.7622 26.4389 17.5444L28.9352 21.8767L31.4315 26.209C32.0501 25.8525 32.603 25.3917 33.0655 24.8465L29.2527 21.612ZM28.9352 21.8767L25.7883 17.9912C26.1089 17.7316 26.4701 17.5275 26.8571 17.3872L28.5623 22.0874L30.2676 26.7876C30.9249 26.5491 31.5382 26.2027 32.0821 25.7622L28.9352 21.8767ZM28.5623 22.0874L27.0182 17.3318L26.6275 17.4587L28.1716 22.2142L29.7158 26.9698L30.1065 26.843L28.5623 22.0874ZM21.7411 12.6274L20.7015 7.7367C21.4354 7.5807 22.2044 7.72078 22.8394 8.13164L20.1234 12.3296L17.4073 16.5276C18.9983 17.557 20.9311 17.9113 22.7806 17.5182L21.7411 12.6274ZM20.1234 12.3296L22.8394 8.13164C23.4751 8.54295 23.9244 9.19229 24.0831 9.93888L19.1923 10.9784L14.3016 12.018C14.6966 13.8764 15.8157 15.4978 17.4073 16.5276L20.1234 12.3296ZM19.1923 10.9784L24.0831 9.93888L23.6375 7.84282L18.7468 8.88238L13.8561 9.92194L14.3016 12.018L19.1923 10.9784ZM18.7468 8.88238L23.6375 7.84282C23.7962 8.58941 23.6499 9.36533 23.2365 9.99965L19.0478 7.26931L14.8591 4.53896C13.8239 6.12713 13.461 8.06353 13.8561 9.92194L18.7468 8.88238ZM19.0478 7.26931L23.2365 9.99965C22.8235 10.6333 22.178 11.074 21.444 11.23L20.4045 6.33927L19.3649 1.44853C17.5154 1.84166 15.8939 2.95148 14.8591 4.53896L19.0478 7.26931ZM20.4045 6.33927L21.444 11.23C20.7101 11.386 19.9412 11.2459 19.3061 10.8351L22.0222 6.63708L24.7382 2.43909C23.1472 1.40973 21.2145 1.0554 19.3649 1.44853L20.4045 6.33927ZM22.0222 6.63708L19.3061 10.8351C18.6704 10.4238 18.2212 9.77442 18.0625 9.02783L22.9532 7.98828L27.844 6.94872C27.449 5.09032 26.3299 3.46889 24.7382 2.43909L22.0222 6.63708ZM22.9532 7.98828L18.0625 9.02783L18.508 11.1239L23.3988 10.0843L28.2895 9.04477L27.844 6.94872L22.9532 7.98828ZM23.3988 10.0843L18.508 11.1239C18.3493 10.3773 18.4956 9.60139 18.9091 8.96707L23.0978 11.6974L27.2865 14.4277C28.3217 12.8396 28.6845 10.9032 28.2895 9.04477L23.3988 10.0843ZM23.0978 11.6974L18.9091 8.96707C19.3221 8.33343 19.9676 7.8927 20.7015 7.7367L21.7411 12.6274L22.7806 17.5182C24.6302 17.125 26.2517 16.0152 27.2865 14.4277L23.0978 11.6974ZM23.4503 51.6972L22.4107 46.8065C23.1447 46.6505 23.9136 46.7905 24.5486 47.2014L21.8326 51.3994L19.1165 55.5974C20.7075 56.6267 22.6403 56.9811 24.4898 56.5879L23.4503 51.6972ZM21.8326 51.3994L24.5486 47.2014C25.1843 47.6127 25.6336 48.262 25.7923 49.0086L20.9015 50.0482L16.0108 51.0878C16.4058 52.9462 17.5249 54.5676 19.1165 55.5974L21.8326 51.3994ZM20.9015 50.0482L25.7923 49.0086L24.4557 42.7205L19.5649 43.76L14.6742 44.7996L16.0108 51.0878L20.9015 50.0482ZM19.5649 43.76L24.4557 42.7205C24.6144 43.467 24.4681 44.243 24.0546 44.8773L19.8659 42.1469L15.6772 39.4166C14.642 41.0048 14.2792 42.9412 14.6742 44.7996L19.5649 43.76ZM19.8659 42.1469L24.0546 44.8773C23.6416 45.5109 22.9961 45.9517 22.2622 46.1077L21.2226 41.2169L20.1831 36.3262C18.3335 36.7193 16.712 37.8291 15.6772 39.4166L19.8659 42.1469ZM21.2226 41.2169L22.2622 46.1077C21.5283 46.2636 20.7593 46.1236 20.1243 45.7127L22.8403 41.5147L25.5564 37.3167C23.9653 36.2874 22.0326 35.933 20.1831 36.3262L21.2226 41.2169ZM22.8403 41.5147L20.1243 45.7127C19.4885 45.3014 19.0393 44.6521 18.8806 43.9055L23.7714 42.8659L28.6621 41.8264C28.2671 39.968 27.1481 38.3465 25.5564 37.3167L22.8403 41.5147ZM23.7714 42.8659L18.8806 43.9055L20.2172 50.1936L25.108 49.1541L29.9987 48.1145L28.6621 41.8264L23.7714 42.8659ZM25.108 49.1541L20.2172 50.1936C20.0585 49.4471 20.2048 48.6711 20.6183 48.0368L24.807 50.7672L28.9957 53.4975C30.0309 51.9093 30.3937 49.9729 29.9987 48.1145L25.108 49.1541ZM24.807 50.7672L20.6183 48.0368C21.0313 47.4032 21.6768 46.9625 22.4107 46.8065L23.4503 51.6972L24.4898 56.5879C26.3394 56.1948 27.9609 55.085 28.9957 53.4975L24.807 50.7672ZM36.0707 49.0146L35.0312 44.1239C35.7651 43.9679 36.5341 44.108 37.1691 44.5188L34.4531 48.7168L31.737 52.9148C33.328 53.9442 35.2607 54.2985 37.1103 53.9054L36.0707 49.0146ZM34.4531 48.7168L37.1691 44.5188C37.8048 44.9301 38.254 45.5795 38.4127 46.3261L33.522 47.3656L28.6313 48.4052C29.0263 50.2636 30.1453 51.885 31.737 52.9148L34.4531 48.7168ZM33.522 47.3656L38.4127 46.3261L37.0761 40.0379L32.1854 41.0775L27.2947 42.117L28.6313 48.4052L33.522 47.3656ZM32.1854 41.0775L37.0761 40.0379C37.2348 40.7845 37.0886 41.5604 36.6751 42.1947L32.4864 39.4644L28.2977 36.734C27.2625 38.3222 26.8996 40.2586 27.2947 42.117L32.1854 41.0775ZM32.4864 39.4644L36.6751 42.1947C36.2621 42.8284 35.6166 43.2691 34.8826 43.4251L33.8431 38.5344L32.8035 33.6436C30.954 34.0367 29.3325 35.1465 28.2977 36.734L32.4864 39.4644ZM33.8431 38.5344L34.8826 43.4251C34.1487 43.5811 33.3798 43.441 32.7447 43.0301L35.4608 38.8322L38.1768 34.6342C36.5858 33.6048 34.6531 33.2505 32.8035 33.6436L33.8431 38.5344ZM35.4608 38.8322L32.7447 43.0301C32.109 42.6188 31.6598 41.9695 31.5011 41.2229L36.3918 40.1834L41.2826 39.1438C40.8876 37.2854 39.7685 35.664 38.1768 34.6342L35.4608 38.8322ZM36.3918 40.1834L31.5011 41.2229L32.8377 47.5111L37.7284 46.4715L42.6192 45.432L41.2826 39.1438L36.3918 40.1834ZM37.7284 46.4715L32.8377 47.5111C32.679 46.7645 32.8253 45.9886 33.2387 45.3543L37.4274 48.0846L41.6161 50.8149C42.6514 49.2268 43.0142 47.2904 42.6192 45.432L37.7284 46.4715ZM37.4274 48.0846L33.2387 45.3543C33.6518 44.7206 34.2972 44.2799 35.0312 44.1239L36.0707 49.0146L37.1103 53.9054C38.9598 53.5122 40.5814 52.4024 41.6161 50.8149L37.4274 48.0846ZM34.733 42.7266L33.6934 37.8359L21.0741 40.5182L22.1137 45.409L23.1532 50.2997L35.7725 47.6174L34.733 42.7266ZM22.1137 45.409L21.0741 40.5182C21.808 40.3622 22.577 40.5023 23.212 40.9132L20.496 45.1112L17.7799 49.3091C19.371 50.3385 21.3037 50.6928 23.1532 50.2997L22.1137 45.409ZM20.496 45.1112L23.212 40.9132C23.8476 41.3244 24.2969 41.9737 24.4557 42.7205L19.5649 43.76L14.6742 44.7996C15.0693 46.6582 16.1884 48.2794 17.7799 49.3091L20.496 45.1112ZM19.5649 43.76L24.4557 42.7205L21.7825 30.1441L16.8917 31.1836L12.001 32.2232L14.6742 44.7996L19.5649 43.76ZM16.8917 31.1836L21.7825 30.1441C21.9412 30.8906 21.7949 31.6666 21.3814 32.3009L17.1927 29.5705L13.004 26.8402C11.9688 28.4284 11.606 30.3648 12.001 32.2232L16.8917 31.1836ZM17.1927 29.5705L21.3814 32.3009C20.9684 32.9345 20.3229 33.3752 19.589 33.5312L18.5494 28.6405L17.5099 23.7498C15.6603 24.1429 14.0388 25.2527 13.004 26.8402L17.1927 29.5705ZM18.5494 28.6405L19.589 33.5312L32.2083 30.8489L31.1687 25.9582L30.1292 21.0675L17.5099 23.7498L18.5494 28.6405ZM31.1687 25.9582L32.2083 30.8489C31.4744 31.0049 30.7054 30.8649 30.0704 30.454L32.7864 26.256L35.5025 22.058C33.9114 21.0286 31.9787 20.6743 30.1292 21.0675L31.1687 25.9582ZM32.7864 26.256L30.0704 30.454C29.4346 30.0427 28.9854 29.3933 28.8267 28.6468L33.7175 27.6072L38.6082 26.5676C38.2132 24.7092 37.0941 23.0878 35.5025 22.058L32.7864 26.256ZM33.7175 27.6072L28.8268 28.6472L31.5012 41.2234L36.3918 40.1834L41.2825 39.1433L38.6081 26.5672L33.7175 27.6072ZM36.3918 40.1834L31.5011 41.2229C31.3409 40.4692 31.4915 39.6945 31.901 39.0663L36.0897 41.7966L40.2784 44.527C41.3096 42.9449 41.6791 41.0093 41.2826 39.1438L36.3918 40.1834ZM36.0897 41.7966L31.901 39.0663C32.314 38.4326 32.9595 37.9919 33.6934 37.8359L34.733 42.7266L35.7725 47.6174C37.6221 47.2243 39.2436 46.1145 40.2784 44.527L36.0897 41.7966ZM23.3258 40.7698L24.3654 45.6605L32.7782 43.8723L31.7387 38.9816L30.6991 34.0908L22.2863 35.8791L23.3258 40.7698ZM31.7387 38.9816L36.6294 37.942L34.8473 29.5578L29.9566 30.5974L25.0658 31.6369L26.8479 40.0211L31.7387 38.9816ZM29.9566 30.5974L28.917 25.7066L20.5041 27.4948L21.5437 32.3856L22.5833 37.2763L30.9961 35.4881L29.9566 30.5974ZM21.5437 32.3856L16.653 33.4251L18.4351 41.8093L23.3258 40.7698L28.2166 39.7302L26.4344 31.346L21.5437 32.3856ZM12.4442 43.1573L11.4194 38.2635C11.9311 38.1563 12.4634 38.1922 12.9579 38.3685L11.2784 43.078L9.59884 47.7875C10.8406 48.2303 12.18 48.3211 13.469 48.0512L12.4442 43.1573ZM11.2784 43.078L12.9579 38.3685C13.4526 38.5449 13.8909 38.8555 14.2228 39.2679L10.3273 42.4024L6.4318 45.5369C7.26015 46.5663 8.35689 47.3446 9.59884 47.7875L11.2784 43.078ZM10.3273 42.4024L14.2269 39.273C14.7015 39.8645 14.9225 40.621 14.84 41.3761L9.86958 40.833L4.89917 40.2899C4.69359 42.1712 5.24368 44.0563 6.42763 45.5317L10.3273 42.4024ZM9.86958 40.833L14.84 41.3761C14.7575 42.1307 14.3796 42.8169 13.7954 43.2883L10.6557 39.397L7.51603 35.5056C6.04793 36.6901 5.10469 38.409 4.89917 40.2899L9.86958 40.833ZM10.6557 39.397L13.7674 43.3107L21.2892 37.3304L18.1775 33.4166L15.0658 29.5029L7.54401 35.4832L10.6557 39.397ZM18.1775 33.4166L21.5843 37.0764C21.2981 37.3428 20.9608 37.5468 20.5935 37.6766L18.928 32.9621L17.2625 28.2477C16.3376 28.5744 15.4893 29.0879 14.7707 29.7569L18.1775 33.4166ZM18.928 32.9621L20.5935 37.6766C20.2263 37.8063 19.8362 37.8593 19.4473 37.8319L19.7977 32.8442L20.1482 27.8565C19.1695 27.7878 18.1873 27.921 17.2625 28.2477L18.928 32.9621ZM19.7977 32.8442L19.4473 37.8319C19.0584 37.8046 18.6783 37.6975 18.3308 37.5165L20.6418 33.0826L22.9527 28.6486C22.0816 28.1946 21.1268 27.9253 20.1482 27.8565L19.7977 32.8442ZM20.6418 33.0826L18.3308 37.5165C17.9834 37.3353 17.6759 37.084 17.4283 36.7773L21.3195 33.6374L25.2107 30.4975C24.5928 29.7318 23.8239 29.1027 22.9527 28.6486L20.6418 33.0826ZM21.3195 33.6374L17.4283 36.7773C17.1808 36.4705 16.9989 36.1153 16.8948 35.7339L21.718 34.4163L26.5413 33.0987C26.2818 32.1487 25.8286 31.2633 25.2107 30.4975L21.3195 33.6374ZM21.718 34.4163L16.8948 35.7339C16.7906 35.3526 16.7665 34.954 16.8238 34.5635L21.7709 35.2895L26.7179 36.0155C26.8608 35.0416 26.8008 34.0486 26.5413 33.0987L21.718 34.4163ZM21.7709 35.2895L16.8238 34.5635C16.8811 34.173 17.0184 33.7997 17.2261 33.4666L21.4692 36.1115L25.7124 38.7563C26.2323 37.9223 26.575 36.9893 26.7179 36.0155L21.7709 35.2895ZM21.4692 36.1115L17.2261 33.4666C17.4337 33.1335 17.7071 32.8478 18.0286 32.6265L20.8634 36.7453L23.6982 40.864C24.5066 40.3076 25.1925 39.5904 25.7124 38.7563L21.4692 36.1115ZM20.8634 36.7453L17.7517 32.8315L10.2299 38.8118L13.3416 42.7256L16.4533 46.6393L23.9751 40.659L20.8634 36.7453ZM13.3416 42.7256L10.1226 38.8997C10.5087 38.5748 10.9698 38.3532 11.463 38.2545L12.4442 43.1573L13.4254 48.0601C14.5802 47.829 15.6587 47.3104 16.5607 46.5515L13.3416 42.7256ZM42.4868 36.7647L41.389 31.8867C41.8797 31.7763 42.3911 31.7911 42.876 31.9309L41.4913 36.7353L40.1067 41.5398C41.2394 41.8662 42.4356 41.9013 43.5846 41.6427L42.4868 36.7647ZM41.4913 36.7353L42.7421 31.8943L33.4382 29.4904L32.1874 34.3314L30.9366 39.1724L40.2405 41.5763L41.4913 36.7353ZM32.1874 34.3314L33.1019 29.4157C33.4856 29.4871 33.8516 29.6369 34.1768 29.8567L31.3762 33.9988L28.5756 38.1409C29.3898 38.6914 30.3081 39.0676 31.2729 39.2471L32.1874 34.3314ZM31.3762 33.9988L34.1768 29.8567C34.502 30.0766 34.7792 30.3618 34.9904 30.6952L30.7663 33.3706L26.5423 36.0459C27.0689 36.8774 27.7614 37.5904 28.5756 38.1409L31.3762 33.9988ZM30.7663 33.3706L34.9904 30.6952C35.2015 31.0286 35.3417 31.4025 35.4016 31.7933L30.4594 32.5514L25.5172 33.3094C25.6665 34.2828 26.0156 35.2144 26.5423 36.0459L30.7663 33.3706ZM30.4594 32.5514L35.4016 31.7933C35.4616 32.1841 35.4399 32.5825 35.3385 32.9635L30.5067 31.6777L25.6748 30.392C25.4218 31.3429 25.3679 32.3361 25.5172 33.3094L30.4594 32.5514ZM30.5067 31.6777L35.3385 32.9635C35.2372 33.3444 35.0585 33.6991 34.8147 34.0058L30.9001 30.8952L26.9855 27.7846C26.3744 28.5537 25.9278 29.4412 25.6748 30.392L30.5067 31.6777ZM30.9001 30.8952L34.8147 34.0058C34.571 34.3126 34.2673 34.565 33.9231 34.7481L31.5743 30.3342L29.2255 25.9202C28.3594 26.3811 27.5967 27.0155 26.9855 27.7846L30.9001 30.8952ZM31.5743 30.3342L33.9231 34.7481C33.579 34.9313 33.2011 35.0416 32.8128 35.0724L32.4168 30.0881L32.0208 25.1038C31.0431 25.1815 30.0915 25.4594 29.2255 25.9202L31.5743 30.3342ZM32.4168 30.0881L32.8128 35.0724C32.4245 35.1033 32.0333 35.0541 31.6635 34.9271L33.2873 30.1981L34.911 25.4691C33.9824 25.1502 32.9985 25.0262 32.0208 25.1038L32.4168 30.0881ZM33.2873 30.1981L32.0365 35.0391L41.3404 37.443L42.5912 32.602L43.842 27.761L34.5381 25.3571L33.2873 30.1981ZM42.5912 32.602L41.3057 37.4339C40.5803 37.2409 39.9559 36.7677 39.5736 36.1119L43.8934 33.5941L48.2132 31.0763C47.2604 29.4416 45.6996 28.255 43.8767 27.7701L42.5912 32.602ZM43.8934 33.5941L39.5736 36.1119C39.1911 35.4557 39.0853 34.6747 39.2783 33.9414L44.1136 35.214L48.9489 36.4866C49.4304 34.6572 49.1662 32.7114 48.2132 31.0763L43.8934 33.5941ZM44.1136 35.214L39.28 33.9349C39.4154 33.4232 39.6896 32.9612 40.0697 32.5989L43.5195 36.2181L46.9694 39.8372C47.9238 38.9275 48.6092 37.7705 48.9472 36.4931L44.1136 35.214ZM43.5195 36.2181L40.0697 32.5989C40.4497 32.2366 40.9214 31.9874 41.4325 31.8771L42.4868 36.7647L43.5411 41.6523C44.8284 41.3746 46.0151 40.7469 46.9694 39.8372L43.5195 36.2181Z" fill="white" mask="url(#path-1-outside-1_1_619)"/>
</g>
<g filter="url(#filter1_dd_1_619)">
<path d="M62.5263 43.3037L68.6438 45.9673L63.5654 50.2719L62.9403 56.9091L57.2663 53.3945L50.7634 54.8327L52.3352 48.357L48.9411 42.6076L55.5856 42.1201L59.9913 37.129L62.5263 43.3037ZM56.9156 44.7936L53.5787 45.038L55.2832 47.925L54.4934 51.1753L57.7588 50.4546L60.608 52.218L60.9218 48.8864L63.4712 46.7249L60.4002 45.3878L59.1273 42.2863L56.9156 44.7936Z" fill="#333333"/>
<path d="M62.3023 36.1837L64.4497 41.416L69.6352 43.6742L73.3256 45.2813L70.2618 47.8774L65.9574 51.5251L65.4278 57.1509L65.0512 61.1543L61.6297 59.0353L56.8206 56.0557L51.3089 57.2754L47.3872 58.1422L48.3347 54.2362L49.6662 48.7471L46.791 43.8752L44.7431 40.4074L48.752 40.1132L54.3831 39.6994L58.1167 35.47L60.7734 32.4607L62.3023 36.1837ZM58.1187 47.2135L57.7769 47.2385L57.9512 47.5337L57.8695 47.8675L58.2047 47.7939L58.4972 47.9745L58.5298 47.6323L58.7896 47.4111L58.4759 47.2744L58.345 46.9559L58.1187 47.2135Z" stroke="white" stroke-width="5"/>
</g>
<defs>
<filter id="filter0_d_1_619" x="0.768555" y="0.291992" width="50.4155" height="59.4521" filterUnits="userSpaceOnUse" color-interpolation-filters="sRGB">
<feFlood flood-opacity="0" result="BackgroundImageFix"/>
<feColorMatrix in="SourceAlpha" type="matrix" values="0 0 0 0 0 0 0 0 0 0 0 0 0 0 0 0 0 0 127 0" result="hardAlpha"/>
<feOffset dy="1"/>
<feGaussianBlur stdDeviation="1"/>
<feComposite in2="hardAlpha" operator="out"/>
<feColorMatrix type="matrix" values="0 0 0 0 0 0 0 0 0 0 0 0 0 0 0 0 0 0 0.2 0"/>
<feBlend mode="normal" in2="BackgroundImageFix" result="effect1_dropShadow_1_619"/>
<feBlend mode="normal" in="SourceGraphic" in2="effect1_dropShadow_1_619" result="shape"/>
</filter>
<filter id="filter1_dd_1_619" x="38.5452" y="25.7915" width="41.4619" height="42.6079" filterUnits="userSpaceOnUse" color-interpolation-filters="sRGB">
<feFlood flood-opacity="0" result="BackgroundImageFix"/>
<feColorMatrix in="SourceAlpha" type="matrix" values="0 0 0 0 0 0 0 0 0 0 0 0 0 0 0 0 0 0 127 0" result="hardAlpha"/>
<feOffset/>
<feGaussianBlur stdDeviation="1"/>
<feComposite in2="hardAlpha" operator="out"/>
<feColorMatrix type="matrix" values="0 0 0 0 0 0 0 0 0 0 0 0 0 0 0 0 0 0 0.2 0"/>
<feBlend mode="normal" in2="BackgroundImageFix" result="effect1_dropShadow_1_619"/>
<feColorMatrix in="SourceAlpha" type="matrix" values="0 0 0 0 0 0 0 0 0 0 0 0 0 0 0 0 0 0 127 0" result="hardAlpha"/>
<feOffset dy="1"/>
<feGaussianBlur stdDeviation="1"/>
<feComposite in2="hardAlpha" operator="out"/>
<feColorMatrix type="matrix" values="0 0 0 0 0 0 0 0 0 0 0 0 0 0 0 0 0 0 0.1 0"/>
<feBlend mode="normal" in2="effect1_dropShadow_1_619" result="effect2_dropShadow_1_619"/>
<feBlend mode="normal" in="SourceGraphic" in2="effect2_dropShadow_1_619" result="shape"/>
</filter>
</defs>
</svg>
