<svg width="540" height="274" viewBox="0 0 540 274" fill="none" xmlns="http://www.w3.org/2000/svg">
<g opacity="0.5">
<path d="M505.797 107.028C513.714 102.851 523.557 105.869 527.333 113.985C561.148 186.675 566.9 269.539 543.094 346.495C517.687 428.625 460.695 497.298 384.654 537.407C308.614 577.516 219.755 585.776 137.626 560.369C60.6696 536.563 -4.47164 485.025 -45.3701 416.071C-49.9364 408.372 -46.8686 398.544 -38.9513 394.368C-31.034 390.192 -21.2685 393.253 -16.6594 400.926C20.1973 462.286 78.4641 508.137 147.205 529.402C221.122 552.268 301.095 544.835 369.531 508.736C437.967 472.638 489.26 410.832 512.127 336.915C533.392 268.174 528.452 194.195 498.622 129.129C494.891 120.992 497.879 111.204 505.797 107.028Z" fill="url(#paint0_linear_1_326)" fill-opacity="0.8"/>
<path d="M432.122 109.81C438.904 104.032 449.129 104.819 454.489 111.936C493.816 164.152 512.834 229.125 507.595 294.654C501.927 365.561 468.324 431.311 414.178 477.442C360.032 523.572 289.778 546.304 218.872 540.636C153.342 535.398 92.2153 506.3 46.9098 459.178C40.735 452.755 41.5818 442.535 48.3636 436.757C55.1454 430.979 65.2895 431.838 71.5169 438.209C111.232 478.843 164.444 503.919 221.442 508.475C283.819 513.461 345.622 493.464 393.255 452.883C440.887 412.302 470.448 354.46 475.435 292.084C479.991 235.085 463.686 178.566 429.878 132.9C424.576 125.739 425.34 115.588 432.122 109.81Z" fill="url(#paint1_linear_1_326)" fill-opacity="0.8"/>
<path d="M385.855 160.079C391.679 154.379 401.066 154.448 406.347 160.653C439.424 199.513 457.506 249.151 456.955 300.508C456.351 356.8 433.409 410.546 393.177 449.923C352.946 489.3 298.719 511.082 242.428 510.478C191.071 509.926 141.833 490.782 103.692 456.879C97.6015 451.465 97.7337 442.079 103.557 436.379C109.381 430.679 118.687 430.831 124.838 436.176C157.456 464.522 199.216 480.502 242.744 480.969C291.21 481.49 337.897 462.736 372.536 428.833C407.174 394.931 426.926 348.657 427.447 300.191C427.914 256.663 412.834 214.569 385.196 181.35C379.984 175.086 380.032 165.779 385.855 160.079Z" fill="url(#paint2_linear_1_326)" fill-opacity="0.8"/>
<path d="M359.096 216.236C365.087 210.21 374.895 210.139 380.313 216.686C403.641 244.878 416.608 280.423 416.713 317.33C416.834 359.39 400.241 399.775 370.585 429.601C340.929 459.427 300.639 476.25 258.579 476.37C221.672 476.476 186.054 463.712 157.729 440.545C151.151 435.165 151.166 425.357 157.157 419.331C163.149 413.305 172.841 413.363 179.543 418.587C201.979 436.079 229.75 445.68 258.492 445.598C292.39 445.501 324.862 431.942 348.763 407.904C372.665 383.865 386.038 351.317 385.941 317.418C385.859 288.677 376.099 260.961 358.48 238.625C353.217 231.953 353.104 222.262 359.096 216.236Z" fill="url(#paint3_linear_1_326)" fill-opacity="0.8"/>
<path d="M457.232 210.469C451.502 204.195 441.705 203.708 436.015 210.019C411.513 237.198 397.051 272.161 395.382 309.031C393.479 351.048 408.346 392.1 436.711 423.155C465.076 454.211 504.617 472.727 546.633 474.63C583.504 476.299 619.63 465.056 648.912 443.11C655.712 438.014 656.112 428.214 650.382 421.94C644.651 415.665 634.965 415.312 628.048 420.248C604.891 436.773 576.738 445.189 548.025 443.889C514.161 442.355 482.293 427.432 459.432 402.403C436.571 377.373 424.589 344.287 426.123 310.423C427.423 281.71 438.348 254.433 456.898 232.864C462.439 226.421 462.963 216.743 457.232 210.469Z" fill="white"/>
<path d="M598.809 184.976C598.427 176.487 591.215 169.839 582.803 171.041C546.579 176.22 513.079 193.808 488.182 221.054C459.81 252.103 444.934 293.152 446.827 335.169C448.719 377.186 467.226 416.731 498.275 445.103C525.521 470 560.466 484.505 597.01 486.406C605.496 486.847 612.08 479.577 611.698 471.089C611.315 462.6 604.103 456.125 595.63 455.485C567.261 453.344 540.251 441.775 519.033 422.387C494.009 399.52 479.093 367.649 477.568 333.784C476.042 299.92 488.032 266.836 510.899 241.812C530.287 220.594 556.148 206.644 584.209 201.961C592.59 200.562 599.191 193.465 598.809 184.976Z" fill="white"/>
</g>
<defs>
<linearGradient id="paint0_linear_1_326" x1="491.122" y1="116.573" x2="513.367" y2="495.342" gradientUnits="userSpaceOnUse">
<stop stop-color="white"/>
<stop offset="1" stop-color="white" stop-opacity="0"/>
</linearGradient>
<linearGradient id="paint1_linear_1_326" x1="450.507" y1="156.798" x2="477.059" y2="469.611" gradientUnits="userSpaceOnUse">
<stop stop-color="white"/>
<stop offset="1" stop-color="white" stop-opacity="0"/>
</linearGradient>
<linearGradient id="paint2_linear_1_326" x1="398.262" y1="185.934" x2="450.103" y2="428.919" gradientUnits="userSpaceOnUse">
<stop stop-color="white"/>
<stop offset="1" stop-color="white" stop-opacity="0"/>
</linearGradient>
<linearGradient id="paint3_linear_1_326" x1="358.894" y1="217.547" x2="424.552" y2="391.176" gradientUnits="userSpaceOnUse">
<stop stop-color="white"/>
<stop offset="1" stop-color="white" stop-opacity="0"/>
</linearGradient>
</defs>
</svg>
