<svg width="22" height="22" viewBox="0 0 22 22" fill="none" xmlns="http://www.w3.org/2000/svg">
<g clip-path="url(#clip0_1_334)">
<path d="M17.877 18.978V21.1772H4.12207V18.978H17.877ZM18.9775 17.8774V4.12256C18.9774 3.51513 18.4844 3.02295 17.877 3.02295H4.12207C3.51471 3.02305 3.02256 3.5152 3.02246 4.12256V17.8774C3.02246 18.4849 3.51465 18.9779 4.12207 18.978V21.1772C2.29962 21.1771 0.822266 19.6999 0.822266 17.8774V4.12256C0.822369 2.30017 2.29968 0.82286 4.12207 0.822754H17.877C19.6994 0.822754 21.1767 2.30011 21.1768 4.12256V17.8774C21.1768 19.7 19.6995 21.1772 17.877 21.1772V18.978C18.4845 18.978 18.9775 18.485 18.9775 17.8774Z" fill="white"/>
<path d="M9.5459 2.46216L2.47852 9.53149L0.921875 7.97583L7.99023 0.907471L9.5459 2.46216Z" fill="white"/>
<path d="M15.1155 2.51746L2.47681 15.1542L0.922119 13.5985L13.5598 0.960815L15.1155 2.51746Z" fill="white"/>
<path d="M20.3076 3.03967L3.44141 19.9049L1.88672 18.3492L18.752 1.48499L20.3076 3.03967Z" fill="white"/>
</g>
<defs>
<clipPath id="clip0_1_334">
<rect width="22" height="22" fill="white"/>
</clipPath>
</defs>
</svg>
