<svg width="22" height="22" viewBox="0 0 22 22" fill="none" xmlns="http://www.w3.org/2000/svg">
<path d="M18.8001 11.3767V14.9689L18.7967 15.2265V15.2401C18.7967 17.1931 17.427 18.7828 15.7418 18.7828H6.28206C4.59854 18.7828 3.22887 17.1931 3.22887 15.2401L3.21864 14.4811V11.3955H0V13.3502H1.26392V14.4862L1.27415 15.2452C1.27415 16.6899 1.78245 18.0545 2.70352 19.0847C3.65359 20.1491 4.92433 20.7358 6.28376 20.7358H15.7435C17.103 20.7358 18.3754 20.1491 19.3238 19.0847C20.2431 18.0528 20.7514 16.6899 20.7531 15.2452L20.7565 14.9859V13.3297H22V11.375H18.8018L18.8001 11.3767Z" fill="#A5F04B"/>
<path d="M2.0536 9.18474C2.0536 8.98347 2.16106 8.83337 2.24976 8.74468C2.42544 8.56899 2.6847 8.47006 2.96103 8.47006H2.96273L19.0832 8.49905C19.5745 8.49905 19.9889 8.82825 19.9889 9.21544V10.0086H21.9437V9.21544C21.9437 7.80484 20.7633 6.64497 19.276 6.55116L15.7605 1.66947C15.445 1.23111 14.8343 1.13218 14.396 1.44773C13.9576 1.76328 13.8587 2.37392 14.1742 2.81228L16.859 6.54092L5.18184 6.52045L7.85124 2.81228C8.1668 2.37392 8.06787 1.76328 7.62951 1.44773C7.19114 1.13218 6.58051 1.23111 6.26495 1.66947L2.7717 6.52216C2.05019 6.56821 1.36621 6.86671 0.869852 7.36306C0.373496 7.85942 0.098877 8.50758 0.098877 9.18815V9.99665H2.0536V9.18815V9.18474Z" fill="#A5F04B"/>
<path d="M7.64588 11.332H5.69116V16.0056H7.64588V11.332Z" fill="#A5F04B"/>
<path d="M11.9299 11.332H9.97522V16.0056H11.9299V11.332Z" fill="#A5F04B"/>
<path d="M16.2118 11.332H14.2571V16.0056H16.2118V11.332Z" fill="#A5F04B"/>
</svg>
