<svg width="22" height="22" viewBox="0 0 22 22" fill="none" xmlns="http://www.w3.org/2000/svg">
<g clip-path="url(#clip0_1_294)">
<path d="M10.9986 11.0001C12.5705 11.0001 13.8448 9.72581 13.8448 8.15387C13.8448 6.58193 12.5705 5.30762 10.9986 5.30762C9.42665 5.30762 8.15234 6.58193 8.15234 8.15387C8.15234 9.72581 9.42665 11.0001 10.9986 11.0001Z" stroke="#333333" stroke-width="2.2"/>
<path d="M16.6624 18.5904C16.5115 15.8471 15.6716 13.8467 10.9992 13.8467C6.32686 13.8467 5.48693 15.8471 5.33594 18.5904" stroke="#333333" stroke-width="2.2" stroke-linecap="round"/>
<path d="M6.25547 2.78171C7.65096 1.97446 9.27117 1.51245 10.9992 1.51245C16.239 1.51245 20.4867 5.76015 20.4867 11C20.4867 16.2397 16.239 20.4875 10.9992 20.4875C5.75941 20.4875 1.51172 16.2397 1.51172 11C1.51172 9.2719 1.97373 7.65169 2.78098 6.2562" stroke="#333333" stroke-width="2.2" stroke-linecap="square"/>
</g>
<defs>
<clipPath id="clip0_1_294">
<rect width="22" height="22" fill="white"/>
</clipPath>
</defs>
</svg>
