<svg width="22" height="22" viewBox="0 0 22 22" fill="none" xmlns="http://www.w3.org/2000/svg">
<path d="M15.1119 12.5419H6.89132C6.07373 12.5419 5.28962 12.2171 4.7115 11.6389C4.13338 11.0608 3.80859 10.2767 3.80859 9.45913V5.34884C3.80859 4.53125 4.13338 3.74714 4.7115 3.16902C5.28962 2.5909 6.07373 2.26611 6.89132 2.26611H15.1119C15.9295 2.26611 16.7136 2.5909 17.2917 3.16902C17.8698 3.74714 18.1946 4.53125 18.1946 5.34884V9.45913C18.1946 10.2767 17.8698 11.0608 17.2917 11.6389C16.7136 12.2171 15.9295 12.5419 15.1119 12.5419ZM6.89132 4.32126C6.61879 4.32126 6.35742 4.42952 6.16471 4.62223C5.972 4.81494 5.86374 5.07631 5.86374 5.34884V9.45913C5.86374 9.73166 5.972 9.99303 6.16471 10.1857C6.35742 10.3784 6.61879 10.4867 6.89132 10.4867H15.1119C15.3844 10.4867 15.6458 10.3784 15.8385 10.1857C16.0312 9.99303 16.1395 9.73166 16.1395 9.45913V5.34884C16.1395 5.07631 16.0312 4.81494 15.8385 4.62223C15.6458 4.42952 15.3844 4.32126 15.1119 4.32126H6.89132Z" fill="#A5F04B"/>
<path d="M8.94726 8.4311C8.67519 8.42731 8.4146 8.32087 8.21768 8.1331C8.05131 7.97957 7.94029 7.77541 7.90187 7.5523C7.86345 7.3292 7.89978 7.09966 8.00522 6.89933C8.11066 6.699 8.2793 6.53909 8.48495 6.44445C8.69061 6.34981 8.92175 6.32573 9.1425 6.37595C9.21056 6.38547 9.27655 6.40631 9.33774 6.4376C9.40087 6.45812 9.45997 6.48941 9.51243 6.53008L9.67684 6.65339C9.82914 6.79583 9.9345 6.98122 9.97892 7.18496C10.0234 7.3887 10.0047 7.60113 9.92557 7.79404C9.8464 7.98695 9.71041 8.1512 9.53567 8.26499C9.36093 8.37878 9.15571 8.43671 8.94726 8.4311Z" fill="#A5F04B"/>
<path d="M13.057 8.43093C12.8529 8.43212 12.6531 8.3725 12.483 8.25967C12.3129 8.14684 12.1803 7.98592 12.102 7.79742C12.0237 7.60891 12.0034 7.40137 12.0435 7.20126C12.0837 7.00114 12.1825 6.81751 12.3274 6.67378C12.4232 6.57797 12.537 6.50197 12.6621 6.45012C12.7873 6.39827 12.9215 6.37158 13.057 6.37158C13.1925 6.37158 13.3267 6.39827 13.4518 6.45012C13.577 6.50197 13.6908 6.57797 13.7866 6.67378C13.8824 6.76959 13.9584 6.88333 14.0102 7.00852C14.0621 7.1337 14.0888 7.26787 14.0888 7.40336C14.0888 7.53886 14.0621 7.67302 14.0102 7.79821C13.9584 7.92339 13.8824 8.03713 13.7866 8.13294C13.736 8.17943 13.6809 8.22074 13.6222 8.25625C13.5697 8.29692 13.5106 8.32821 13.4475 8.34873C13.3863 8.38002 13.3203 8.40086 13.2522 8.41038L13.057 8.43093Z" fill="#A5F04B"/>
<path d="M11.0022 3.29317C10.7297 3.29317 10.4683 3.18491 10.2756 2.9922C10.0829 2.79949 9.97461 2.53813 9.97461 2.2656V1.23802C9.97461 0.965494 10.0829 0.704126 10.2756 0.511419C10.4683 0.318711 10.7297 0.210449 11.0022 0.210449C11.2747 0.210449 11.5361 0.318711 11.7288 0.511419C11.9215 0.704126 12.0298 0.965494 12.0298 1.23802V2.2656C12.0298 2.53813 11.9215 2.79949 11.7288 2.9922C11.5361 3.18491 11.2747 3.29317 11.0022 3.29317Z" fill="#A5F04B"/>
<path d="M7.92015 21.7892C7.64762 21.7892 7.38626 21.681 7.19355 21.4883C7.00084 21.2956 6.89258 21.0342 6.89258 20.7617V17.6789C6.89258 17.4064 7.00084 17.145 7.19355 16.9523C7.38626 16.7596 7.64762 16.6514 7.92015 16.6514C8.19268 16.6514 8.45405 16.7596 8.64676 16.9523C8.83946 17.145 8.94773 17.4064 8.94773 17.6789V20.7617C8.94773 21.0342 8.83946 21.2956 8.64676 21.4883C8.45405 21.681 8.19268 21.7892 7.92015 21.7892Z" fill="#A5F04B"/>
<path d="M14.0862 21.7892C13.8136 21.7892 13.5523 21.681 13.3596 21.4883C13.1669 21.2956 13.0586 21.0342 13.0586 20.7617V17.6789C13.0586 17.4064 13.1669 17.145 13.3596 16.9523C13.5523 16.7596 13.8136 16.6514 14.0862 16.6514C14.3587 16.6514 14.6201 16.7596 14.8128 16.9523C15.0055 17.145 15.1137 17.4064 15.1137 17.6789V20.7617C15.1137 21.0342 15.0055 21.2956 14.8128 21.4883C14.6201 21.681 14.3587 21.7892 14.0862 21.7892Z" fill="#A5F04B"/>
<path d="M14.0856 18.7064H7.92015C7.64762 18.7064 7.38626 18.5982 7.19355 18.4055C7.00084 18.2128 6.89258 17.9514 6.89258 17.6789V11.5134C6.89258 11.2409 7.00084 10.9795 7.19355 10.7868C7.38626 10.5941 7.64762 10.4858 7.92015 10.4858H14.0856C14.3581 10.4858 14.6195 10.5941 14.8122 10.7868C15.0049 10.9795 15.1132 11.2409 15.1132 11.5134V17.6789C15.1132 17.9514 15.0049 18.2128 14.8122 18.4055C14.6195 18.5982 14.3581 18.7064 14.0856 18.7064ZM8.94773 16.6513H13.058V12.541H8.94773V16.6513Z" fill="#A5F04B"/>
<path d="M3.62346 16.6864C3.4337 16.6858 3.2478 16.6327 3.08638 16.5329C2.92496 16.4332 2.79431 16.2907 2.70892 16.1212C2.58703 15.8785 2.56617 15.5975 2.65089 15.3394C2.73562 15.0814 2.91903 14.8674 3.16105 14.7442L7.27134 12.6891C7.39242 12.6162 7.52722 12.5691 7.66732 12.5507C7.80743 12.5323 7.94982 12.543 8.0856 12.5821C8.22138 12.6213 8.34764 12.688 8.45648 12.7781C8.56532 12.8682 8.6544 12.9798 8.71816 13.1059C8.78192 13.232 8.81899 13.3699 8.82704 13.511C8.8351 13.6521 8.81397 13.7933 8.76498 13.9258C8.71599 14.0584 8.64019 14.1794 8.54232 14.2813C8.44445 14.3832 8.32661 14.4639 8.19616 14.5182L4.08586 16.5733C3.94373 16.6494 3.78466 16.6883 3.62346 16.6864Z" fill="#A5F04B"/>
<path d="M18.3029 16.6834C18.1417 16.6854 17.9826 16.6465 17.8405 16.5704L13.7302 14.5152C13.5998 14.4609 13.4819 14.3803 13.384 14.2784C13.2862 14.1764 13.2104 14.0554 13.1614 13.9229C13.1124 13.7903 13.0913 13.6491 13.0993 13.5081C13.1074 13.367 13.1445 13.2291 13.2082 13.103C13.272 12.9769 13.3611 12.8653 13.4699 12.7752C13.5787 12.685 13.705 12.6183 13.8408 12.5792C13.9766 12.5401 14.1189 12.5294 14.259 12.5478C14.3991 12.5662 14.5339 12.6133 14.655 12.6862L18.7653 14.7413C19.0073 14.8645 19.1908 15.0785 19.2755 15.3365C19.3602 15.5945 19.3393 15.8756 19.2175 16.1183C19.1321 16.2877 19.0014 16.4302 18.84 16.53C18.6786 16.6297 18.4927 16.6829 18.3029 16.6834Z" fill="#A5F04B"/>
</svg>
