<svg width="22" height="22" viewBox="0 0 22 22" fill="none" xmlns="http://www.w3.org/2000/svg">
<g clip-path="url(#clip0_1_769)">
<path d="M15.2106 8.90293C15.2106 5.37413 12.3499 2.51348 8.82114 2.51348C5.29234 2.51348 2.43169 5.37413 2.43169 8.90293C2.43169 12.4317 5.29234 15.2924 8.82114 15.2924V17.4924C4.07732 17.4924 0.231689 13.6468 0.231689 8.90293C0.231689 4.15911 4.07732 0.313477 8.82114 0.313477C13.565 0.313477 17.4106 4.15911 17.4106 8.90293C17.4106 13.6468 13.565 17.4924 8.82114 17.4924V15.2924C12.3499 15.2924 15.2106 12.4317 15.2106 8.90293Z" fill="#A5F04B"/>
<path d="M21.1273 19.6457L19.5719 21.2012L13.4467 15.076L15.0021 13.5205L21.1273 19.6457Z" fill="#A5F04B"/>
</g>
<defs>
<clipPath id="clip0_1_769">
<rect width="22" height="22" fill="white"/>
</clipPath>
</defs>
</svg>
