<svg width="22" height="22" viewBox="0 0 22 22" fill="none" xmlns="http://www.w3.org/2000/svg">
<g clip-path="url(#clip0_1_275)">
<path d="M10.2942 1.77893V12.0732H0V1.77893H10.2942ZM2.2 9.87317H8.09424V3.97893H2.2V9.87317Z" fill="#333333"/>
<path d="M3.38867 15.7804V13.894H5.58867V15.7804C5.58867 16.9954 6.57365 17.9804 7.78867 17.9804H9.62344V20.1804H7.78867C5.35862 20.1804 3.38867 18.2104 3.38867 15.7804Z" fill="#333333"/>
<path d="M16.3969 6.2186C16.3969 5.0036 15.4119 4.01865 14.1969 4.0186H12.3535V1.8186H14.1969C16.6269 1.81865 18.5969 3.78858 18.5969 6.2186V8.10386H16.3969V6.2186Z" fill="#333333"/>
<path d="M22.001 9.92688V20.2211H11.7068V9.92688H22.001ZM13.9068 18.0211H19.801V12.1269H13.9068V18.0211Z" fill="#333333"/>
</g>
<defs>
<clipPath id="clip0_1_275">
<rect width="22" height="22" fill="white"/>
</clipPath>
</defs>
</svg>
