<svg width="22" height="22" viewBox="0 0 22 22" fill="none" xmlns="http://www.w3.org/2000/svg">
<path d="M21.6616 10.9992C21.6631 13.0936 21.0468 15.1421 19.8898 16.8884C18.7328 18.6348 17.0863 20.0016 15.1563 20.818C13.2262 21.6344 11.0982 21.8642 9.03815 21.4786C6.97813 21.0931 5.07753 20.1093 3.57392 18.6502C2.07031 17.1912 1.03041 15.3216 0.584199 13.2752C0.13799 11.2287 0.305271 9.09628 1.06513 7.14435C1.82499 5.19241 3.14372 3.5076 4.85648 2.30051C6.56923 1.09342 8.60002 0.417614 10.695 0.357561C10.8966 0.331504 11.1007 0.331504 11.3023 0.357561C14.0753 0.434633 16.7088 1.58934 18.6433 3.57627C20.5777 5.5632 21.6605 8.22703 21.6616 10.9992ZM7.43223 19.4339C7.66025 19.5299 7.89142 19.6165 8.12572 19.6937C6.72906 17.2714 5.99872 14.5228 6.00889 11.7272H1.86142C1.99673 13.3979 2.58753 14.9995 3.56966 16.3582C4.55178 17.7169 5.88767 18.7806 7.43223 19.4339ZM2.55221 7.43585C2.17445 8.32699 1.94214 9.2729 1.86411 10.2376H6.00889C6.00048 7.45877 6.72006 4.72619 8.0961 2.31149C7.87256 2.38595 7.65128 2.46938 7.43223 2.56179C5.2346 3.49256 3.48482 5.2402 2.55221 7.43585ZM14.4964 10.2376C14.4632 9.19361 14.3457 8.15405 14.1449 7.12903C13.9486 6.08035 13.6262 5.05922 13.1848 4.08779C12.5829 2.8067 11.8261 1.97103 11.169 1.84454C11.0554 1.84284 10.9419 1.84284 10.8283 1.84454C10.1712 1.97103 9.4144 2.8067 8.81248 4.08914C8.37156 5.06062 8.04964 6.08176 7.85371 7.13038C7.65302 8.15495 7.53548 9.19406 7.50225 10.2376H14.4964ZM13.1848 17.8756C13.6263 16.9042 13.9486 15.8831 14.1449 14.8344C14.3451 13.8098 14.4622 12.7707 14.4951 11.7272H7.5036C7.5368 12.7712 7.65434 13.8107 7.85506 14.8357C8.05105 15.8839 8.37297 16.9046 8.81383 17.8756C9.46961 19.2698 10.3072 20.1364 11.0007 20.1364C11.6942 20.1364 12.5317 19.2698 13.1862 17.8756H13.1848ZM19.4491 14.5626C19.8311 13.6609 20.0644 12.7034 20.1399 11.7272H15.9898C16.0005 14.5238 15.2702 17.2733 13.8729 19.6964C14.1072 19.6192 14.3393 19.5322 14.5691 19.4353C16.7665 18.5048 18.5162 16.7577 19.4491 14.5626ZM14.5691 2.56179C14.3498 2.46929 14.127 2.38534 13.9012 2.31014C15.2774 4.72479 15.997 7.45741 15.9884 10.2362H20.1372C19.9966 8.57151 19.4037 6.97682 18.4224 5.6243C17.4411 4.27179 16.1087 3.21284 14.5691 2.56179Z" fill="white"/>
<path d="M21.3091 10.4978C21.1863 7.9959 20.1555 5.61609 18.3997 3.81265C16.5269 1.8892 13.9773 0.771463 11.2927 0.696783L11.2757 0.695836L11.2586 0.693943C11.0859 0.671619 10.9108 0.671622 10.7381 0.693943L10.7211 0.695836L10.704 0.696783C8.67591 0.754976 6.70988 1.40901 5.05178 2.57747C3.39352 3.74615 2.11612 5.37761 1.38047 7.26737C0.64485 9.15706 0.482866 11.2217 0.914813 13.2029C1.3468 15.1841 2.35428 16.9941 3.81003 18.4067C5.26566 19.8192 7.10546 20.7716 9.09978 21.1449C11.0942 21.5182 13.155 21.2964 15.0237 20.506C16.8923 19.7156 18.4862 18.3918 19.6064 16.7011C20.7266 15.0104 21.3238 13.0271 21.3223 10.9994L21.3091 10.4978ZM14.8448 11.3884L14.8334 11.7377C14.8 12.7994 14.6812 13.8574 14.4776 14.8999L14.4766 14.899C14.3072 15.8028 14.0463 16.6864 13.6986 17.5369H13.7194L13.4932 18.0196C13.1552 18.7396 12.7629 19.3397 12.3518 19.7649C11.9498 20.1808 11.4837 20.4757 11.0003 20.4757C10.5168 20.4757 10.0508 20.1807 9.64872 19.7649C9.2376 19.3398 8.84496 18.7403 8.50635 18.0205L8.50446 18.0158C8.05234 17.0199 7.72209 15.973 7.52109 14.898C7.31732 13.8563 7.19801 12.7986 7.16427 11.7377L7.15292 11.3884H14.8448ZM20.5055 11.3884L20.4781 11.7538C20.3997 12.7663 20.1569 13.7593 19.7607 14.6945C18.8539 16.8282 17.2029 18.5544 15.123 19.5567L14.7009 19.7479C14.4628 19.8483 14.2218 19.9385 13.9788 20.0186L13.1345 20.2968L13.5784 19.5273C14.9457 17.1562 15.6608 14.4648 15.6502 11.7282L15.6493 11.3884H20.5055ZM6.34937 11.3884L6.34748 11.7282C6.33753 14.4639 7.05252 17.1541 8.41928 19.5245L8.86316 20.294L8.01892 20.0157C7.77621 19.9358 7.5367 19.8463 7.30056 19.7469L7.29962 19.746C5.69814 19.0685 4.3126 17.966 3.29421 16.5572C2.27576 15.1483 1.66276 13.4872 1.52244 11.7547L1.4931 11.3884H6.34937ZM7.85613 12.0661C7.90172 12.9741 8.01264 13.8778 8.18739 14.7703L8.18834 14.7731C8.37901 15.7928 8.69207 16.786 9.1206 17.7309L9.2408 17.977C9.52568 18.535 9.83441 18.9805 10.1362 19.2926C10.4901 19.6587 10.7902 19.7971 11.0003 19.7971C11.2103 19.7971 11.5096 19.6586 11.8634 19.2926C12.1976 18.9469 12.5398 18.4374 12.8487 17.7924L12.8752 17.7356C13.3053 16.7891 13.62 15.7939 13.8112 14.7721V14.7693C13.9856 13.8771 14.0963 12.9738 14.1416 12.0661H7.85613ZM2.23701 12.0661C2.41878 13.5422 2.97032 14.9509 3.8441 16.1597C4.75323 17.4174 5.97775 18.4115 7.39237 19.0456C6.30387 16.8795 5.71584 14.4946 5.6736 12.0661H2.23701ZM16.325 12.0661C16.2833 14.4948 15.6936 16.8792 14.6053 19.0456C16.6416 18.1326 18.2617 16.4873 19.136 14.4305L19.2676 14.102C19.5147 13.4458 19.682 12.7623 19.7654 12.0661H16.325ZM8.38994 2.47904C7.04323 4.84226 6.33925 7.51702 6.34748 10.2365L6.34843 10.5773H1.49594L1.52528 10.21C1.60625 9.20926 1.84796 8.22782 2.23985 7.30333L2.43104 6.88214C3.43551 4.80358 5.16341 3.15379 7.29962 2.24904C7.52668 2.15325 7.7567 2.06696 7.98864 1.9897L8.82909 1.70953L8.38994 2.47904ZM11.1735 1.50509L11.2038 1.50604L11.2331 1.51172C11.6662 1.59523 12.0812 1.89713 12.4493 2.30583C12.8236 2.72146 13.1802 3.28116 13.4913 3.94327L13.4932 3.94705C13.9455 4.94246 14.2752 5.98935 14.4766 7.06387C14.6809 8.10683 14.8016 9.16485 14.8353 10.2271L14.8457 10.5773H7.15197L7.16238 10.2271C7.19619 9.16529 7.31593 8.10734 7.52014 7.06482C7.72115 5.99047 8.05175 4.94431 8.50351 3.94895L8.5054 3.94516C8.81654 3.28228 9.17313 2.72264 9.54745 2.30677C9.91568 1.89769 10.3304 1.59518 10.7637 1.51172L10.793 1.50604L10.8233 1.50509C10.94 1.50335 11.0567 1.50335 11.1735 1.50509ZM14.0081 1.98875C14.2422 2.06671 14.4736 2.15316 14.7009 2.24904C16.2974 2.92414 17.6793 4.02294 18.6969 5.42548C19.7143 6.82794 20.3295 8.48198 20.4753 10.2081L20.5055 10.5754H15.6474L15.6493 10.2356C15.6576 7.51605 14.9527 4.84127 13.6059 2.47809L13.1677 1.70859L14.0081 1.98875ZM10.8697 2.18373C10.649 2.23417 10.365 2.41127 10.051 2.76015C9.73295 3.11348 9.40986 3.61075 9.11965 4.22816L9.1206 4.22911C8.69098 5.17569 8.37736 6.17086 8.18645 7.19259V7.19543C8.0117 8.08753 7.90081 8.99104 7.85519 9.89863H14.1425C14.0969 8.99063 13.986 8.08699 13.8112 7.19449V7.19165C13.6199 6.16984 13.3053 5.17471 12.8752 4.22816C12.585 3.61155 12.2628 3.11327 11.9448 2.76015C11.631 2.41167 11.3477 2.23424 11.1271 2.18373C11.0413 2.18273 10.9555 2.18273 10.8697 2.18373ZM7.36492 2.96364C5.34246 3.87954 3.73336 5.52019 2.86357 7.56741C2.54793 8.312 2.33893 9.09727 2.23985 9.89863H5.6736C5.71675 7.48774 6.29471 5.11929 7.36492 2.96364ZM14.629 2.95986C15.7001 5.11612 16.28 7.48491 16.3231 9.89674H19.7588C19.5723 8.42731 19.0194 7.02636 18.147 5.82396C17.2432 4.57831 16.0301 3.59208 14.629 2.95986ZM22 10.9994C22.0015 13.1604 21.3662 15.2741 20.1724 17.0759C18.9785 18.8779 17.2792 20.2883 15.2877 21.1307C13.2965 21.9729 11.1011 22.2099 8.97579 21.8122C6.85048 21.4144 4.88914 20.3994 3.33774 18.8941C1.78632 17.3887 0.71274 15.4592 0.252292 13.3477C-0.208128 11.2361 -0.0358022 9.03537 0.748236 7.02128C1.5323 5.00716 2.89364 3.26832 4.66089 2.02283C6.42606 0.778906 8.51869 0.0824184 10.6775 0.0190907C10.8908 -0.00635348 11.106 -0.00637365 11.3192 0.0190907C14.1775 0.100588 16.8919 1.2911 18.8862 3.3394C20.8822 5.38964 21.9989 8.13889 22 10.9994Z" fill="white"/>
</svg>
