<svg width="22" height="22" viewBox="0 0 22 22" fill="none" xmlns="http://www.w3.org/2000/svg">
<g clip-path="url(#clip0_1_514)">
<path d="M11.0016 14.701C13.0455 14.701 14.7025 13.0441 14.7025 11.0002C14.7025 8.95624 13.0455 7.29932 11.0016 7.29932C8.9577 7.29932 7.30078 8.95624 7.30078 11.0002C7.30078 13.0441 8.9577 14.701 11.0016 14.701Z" stroke="#333333" stroke-width="2.2"/>
<path d="M13.7754 8.22428L17.4762 4.52344" stroke="#333333" stroke-width="2.2"/>
<path d="M4.52539 17.4767L8.22623 13.7759" stroke="#333333" stroke-width="2.2"/>
<path d="M8.22623 8.22428L4.52539 4.52344" stroke="#333333" stroke-width="2.2"/>
<path d="M17.4762 17.4767L13.7754 13.7759" stroke="#333333" stroke-width="2.2"/>
<path d="M8.60438 2.06144C10.1226 1.65326 11.7654 1.627 13.3931 2.06316C18.3288 3.38567 21.2579 8.45894 19.9354 13.3946C18.6129 18.3303 13.5396 21.2593 8.60392 19.9368C3.66824 18.6144 0.739184 13.5411 2.06169 8.60538C2.49786 6.9776 3.34199 5.56807 4.45459 4.45732" stroke="#333333" stroke-width="2.2" stroke-linecap="square"/>
</g>
<defs>
<clipPath id="clip0_1_514">
<rect width="22" height="22" fill="white"/>
</clipPath>
</defs>
</svg>
