<svg width="22" height="22" viewBox="0 0 22 22" fill="none" xmlns="http://www.w3.org/2000/svg">
<path d="M9.38168 11.8427C9.38165 10.4581 8.25912 9.33551 6.87445 9.3355C5.48978 9.3355 4.36725 10.4581 4.36723 11.8427C4.36723 13.2274 5.48976 14.35 6.87445 14.35C8.25913 14.3499 9.38168 13.2274 9.38168 11.8427ZM18.0635 4.97095C18.0635 4.06206 17.3267 3.32525 16.4178 3.32524C15.5089 3.32524 14.7721 4.06206 14.7721 4.97095C14.7721 5.87983 15.5089 6.61665 16.4178 6.61665C17.3267 6.61664 18.0635 5.87982 18.0635 4.97095ZM11.5817 11.8427C11.5817 13.171 11.0303 14.3696 10.1454 15.2254C10.6347 15.5084 11.0868 15.8532 11.4882 16.2545C12.0945 16.8608 12.5751 17.5813 12.9019 18.374C13.2287 19.1669 13.3958 20.0172 13.3928 20.8748L11.1928 20.8672C11.1948 20.2999 11.0846 19.7375 10.8684 19.2129C10.6522 18.6884 10.334 18.2112 9.93275 17.81C9.53171 17.409 9.05519 17.0916 8.5309 16.8754C8.00638 16.6593 7.44392 16.5491 6.8766 16.551H6.8723C6.30633 16.5511 5.74609 16.6627 5.22338 16.8797C4.70064 17.0968 4.22538 17.4145 3.82582 17.8154C3.42626 18.2163 3.10975 18.6926 2.89447 19.2162C2.6792 19.7398 2.56915 20.3011 2.57113 20.8672L0.371133 20.8748C0.368141 20.0191 0.534519 19.1708 0.859903 18.3793C1.18524 17.5882 1.66336 16.8691 2.26713 16.2631C2.66776 15.8611 3.11908 15.5146 3.60775 15.2308C2.72 14.3747 2.16723 13.1735 2.16723 11.8427C2.16725 9.24303 4.27475 7.1355 6.87445 7.1355C9.47414 7.13551 11.5817 9.24304 11.5817 11.8427ZM20.2635 4.97095C20.2635 7.09485 18.5417 8.81664 16.4178 8.81665C14.2939 8.81665 12.5721 7.09485 12.5721 4.97095C12.5721 2.84703 14.2939 1.12524 16.4178 1.12524C18.5417 1.12525 20.2635 2.84704 20.2635 4.97095Z" fill="#333333"/>
<path d="M16.4209 6.61862C17.1059 6.61895 17.7841 6.75339 18.4168 7.01609C19.0502 7.27912 19.6257 7.66466 20.1098 8.15046C20.5938 8.63625 20.978 9.21347 21.2388 9.84773C21.4993 10.4817 21.6321 11.1614 21.6298 11.8468L19.4298 11.8393C19.4312 11.4432 19.3537 11.0499 19.2031 10.6835C19.0525 10.3172 18.8306 9.98435 18.5511 9.70378C18.2714 9.42311 17.9395 9.19942 17.5735 9.04743C17.2076 8.89548 16.815 8.81759 16.4188 8.81755H16.4145C16.0173 8.81617 15.6237 8.89393 15.2564 9.04528C14.8894 9.19665 14.5554 9.41871 14.2746 9.69948C13.9939 9.98025 13.7717 10.3143 13.6204 10.6813C13.5461 10.8617 13.4899 11.0484 13.4518 11.2388C13.3573 10.1965 13.022 9.22409 12.5 8.37819C12.5707 8.29815 12.6434 8.21974 12.7191 8.14401C13.2052 7.65797 13.7831 7.27267 14.4186 7.01071C15.0529 6.7493 15.7326 6.61454 16.4188 6.61648L16.4209 6.61862Z" fill="#333333"/>
</svg>
