<svg width="22" height="22" viewBox="0 0 22 22" fill="none" xmlns="http://www.w3.org/2000/svg">
<g clip-path="url(#clip0_1_604)">
<path d="M16.4681 11.5872C17.0913 11.5872 17.5965 11.082 17.5965 10.4589C17.5965 9.83573 17.0913 9.33057 16.4681 9.33057C15.845 9.33057 15.3398 9.83573 15.3398 10.4589C15.3398 11.082 15.845 11.5872 16.4681 11.5872Z" fill="#A5F04B"/>
<path d="M11.0053 11.5872C11.6284 11.5872 12.1336 11.082 12.1336 10.4589C12.1336 9.83573 11.6284 9.33057 11.0053 9.33057C10.3821 9.33057 9.87695 9.83573 9.87695 10.4589C9.87695 11.082 10.3821 11.5872 11.0053 11.5872Z" fill="#A5F04B"/>
<path d="M5.54041 11.5872C6.16356 11.5872 6.66872 11.082 6.66872 10.4589C6.66872 9.83573 6.16356 9.33057 5.54041 9.33057C4.91727 9.33057 4.41211 9.83573 4.41211 10.4589C4.41211 11.082 4.91727 11.5872 5.54041 11.5872Z" fill="#A5F04B"/>
<path d="M21.9963 7.8575H19.7898C19.7898 5.65288 18.2436 3.85837 16.3432 3.85837H5.66479C3.76439 3.85837 2.21826 5.65288 2.21826 7.8575H0.0117188V7.80744C0.0232713 6.192 0.595126 4.66898 1.62523 3.51372C2.6977 2.31225 4.13214 1.6499 5.66672 1.6499H16.3452C17.8797 1.6499 19.3142 2.31225 20.3867 3.51372C21.4264 4.68053 22.0002 6.22281 22.0002 7.8575H21.9963Z" fill="#A5F04B"/>
<path d="M12.1091 20.5736H9.9025C9.9025 19.9825 9.42692 19.5512 9.14388 19.3471C8.5547 18.9216 7.71906 18.677 6.85069 18.677H5.66655C4.13198 18.677 2.69753 18.0147 1.62507 16.8132C0.587258 15.6483 0.0134776 14.1099 0.0115521 12.4791L0 11.6203V9.90034H2.20654V11.6146L2.2181 12.4714C2.2181 14.676 3.76422 16.4705 5.66463 16.4705H6.84877C8.18887 16.4705 9.4635 16.8575 10.4339 17.5584C10.6419 17.7085 10.8325 17.8703 11.0038 18.0436C11.1752 17.8703 11.3658 17.7085 11.5738 17.5584C12.5442 16.8575 13.8169 16.4705 15.1589 16.4705H16.3431C18.2435 16.4705 19.7896 14.676 19.7896 12.4714V12.456L19.7934 12.1652V9.3772H22V12.1864L21.9961 12.4771C21.9961 14.108 21.4224 15.6483 20.3826 16.8132C19.3102 18.0147 17.8757 18.677 16.3411 18.677H15.157C14.2886 18.677 13.453 18.9216 12.8638 19.3471C12.5808 19.5512 12.1052 19.9825 12.1052 20.5736H12.1091Z" fill="#A5F04B"/>
</g>
<defs>
<clipPath id="clip0_1_604">
<rect width="22" height="22" fill="white"/>
</clipPath>
</defs>
</svg>
